<ttFont>
<head>
    <!-- Most of this table will be recalculated by the compiler -->
    <tableVersion value="1.0"/>
    <fontRevision value="5.0"/>
    <checkSumAdjustment value="0xa8df65e2"/>
    <magicNumber value="0x5f0f3cf5"/>
    <flags value="00000000 00001011"/>
    <unitsPerEm value="2048"/>
    <created value="Sun May 15 08:57:39 2005"/>
    <modified value="Fri Apr 15 05:24:58 2011"/>
    <xMin value="-3721"/>
    <yMin value="-1031"/>
    <xMax value="7078"/>
    <yMax value="2297"/>
    <macStyle value="00000000 00000000"/>
    <lowestRecPPEM value="8"/>
    <fontDirectionHint value="2"/>
    <indexToLocFormat value="1"/>
    <glyphDataFormat value="0"/>
  </head>
    <TTGlyph name=".notdef" xMin="142" yMin="226" xMax="842" yMax="1588">
      <contour>
        <pt x="142" y="226" on="1"/>
        <pt x="142" y="1588" on="1"/>
        <pt x="842" y="1588" on="1"/>
        <pt x="842" y="226" on="1"/>
      </contour>
      <contour>
        <pt x="284" y="368" on="1"/>
        <pt x="700" y="368" on="1"/>
        <pt x="700" y="1447" on="1"/>
        <pt x="284" y="1447" on="1"/>
      </contour>
    </TTGlyph>
    <TTGlyph name=".null" xMin="142" yMin="226" xMax="842" yMax="1588">
      <contour>
        <pt x="142" y="226" on="1"/>
        <pt x="142" y="1588" on="1"/>
        <pt x="842" y="1588" on="1"/>
        <pt x="842" y="226" on="1"/>
      </contour>
      <contour>
        <pt x="284" y="368" on="1"/>
        <pt x="700" y="368" on="1"/>
        <pt x="700" y="1447" on="1"/>
        <pt x="284" y="1447" on="1"/>
      </contour>
    </TTGlyph>
    <TTGlyph name="afii57381" xMin="142" yMin="226" xMax="842" yMax="1588">
      <contour>
        <pt x="142" y="226" on="1"/>
        <pt x="142" y="1588" on="1"/>
        <pt x="842" y="1588" on="1"/>
        <pt x="842" y="226" on="1"/>
      </contour>
      <contour>
        <pt x="284" y="368" on="1"/>
        <pt x="700" y="368" on="1"/>
        <pt x="700" y="1447" on="1"/>
        <pt x="284" y="1447" on="1"/>
      </contour>
    </TTGlyph>
    <TTGlyph name="afii57388" xMin="142" yMin="226" xMax="842" yMax="1588">
      <contour>
        <pt x="142" y="226" on="1"/>
        <pt x="142" y="1588" on="1"/>
        <pt x="842" y="1588" on="1"/>
        <pt x="842" y="226" on="1"/>
      </contour>
      <contour>
        <pt x="284" y="368" on="1"/>
        <pt x="700" y="368" on="1"/>
        <pt x="700" y="1447" on="1"/>
        <pt x="284" y="1447" on="1"/>
      </contour>
    </TTGlyph>
    <TTGlyph name="afii57396" xMin="142" yMin="226" xMax="842" yMax="1588">
      <contour>
        <pt x="142" y="226" on="1"/>
        <pt x="142" y="1588" on="1"/>
        <pt x="842" y="1588" on="1"/>
        <pt x="842" y="226" on="1"/>
      </contour>
      <contour>
        <pt x="284" y="368" on="1"/>
        <pt x="700" y="368" on="1"/>
        <pt x="700" y="1447" on="1"/>
        <pt x="284" y="1447" on="1"/>
      </contour>
    </TTGlyph>
    <TTGlyph name="afii57397" xMin="142" yMin="226" xMax="842" yMax="1588">
      <contour>
        <pt x="142" y="226" on="1"/>
        <pt x="142" y="1588" on="1"/>
        <pt x="842" y="1588" on="1"/>
        <pt x="842" y="226" on="1"/>
      </contour>
      <contour>
        <pt x="284" y="368" on="1"/>
        <pt x="700" y="368" on="1"/>
        <pt x="700" y="1447" on="1"/>
        <pt x="284" y="1447" on="1"/>
      </contour>
    </TTGlyph>
    <TTGlyph name="afii57398" xMin="142" yMin="226" xMax="842" yMax="1588">
      <contour>
        <pt x="142" y="226" on="1"/>
        <pt x="142" y="1588" on="1"/>
        <pt x="842" y="1588" on="1"/>
        <pt x="842" y="226" on="1"/>
      </contour>
      <contour>
        <pt x="284" y="368" on="1"/>
        <pt x="700" y="368" on="1"/>
        <pt x="700" y="1447" on="1"/>
        <pt x="284" y="1447" on="1"/>
      </contour>
    </TTGlyph>
    <TTGlyph name="afii57403" xMin="142" yMin="226" xMax="842" yMax="1588">
      <contour>
        <pt x="142" y="226" on="1"/>
        <pt x="142" y="1588" on="1"/>
        <pt x="842" y="1588" on="1"/>
        <pt x="842" y="226" on="1"/>
      </contour>
      <contour>
        <pt x="284" y="368" on="1"/>
        <pt x="700" y="368" on="1"/>
        <pt x="700" y="1447" on="1"/>
        <pt x="284" y="1447" on="1"/>
      </contour>
    </TTGlyph>
    <TTGlyph name="afii57407" xMin="142" yMin="226" xMax="842" yMax="1588">
      <contour>
        <pt x="142" y="226" on="1"/>
        <pt x="142" y="1588" on="1"/>
        <pt x="842" y="1588" on="1"/>
        <pt x="842" y="226" on="1"/>
      </contour>
      <contour>
        <pt x="284" y="368" on="1"/>
        <pt x="700" y="368" on="1"/>
        <pt x="700" y="1447" on="1"/>
        <pt x="284" y="1447" on="1"/>
      </contour>
    </TTGlyph>
    <TTGlyph name="afii57440" xMin="142" yMin="226" xMax="842" yMax="1588">
      <contour>
        <pt x="142" y="226" on="1"/>
        <pt x="142" y="1588" on="1"/>
        <pt x="842" y="1588" on="1"/>
        <pt x="842" y="226" on="1"/>
      </contour>
      <contour>
        <pt x="284" y="368" on="1"/>
        <pt x="700" y="368" on="1"/>
        <pt x="700" y="1447" on="1"/>
        <pt x="284" y="1447" on="1"/>
      </contour>
    </TTGlyph>
    <TTGlyph name="afii57451" xMin="142" yMin="226" xMax="842" yMax="1588">
      <contour>
        <pt x="142" y="226" on="1"/>
        <pt x="142" y="1588" on="1"/>
        <pt x="842" y="1588" on="1"/>
        <pt x="842" y="226" on="1"/>
      </contour>
      <contour>
        <pt x="284" y="368" on="1"/>
        <pt x="700" y="368" on="1"/>
        <pt x="700" y="1447" on="1"/>
        <pt x="284" y="1447" on="1"/>
      </contour>
    </TTGlyph>
    <TTGlyph name="afii57452" xMin="142" yMin="226" xMax="842" yMax="1588">
      <contour>
        <pt x="142" y="226" on="1"/>
        <pt x="142" y="1588" on="1"/>
        <pt x="842" y="1588" on="1"/>
        <pt x="842" y="226" on="1"/>
      </contour>
      <contour>
        <pt x="284" y="368" on="1"/>
        <pt x="700" y="368" on="1"/>
        <pt x="700" y="1447" on="1"/>
        <pt x="284" y="1447" on="1"/>
      </contour>
    </TTGlyph>
    <TTGlyph name="afii57453" xMin="142" yMin="226" xMax="842" yMax="1588">
      <contour>
        <pt x="142" y="226" on="1"/>
        <pt x="142" y="1588" on="1"/>
        <pt x="842" y="1588" on="1"/>
        <pt x="842" y="226" on="1"/>
      </contour>
      <contour>
        <pt x="284" y="368" on="1"/>
        <pt x="700" y="368" on="1"/>
        <pt x="700" y="1447" on="1"/>
        <pt x="284" y="1447" on="1"/>
      </contour>
    </TTGlyph>
    <TTGlyph name="afii57454" xMin="142" yMin="226" xMax="842" yMax="1588">
      <contour>
        <pt x="142" y="226" on="1"/>
        <pt x="142" y="1588" on="1"/>
        <pt x="842" y="1588" on="1"/>
        <pt x="842" y="226" on="1"/>
      </contour>
      <contour>
        <pt x="284" y="368" on="1"/>
        <pt x="700" y="368" on="1"/>
        <pt x="700" y="1447" on="1"/>
        <pt x="284" y="1447" on="1"/>
      </contour>
    </TTGlyph>
    <TTGlyph name="afii57455" xMin="142" yMin="226" xMax="842" yMax="1588">
      <contour>
        <pt x="142" y="226" on="1"/>
        <pt x="142" y="1588" on="1"/>
        <pt x="842" y="1588" on="1"/>
        <pt x="842" y="226" on="1"/>
      </contour>
      <contour>
        <pt x="284" y="368" on="1"/>
        <pt x="700" y="368" on="1"/>
        <pt x="700" y="1447" on="1"/>
        <pt x="284" y="1447" on="1"/>
      </contour>
    </TTGlyph>
    <TTGlyph name="afii57456" xMin="142" yMin="226" xMax="842" yMax="1588">
      <contour>
        <pt x="142" y="226" on="1"/>
        <pt x="142" y="1588" on="1"/>
        <pt x="842" y="1588" on="1"/>
        <pt x="842" y="226" on="1"/>
      </contour>
      <contour>
        <pt x="284" y="368" on="1"/>
        <pt x="700" y="368" on="1"/>
        <pt x="700" y="1447" on="1"/>
        <pt x="284" y="1447" on="1"/>
      </contour>
    </TTGlyph>
    <TTGlyph name="afii57457" xMin="142" yMin="226" xMax="842" yMax="1588">
      <contour>
        <pt x="142" y="226" on="1"/>
        <pt x="142" y="1588" on="1"/>
        <pt x="842" y="1588" on="1"/>
        <pt x="842" y="226" on="1"/>
      </contour>
      <contour>
        <pt x="284" y="368" on="1"/>
        <pt x="700" y="368" on="1"/>
        <pt x="700" y="1447" on="1"/>
        <pt x="284" y="1447" on="1"/>
      </contour>
    </TTGlyph>
    <TTGlyph name="afii57458" xMin="142" yMin="226" xMax="842" yMax="1588">
      <contour>
        <pt x="142" y="226" on="1"/>
        <pt x="142" y="1588" on="1"/>
        <pt x="842" y="1588" on="1"/>
        <pt x="842" y="226" on="1"/>
      </contour>
      <contour>
        <pt x="284" y="368" on="1"/>
        <pt x="700" y="368" on="1"/>
        <pt x="700" y="1447" on="1"/>
        <pt x="284" y="1447" on="1"/>
      </contour>
    </TTGlyph>
    <TTGlyph name="afii57505" xMin="142" yMin="226" xMax="842" yMax="1588">
      <contour>
        <pt x="142" y="226" on="1"/>
        <pt x="142" y="1588" on="1"/>
        <pt x="842" y="1588" on="1"/>
        <pt x="842" y="226" on="1"/>
      </contour>
      <contour>
        <pt x="284" y="368" on="1"/>
        <pt x="700" y="368" on="1"/>
        <pt x="700" y="1447" on="1"/>
        <pt x="284" y="1447" on="1"/>
      </contour>
    </TTGlyph>
    <TTGlyph name="afii57506" xMin="142" yMin="226" xMax="842" yMax="1588">
      <contour>
        <pt x="142" y="226" on="1"/>
        <pt x="142" y="1588" on="1"/>
        <pt x="842" y="1588" on="1"/>
        <pt x="842" y="226" on="1"/>
      </contour>
      <contour>
        <pt x="284" y="368" on="1"/>
        <pt x="700" y="368" on="1"/>
        <pt x="700" y="1447" on="1"/>
        <pt x="284" y="1447" on="1"/>
      </contour>
    </TTGlyph>
    <TTGlyph name="afii57507" xMin="142" yMin="226" xMax="842" yMax="1588">
      <contour>
        <pt x="142" y="226" on="1"/>
        <pt x="142" y="1588" on="1"/>
        <pt x="842" y="1588" on="1"/>
        <pt x="842" y="226" on="1"/>
      </contour>
      <contour>
        <pt x="284" y="368" on="1"/>
        <pt x="700" y="368" on="1"/>
        <pt x="700" y="1447" on="1"/>
        <pt x="284" y="1447" on="1"/>
      </contour>
    </TTGlyph>
    <TTGlyph name="afii57508" xMin="142" yMin="226" xMax="842" yMax="1588">
      <contour>
        <pt x="142" y="226" on="1"/>
        <pt x="142" y="1588" on="1"/>
        <pt x="842" y="1588" on="1"/>
        <pt x="842" y="226" on="1"/>
      </contour>
      <contour>
        <pt x="284" y="368" on="1"/>
        <pt x="700" y="368" on="1"/>
        <pt x="700" y="1447" on="1"/>
        <pt x="284" y="1447" on="1"/>
      </contour>
    </TTGlyph>
    <TTGlyph name="afii57509" xMin="142" yMin="226" xMax="842" yMax="1588">
      <contour>
        <pt x="142" y="226" on="1"/>
        <pt x="142" y="1588" on="1"/>
        <pt x="842" y="1588" on="1"/>
        <pt x="842" y="226" on="1"/>
      </contour>
      <contour>
        <pt x="284" y="368" on="1"/>
        <pt x="700" y="368" on="1"/>
        <pt x="700" y="1447" on="1"/>
        <pt x="284" y="1447" on="1"/>
      </contour>
    </TTGlyph>
    <TTGlyph name="afii57511" xMin="142" yMin="226" xMax="842" yMax="1588">
      <contour>
        <pt x="142" y="226" on="1"/>
        <pt x="142" y="1588" on="1"/>
        <pt x="842" y="1588" on="1"/>
        <pt x="842" y="226" on="1"/>
      </contour>
      <contour>
        <pt x="284" y="368" on="1"/>
        <pt x="700" y="368" on="1"/>
        <pt x="700" y="1447" on="1"/>
        <pt x="284" y="1447" on="1"/>
      </contour>
    </TTGlyph>
    <TTGlyph name="afii57512" xMin="142" yMin="226" xMax="842" yMax="1588">
      <contour>
        <pt x="142" y="226" on="1"/>
        <pt x="142" y="1588" on="1"/>
        <pt x="842" y="1588" on="1"/>
        <pt x="842" y="226" on="1"/>
      </contour>
      <contour>
        <pt x="284" y="368" on="1"/>
        <pt x="700" y="368" on="1"/>
        <pt x="700" y="1447" on="1"/>
        <pt x="284" y="1447" on="1"/>
      </contour>
    </TTGlyph>
    <TTGlyph name="afii57513" xMin="142" yMin="226" xMax="842" yMax="1588">
      <contour>
        <pt x="142" y="226" on="1"/>
        <pt x="142" y="1588" on="1"/>
        <pt x="842" y="1588" on="1"/>
        <pt x="842" y="226" on="1"/>
      </contour>
      <contour>
        <pt x="284" y="368" on="1"/>
        <pt x="700" y="368" on="1"/>
        <pt x="700" y="1447" on="1"/>
        <pt x="284" y="1447" on="1"/>
      </contour>
    </TTGlyph>
    <TTGlyph name="afii57514" xMin="142" yMin="226" xMax="842" yMax="1588">
      <contour>
        <pt x="142" y="226" on="1"/>
        <pt x="142" y="1588" on="1"/>
        <pt x="842" y="1588" on="1"/>
        <pt x="842" y="226" on="1"/>
      </contour>
      <contour>
        <pt x="284" y="368" on="1"/>
        <pt x="700" y="368" on="1"/>
        <pt x="700" y="1447" on="1"/>
        <pt x="284" y="1447" on="1"/>
      </contour>
    </TTGlyph>
    <TTGlyph name="afii57519" xMin="142" yMin="226" xMax="842" yMax="1588">
      <contour>
        <pt x="142" y="226" on="1"/>
        <pt x="142" y="1588" on="1"/>
        <pt x="842" y="1588" on="1"/>
        <pt x="842" y="226" on="1"/>
      </contour>
      <contour>
        <pt x="284" y="368" on="1"/>
        <pt x="700" y="368" on="1"/>
        <pt x="700" y="1447" on="1"/>
        <pt x="284" y="1447" on="1"/>
      </contour>
    </TTGlyph>
    <TTGlyph name="afii57534" xMin="142" yMin="226" xMax="842" yMax="1588">
      <contour>
        <pt x="142" y="226" on="1"/>
        <pt x="142" y="1588" on="1"/>
        <pt x="842" y="1588" on="1"/>
        <pt x="842" y="226" on="1"/>
      </contour>
      <contour>
        <pt x="284" y="368" on="1"/>
        <pt x="700" y="368" on="1"/>
        <pt x="700" y="1447" on="1"/>
        <pt x="284" y="1447" on="1"/>
      </contour>
    </TTGlyph>
    <TTGlyph name="afii63167" xMin="142" yMin="226" xMax="842" yMax="1588">
      <contour>
        <pt x="142" y="226" on="1"/>
        <pt x="142" y="1588" on="1"/>
        <pt x="842" y="1588" on="1"/>
        <pt x="842" y="226" on="1"/>
      </contour>
      <contour>
        <pt x="284" y="368" on="1"/>
        <pt x="700" y="368" on="1"/>
        <pt x="700" y="1447" on="1"/>
        <pt x="284" y="1447" on="1"/>
      </contour>
    </TTGlyph>
    <TTGlyph name="alefmaksurainitial" xMin="142" yMin="226" xMax="842" yMax="1588">
      <contour>
        <pt x="142" y="226" on="1"/>
        <pt x="142" y="1588" on="1"/>
        <pt x="842" y="1588" on="1"/>
        <pt x="842" y="226" on="1"/>
      </contour>
      <contour>
        <pt x="284" y="368" on="1"/>
        <pt x="700" y="368" on="1"/>
        <pt x="700" y="1447" on="1"/>
        <pt x="284" y="1447" on="1"/>
      </contour>
    </TTGlyph>
    <TTGlyph name="alefwaslafinalarabic" xMin="142" yMin="226" xMax="842" yMax="1588">
      <contour>
        <pt x="142" y="226" on="1"/>
        <pt x="142" y="1588" on="1"/>
        <pt x="842" y="1588" on="1"/>
        <pt x="842" y="226" on="1"/>
      </contour>
      <contour>
        <pt x="284" y="368" on="1"/>
        <pt x="700" y="368" on="1"/>
        <pt x="700" y="1447" on="1"/>
        <pt x="284" y="1447" on="1"/>
      </contour>
    </TTGlyph>
    <TTGlyph name="ampersand" xMin="142" yMin="226" xMax="842" yMax="1588">
      <contour>
        <pt x="142" y="226" on="1"/>
        <pt x="142" y="1588" on="1"/>
        <pt x="842" y="1588" on="1"/>
        <pt x="842" y="226" on="1"/>
      </contour>
      <contour>
        <pt x="284" y="368" on="1"/>
        <pt x="700" y="368" on="1"/>
        <pt x="700" y="1447" on="1"/>
        <pt x="284" y="1447" on="1"/>
      </contour>
    </TTGlyph>
    <TTGlyph name="asterisk" xMin="142" yMin="226" xMax="842" yMax="1588">
      <contour>
        <pt x="142" y="226" on="1"/>
        <pt x="142" y="1588" on="1"/>
        <pt x="842" y="1588" on="1"/>
        <pt x="842" y="226" on="1"/>
      </contour>
      <contour>
        <pt x="284" y="368" on="1"/>
        <pt x="700" y="368" on="1"/>
        <pt x="700" y="1447" on="1"/>
        <pt x="284" y="1447" on="1"/>
      </contour>
    </TTGlyph>
    <TTGlyph name="behmeemisolatedarabic" xMin="142" yMin="226" xMax="842" yMax="1588">
      <contour>
        <pt x="142" y="226" on="1"/>
        <pt x="142" y="1588" on="1"/>
        <pt x="842" y="1588" on="1"/>
        <pt x="842" y="226" on="1"/>
      </contour>
      <contour>
        <pt x="284" y="368" on="1"/>
        <pt x="700" y="368" on="1"/>
        <pt x="700" y="1447" on="1"/>
        <pt x="284" y="1447" on="1"/>
      </contour>
    </TTGlyph>
    <TTGlyph name="behnoonfinalarabic" xMin="142" yMin="226" xMax="842" yMax="1588">
      <contour>
        <pt x="142" y="226" on="1"/>
        <pt x="142" y="1588" on="1"/>
        <pt x="842" y="1588" on="1"/>
        <pt x="842" y="226" on="1"/>
      </contour>
      <contour>
        <pt x="284" y="368" on="1"/>
        <pt x="700" y="368" on="1"/>
        <pt x="700" y="1447" on="1"/>
        <pt x="284" y="1447" on="1"/>
      </contour>
    </TTGlyph>
    <TTGlyph name="colon" xMin="142" yMin="226" xMax="842" yMax="1588">
      <contour>
        <pt x="142" y="226" on="1"/>
        <pt x="142" y="1588" on="1"/>
        <pt x="842" y="1588" on="1"/>
        <pt x="842" y="226" on="1"/>
      </contour>
      <contour>
        <pt x="284" y="368" on="1"/>
        <pt x="700" y="368" on="1"/>
        <pt x="700" y="1447" on="1"/>
        <pt x="284" y="1447" on="1"/>
      </contour>
    </TTGlyph>
    <TTGlyph name="dagger" xMin="142" yMin="226" xMax="842" yMax="1588">
      <contour>
        <pt x="142" y="226" on="1"/>
        <pt x="142" y="1588" on="1"/>
        <pt x="842" y="1588" on="1"/>
        <pt x="842" y="226" on="1"/>
      </contour>
      <contour>
        <pt x="284" y="368" on="1"/>
        <pt x="700" y="368" on="1"/>
        <pt x="700" y="1447" on="1"/>
        <pt x="284" y="1447" on="1"/>
      </contour>
    </TTGlyph>
    <TTGlyph name="dalringfinal" xMin="142" yMin="226" xMax="842" yMax="1588">
      <contour>
        <pt x="142" y="226" on="1"/>
        <pt x="142" y="1588" on="1"/>
        <pt x="842" y="1588" on="1"/>
        <pt x="842" y="226" on="1"/>
      </contour>
      <contour>
        <pt x="284" y="368" on="1"/>
        <pt x="700" y="368" on="1"/>
        <pt x="700" y="1447" on="1"/>
        <pt x="284" y="1447" on="1"/>
      </contour>
    </TTGlyph>
    <TTGlyph name="ddalfinalarabic" xMin="142" yMin="226" xMax="842" yMax="1588">
      <contour>
        <pt x="142" y="226" on="1"/>
        <pt x="142" y="1588" on="1"/>
        <pt x="842" y="1588" on="1"/>
        <pt x="842" y="226" on="1"/>
      </contour>
      <contour>
        <pt x="284" y="368" on="1"/>
        <pt x="700" y="368" on="1"/>
        <pt x="700" y="1447" on="1"/>
        <pt x="284" y="1447" on="1"/>
      </contour>
    </TTGlyph>
    <TTGlyph name="divide" xMin="142" yMin="226" xMax="842" yMax="1588">
      <contour>
        <pt x="142" y="226" on="1"/>
        <pt x="142" y="1588" on="1"/>
        <pt x="842" y="1588" on="1"/>
        <pt x="842" y="226" on="1"/>
      </contour>
      <contour>
        <pt x="284" y="368" on="1"/>
        <pt x="700" y="368" on="1"/>
        <pt x="700" y="1447" on="1"/>
        <pt x="284" y="1447" on="1"/>
      </contour>
    </TTGlyph>
    <TTGlyph name="dollar" xMin="142" yMin="226" xMax="842" yMax="1588">
      <contour>
        <pt x="142" y="226" on="1"/>
        <pt x="142" y="1588" on="1"/>
        <pt x="842" y="1588" on="1"/>
        <pt x="842" y="226" on="1"/>
      </contour>
      <contour>
        <pt x="284" y="368" on="1"/>
        <pt x="700" y="368" on="1"/>
        <pt x="700" y="1447" on="1"/>
        <pt x="284" y="1447" on="1"/>
      </contour>
    </TTGlyph>
    <TTGlyph name="dotlessyehfinalarabic" xMin="142" yMin="226" xMax="842" yMax="1588">
      <contour>
        <pt x="142" y="226" on="1"/>
        <pt x="142" y="1588" on="1"/>
        <pt x="842" y="1588" on="1"/>
        <pt x="842" y="226" on="1"/>
      </contour>
      <contour>
        <pt x="284" y="368" on="1"/>
        <pt x="700" y="368" on="1"/>
        <pt x="700" y="1447" on="1"/>
        <pt x="284" y="1447" on="1"/>
      </contour>
    </TTGlyph>
    <TTGlyph name="dotlessyehinitialarabic" xMin="142" yMin="226" xMax="842" yMax="1588">
      <contour>
        <pt x="142" y="226" on="1"/>
        <pt x="142" y="1588" on="1"/>
        <pt x="842" y="1588" on="1"/>
        <pt x="842" y="226" on="1"/>
      </contour>
      <contour>
        <pt x="284" y="368" on="1"/>
        <pt x="700" y="368" on="1"/>
        <pt x="700" y="1447" on="1"/>
        <pt x="284" y="1447" on="1"/>
      </contour>
    </TTGlyph>
    <TTGlyph name="dotlessyehmedialarabic" xMin="142" yMin="226" xMax="842" yMax="1588">
      <contour>
        <pt x="142" y="226" on="1"/>
        <pt x="142" y="1588" on="1"/>
        <pt x="842" y="1588" on="1"/>
        <pt x="842" y="226" on="1"/>
      </contour>
      <contour>
        <pt x="284" y="368" on="1"/>
        <pt x="700" y="368" on="1"/>
        <pt x="700" y="1447" on="1"/>
        <pt x="284" y="1447" on="1"/>
      </contour>
    </TTGlyph>
    <TTGlyph name="elefmaksuramedial" xMin="142" yMin="226" xMax="842" yMax="1588">
      <contour>
        <pt x="142" y="226" on="1"/>
        <pt x="142" y="1588" on="1"/>
        <pt x="842" y="1588" on="1"/>
        <pt x="842" y="226" on="1"/>
      </contour>
      <contour>
        <pt x="284" y="368" on="1"/>
        <pt x="700" y="368" on="1"/>
        <pt x="700" y="1447" on="1"/>
        <pt x="284" y="1447" on="1"/>
      </contour>
    </TTGlyph>
    <TTGlyph name="ellipsis" xMin="142" yMin="226" xMax="842" yMax="1588">
      <contour>
        <pt x="142" y="226" on="1"/>
        <pt x="142" y="1588" on="1"/>
        <pt x="842" y="1588" on="1"/>
        <pt x="842" y="226" on="1"/>
      </contour>
      <contour>
        <pt x="284" y="368" on="1"/>
        <pt x="700" y="368" on="1"/>
        <pt x="700" y="1447" on="1"/>
        <pt x="284" y="1447" on="1"/>
      </contour>
    </TTGlyph>
    <TTGlyph name="emdash" xMin="128" yMin="-540" xMax="2176" yMax="1650">
      <contour>
        <pt x="1905" y="1613" on="1"/>
        <pt x="1905" y="1575" on="0"/>
        <pt x="1848" y="1514" on="1"/>
        <pt x="1816" y="1484" on="0"/>
        <pt x="1784" y="1452" on="1"/>
        <pt x="1736" y="1398" on="0"/>
        <pt x="1635" y="1303" on="1"/>
        <pt x="1635" y="1307" on="0"/>
        <pt x="1629" y="1323" on="0"/>
        <pt x="1629" y="1338" on="1"/>
        <pt x="1629" y="1386" on="0"/>
        <pt x="1652" y="1411" on="1"/>
        <pt x="1870" y="1650" on="0"/>
        <pt x="1882" y="1649" on="1"/>
        <pt x="1905" y="1649" on="1"/>
      </contour>
      <contour>
        <pt x="1592" y="1490" on="1"/>
        <pt x="1593" y="1461" on="0"/>
        <pt x="1536" y="1398" on="1"/>
        <pt x="1484" y="1341" on="0"/>
        <pt x="1456" y="1325" on="1"/>
        <pt x="1451" y="1323" on="0"/>
        <pt x="1428" y="1323" on="1"/>
        <pt x="1415" y="1323" on="0"/>
        <pt x="1379" y="1346" on="1"/>
        <pt x="1384" y="1378" on="0"/>
        <pt x="1427" y="1401" on="1"/>
        <pt x="1471" y="1425" on="0"/>
        <pt x="1483" y="1461" on="1"/>
        <pt x="1480" y="1487" on="0"/>
        <pt x="1460" y="1487" on="1"/>
        <pt x="1458" y="1487" on="0"/>
        <pt x="1389" y="1440" on="1"/>
        <pt x="1379" y="1455" on="1"/>
        <pt x="1388" y="1511" on="0"/>
        <pt x="1451" y="1599" on="0"/>
        <pt x="1478" y="1599" on="1"/>
        <pt x="1483" y="1599" on="0"/>
        <pt x="1526" y="1571" on="1"/>
        <pt x="1572" y="1542" on="0"/>
        <pt x="1592" y="1536" on="1"/>
      </contour>
      <contour>
        <pt x="1864" y="714" on="1"/>
        <pt x="1839" y="616" on="0"/>
        <pt x="1812" y="616" on="1"/>
        <pt x="1786" y="616" on="0"/>
        <pt x="1760" y="693" on="1"/>
        <pt x="1764" y="717" on="0"/>
        <pt x="1777" y="758" on="1"/>
        <pt x="1794" y="791" on="0"/>
        <pt x="1812" y="791" on="1"/>
        <pt x="1825" y="791" on="0"/>
      </contour>
      <contour>
        <pt x="2176" y="-19" on="1"/>
        <pt x="2173" y="-43" on="0"/>
        <pt x="2168" y="-77" on="1"/>
        <pt x="2088" y="-186" on="0"/>
        <pt x="1912" y="-284" on="1"/>
        <pt x="1905" y="-270" on="0"/>
        <pt x="1905" y="-249" on="1"/>
        <pt x="1905" y="-207" on="0"/>
        <pt x="1928" y="-186" on="1"/>
        <pt x="1978" y="-139" on="0"/>
        <pt x="2055" y="-80" on="1"/>
        <pt x="2134" y="-18" on="0"/>
        <pt x="2143" y="-19" on="1"/>
      </contour>
      <contour>
        <pt x="1536" y="795" on="1"/>
        <pt x="1536" y="767" on="0"/>
        <pt x="1502" y="698" on="0"/>
        <pt x="1494" y="698" on="1"/>
        <pt x="1490" y="698" on="0"/>
        <pt x="1447" y="750" on="1"/>
        <pt x="1446" y="776" on="0"/>
        <pt x="1461" y="827" on="1"/>
        <pt x="1477" y="882" on="0"/>
        <pt x="1491" y="882" on="1"/>
        <pt x="1501" y="882" on="0"/>
        <pt x="1536" y="814" on="0"/>
      </contour>
      <contour>
        <pt x="2087" y="253" on="1"/>
        <pt x="2087" y="162" on="0"/>
        <pt x="2084" y="142" on="1"/>
        <pt x="2080" y="116" on="0"/>
        <pt x="2049" y="34" on="1"/>
        <pt x="2032" y="-8" on="0"/>
        <pt x="1984" y="-8" on="1"/>
        <pt x="1948" y="-8" on="0"/>
        <pt x="1865" y="74" on="0"/>
        <pt x="1856" y="74" on="1"/>
        <pt x="1847" y="74" on="0"/>
        <pt x="1842" y="65" on="1"/>
        <pt x="1827" y="36" on="0"/>
        <pt x="1794" y="-5" on="1"/>
        <pt x="1732" y="-49" on="0"/>
        <pt x="1663" y="-49" on="1"/>
        <pt x="1656" y="-49" on="0"/>
        <pt x="1516" y="22" on="0"/>
        <pt x="1509" y="22" on="1"/>
        <pt x="1502" y="22" on="0"/>
        <pt x="1383" y="-28" on="0"/>
        <pt x="1376" y="-28" on="1"/>
        <pt x="1348" y="-28" on="0"/>
        <pt x="1313" y="-5" on="1"/>
        <pt x="1310" y="-4" on="0"/>
        <pt x="1296" y="20" on="1"/>
        <pt x="1283" y="43" on="0"/>
        <pt x="1275" y="43" on="1"/>
        <pt x="1271" y="43" on="0"/>
        <pt x="1251" y="10" on="1"/>
        <pt x="1227" y="-27" on="0"/>
        <pt x="1210" y="-36" on="1"/>
        <pt x="1205" y="-39" on="0"/>
        <pt x="1178" y="-39" on="1"/>
        <pt x="1172" y="-39" on="0"/>
        <pt x="1125" y="-18" on="0"/>
        <pt x="1119" y="-18" on="1"/>
        <pt x="1112" y="-18" on="0"/>
        <pt x="1060" y="-39" on="0"/>
        <pt x="1053" y="-39" on="1"/>
        <pt x="1047" y="-39" on="0"/>
        <pt x="984" y="-18" on="0"/>
        <pt x="978" y="-18" on="1"/>
        <pt x="971" y="-18" on="0"/>
        <pt x="831" y="-69" on="0"/>
        <pt x="824" y="-69" on="1"/>
        <pt x="809" y="-69" on="0"/>
        <pt x="755" y="-36" on="1"/>
        <pt x="706" y="-4" on="0"/>
        <pt x="651" y="156" on="1"/>
        <pt x="634" y="132" on="0"/>
        <pt x="601" y="88" on="1"/>
        <pt x="576" y="53" on="0"/>
        <pt x="527" y="53" on="1"/>
        <pt x="495" y="53" on="0"/>
        <pt x="463" y="71" on="1"/>
        <pt x="420" y="97" on="0"/>
        <pt x="420" y="145" on="1"/>
        <pt x="420" y="158" on="0"/>
        <pt x="427" y="176" on="1"/>
        <pt x="438" y="202" on="0"/>
        <pt x="439" y="204" on="1"/>
        <pt x="467" y="300" on="0"/>
        <pt x="527" y="374" on="1"/>
        <pt x="592" y="454" on="0"/>
        <pt x="609" y="501" on="1"/>
        <pt x="610" y="525" on="0"/>
        <pt x="608" y="567" on="1"/>
        <pt x="606" y="615" on="0"/>
        <pt x="606" y="632" on="1"/>
        <pt x="606" y="702" on="0"/>
        <pt x="625" y="739" on="1"/>
        <pt x="629" y="733" on="0"/>
        <pt x="637" y="723" on="1"/>
        <pt x="655" y="556" on="0"/>
        <pt x="697" y="254" on="1"/>
        <pt x="708" y="191" on="0"/>
        <pt x="741" y="157" on="1"/>
        <pt x="765" y="135" on="0"/>
        <pt x="806" y="113" on="1"/>
        <pt x="843" y="94" on="0"/>
        <pt x="855" y="94" on="1"/>
        <pt x="930" y="94" on="0"/>
        <pt x="968" y="137" on="1"/>
        <pt x="976" y="145" on="0"/>
        <pt x="988" y="183" on="1"/>
        <pt x="1008" y="240" on="0"/>
        <pt x="1011" y="247" on="1"/>
        <pt x="1027" y="236" on="0"/>
        <pt x="1027" y="206" on="1"/>
        <pt x="1027" y="193" on="0"/>
        <pt x="1019" y="140" on="0"/>
        <pt x="1019" y="130" on="1"/>
        <pt x="1019" y="97" on="0"/>
        <pt x="1031" y="93" on="1"/>
        <pt x="1028" y="94" on="0"/>
        <pt x="1053" y="94" on="1"/>
        <pt x="1089" y="94" on="0"/>
        <pt x="1125" y="127" on="1"/>
        <pt x="1131" y="132" on="0"/>
        <pt x="1170" y="242" on="0"/>
        <pt x="1183" y="258" on="1"/>
        <pt x="1199" y="242" on="0"/>
        <pt x="1199" y="215" on="1"/>
        <pt x="1199" y="201" on="0"/>
        <pt x="1193" y="173" on="1"/>
        <pt x="1187" y="143" on="0"/>
        <pt x="1186" y="132" on="1"/>
        <pt x="1195" y="115" on="0"/>
        <pt x="1204" y="115" on="1"/>
        <pt x="1245" y="115" on="0"/>
        <pt x="1266" y="202" on="1"/>
        <pt x="1289" y="292" on="0"/>
        <pt x="1310" y="298" on="1"/>
        <pt x="1313" y="289" on="0"/>
        <pt x="1313" y="270" on="1"/>
        <pt x="1313" y="250" on="0"/>
        <pt x="1308" y="211" on="1"/>
        <pt x="1301" y="167" on="0"/>
        <pt x="1301" y="162" on="1"/>
        <pt x="1315" y="135" on="0"/>
        <pt x="1350" y="135" on="1"/>
        <pt x="1357" y="135" on="0"/>
        <pt x="1385" y="125" on="0"/>
        <pt x="1392" y="125" on="1"/>
        <pt x="1437" y="125" on="0"/>
        <pt x="1450" y="152" on="1"/>
        <pt x="1453" y="273" on="0"/>
        <pt x="1469" y="337" on="1"/>
        <pt x="1482" y="387" on="0"/>
        <pt x="1518" y="463" on="1"/>
        <pt x="1562" y="555" on="0"/>
        <pt x="1588" y="555" on="1"/>
        <pt x="1618" y="555" on="0"/>
        <pt x="1638" y="473" on="1"/>
        <pt x="1655" y="408" on="0"/>
        <pt x="1655" y="356" on="1"/>
        <pt x="1655" y="224" on="0"/>
        <pt x="1625" y="179" on="1"/>
        <pt x="1619" y="129" on="0"/>
        <pt x="1619" y="142" on="1"/>
        <pt x="1630" y="115" on="0"/>
        <pt x="1682" y="115" on="1"/>
        <pt x="1780" y="115" on="0"/>
        <pt x="1813" y="167" on="1"/>
        <pt x="1861" y="247" on="0"/>
        <pt x="1866" y="247" on="1"/>
        <pt x="1863" y="247" on="0"/>
        <pt x="1969" y="156" on="0"/>
        <pt x="1991" y="156" on="1"/>
        <pt x="2009" y="156" on="0"/>
        <pt x="2031" y="182" on="1"/>
        <pt x="2025" y="453" on="0"/>
        <pt x="1982" y="866" on="1"/>
        <pt x="1980" y="881" on="0"/>
        <pt x="1965" y="928" on="1"/>
        <pt x="1952" y="971" on="0"/>
        <pt x="1952" y="990" on="1"/>
        <pt x="1952" y="1050" on="0"/>
        <pt x="1991" y="1205" on="1"/>
        <pt x="1997" y="1208" on="0"/>
        <pt x="2007" y="1220" on="1"/>
        <pt x="2012" y="1173" on="0"/>
        <pt x="2021" y="1083" on="1"/>
        <pt x="2023" y="1068" on="0"/>
        <pt x="2039" y="1046" on="1"/>
        <pt x="2061" y="1014" on="0"/>
        <pt x="2062" y="1013" on="1"/>
        <pt x="2059" y="990" on="0"/>
        <pt x="2047" y="927" on="1"/>
        <pt x="2035" y="870" on="0"/>
        <pt x="2035" y="857" on="1"/>
        <pt x="2035" y="844" on="0"/>
        <pt x="2087" y="265" on="0"/>
      </contour>
      <contour>
        <pt x="1285" y="-205" on="1"/>
        <pt x="1280" y="-235" on="0"/>
        <pt x="1266" y="-273" on="1"/>
        <pt x="1223" y="-321" on="0"/>
        <pt x="1149" y="-384" on="1"/>
        <pt x="1039" y="-478" on="0"/>
        <pt x="1028" y="-489" on="1"/>
        <pt x="1005" y="-489" on="1"/>
        <pt x="1002" y="-476" on="0"/>
        <pt x="993" y="-454" on="1"/>
        <pt x="1001" y="-426" on="0"/>
        <pt x="1015" y="-391" on="1"/>
        <pt x="1067" y="-340" on="0"/>
        <pt x="1256" y="-192" on="1"/>
      </contour>
      <contour>
        <pt x="784" y="-194" on="1"/>
        <pt x="782" y="-225" on="0"/>
        <pt x="771" y="-272" on="1"/>
        <pt x="747" y="-321" on="0"/>
        <pt x="721" y="-343" on="1"/>
        <pt x="653" y="-398" on="0"/>
        <pt x="507" y="-540" on="1"/>
        <pt x="489" y="-540" on="1"/>
        <pt x="482" y="-526" on="0"/>
        <pt x="482" y="-510" on="1"/>
        <pt x="482" y="-456" on="0"/>
        <pt x="505" y="-432" on="1"/>
        <pt x="520" y="-416" on="0"/>
        <pt x="687" y="-272" on="1"/>
        <pt x="711" y="-242" on="0"/>
        <pt x="756" y="-194" on="1"/>
      </contour>
      <contour>
        <pt x="399" y="33" on="1"/>
        <pt x="390" y="20" on="0"/>
        <pt x="371" y="5" on="1"/>
        <pt x="254" y="-28" on="0"/>
        <pt x="217" y="-28" on="1"/>
        <pt x="192" y="-28" on="0"/>
        <pt x="165" y="-11" on="1"/>
        <pt x="128" y="11" on="0"/>
        <pt x="128" y="48" on="1"/>
        <pt x="128" y="67" on="0"/>
        <pt x="140" y="103" on="1"/>
        <pt x="152" y="143" on="0"/>
        <pt x="166" y="161" on="1"/>
        <pt x="191" y="175" on="0"/>
        <pt x="238" y="229" on="1"/>
        <pt x="250" y="252" on="0"/>
        <pt x="261" y="276" on="1"/>
        <pt x="277" y="309" on="0"/>
        <pt x="284" y="309" on="1"/>
        <pt x="311" y="309" on="0"/>
        <pt x="311" y="217" on="1"/>
        <pt x="311" y="179" on="0"/>
        <pt x="304" y="156" on="1"/>
        <pt x="289" y="156" on="0"/>
        <pt x="276" y="206" on="1"/>
        <pt x="260" y="187" on="0"/>
        <pt x="196" y="107" on="0"/>
        <pt x="180" y="87" on="1"/>
        <pt x="180" y="71" on="0"/>
        <pt x="184" y="66" on="1"/>
        <pt x="230" y="43" on="0"/>
        <pt x="266" y="43" on="1"/>
        <pt x="372" y="43" on="0"/>
      </contour>
      <contour>
        <pt x="1603" y="288" on="1"/>
        <pt x="1603" y="301" on="0"/>
        <pt x="1592" y="342" on="1"/>
        <pt x="1578" y="391" on="0"/>
        <pt x="1567" y="391" on="1"/>
        <pt x="1554" y="391" on="0"/>
        <pt x="1499" y="283" on="0"/>
        <pt x="1499" y="253" on="1"/>
        <pt x="1499" y="236" on="0"/>
        <pt x="1527" y="186" on="0"/>
        <pt x="1536" y="186" on="1"/>
        <pt x="1543" y="186" on="0"/>
        <pt x="1571" y="220" on="1"/>
        <pt x="1603" y="259" on="0"/>
      </contour>
      <contour>
        <pt x="639" y="256" on="1"/>
        <pt x="627" y="337" on="0"/>
        <pt x="616" y="370" on="1"/>
        <pt x="581" y="333" on="0"/>
        <pt x="546" y="297" on="1"/>
        <pt x="506" y="252" on="0"/>
        <pt x="504" y="220" on="1"/>
        <pt x="550" y="197" on="0"/>
        <pt x="566" y="197" on="1"/>
        <pt x="615" y="197" on="0"/>
      </contour>
    </TTGlyph>
    <TTGlyph name="endash" xMin="128" yMin="-540" xMax="1152" yMax="1650">
      <contour>
        <pt x="1017" y="1613" on="1"/>
        <pt x="1017" y="1575" on="0"/>
        <pt x="988" y="1514" on="1"/>
        <pt x="972" y="1484" on="0"/>
        <pt x="956" y="1452" on="1"/>
        <pt x="932" y="1398" on="0"/>
        <pt x="882" y="1303" on="1"/>
        <pt x="882" y="1307" on="0"/>
        <pt x="879" y="1323" on="0"/>
        <pt x="879" y="1338" on="1"/>
        <pt x="879" y="1386" on="0"/>
        <pt x="890" y="1411" on="1"/>
        <pt x="999" y="1650" on="0"/>
        <pt x="1005" y="1649" on="1"/>
        <pt x="1017" y="1649" on="1"/>
      </contour>
      <contour>
        <pt x="860" y="1490" on="1"/>
        <pt x="860" y="1461" on="0"/>
        <pt x="832" y="1398" on="1"/>
        <pt x="806" y="1341" on="0"/>
        <pt x="792" y="1325" on="1"/>
        <pt x="789" y="1323" on="0"/>
        <pt x="778" y="1323" on="1"/>
        <pt x="771" y="1323" on="0"/>
        <pt x="754" y="1346" on="1"/>
        <pt x="756" y="1378" on="0"/>
        <pt x="777" y="1401" on="1"/>
        <pt x="800" y="1425" on="0"/>
        <pt x="806" y="1461" on="1"/>
        <pt x="804" y="1487" on="0"/>
        <pt x="794" y="1487" on="1"/>
        <pt x="793" y="1487" on="0"/>
        <pt x="759" y="1440" on="1"/>
        <pt x="754" y="1455" on="1"/>
        <pt x="758" y="1511" on="0"/>
        <pt x="789" y="1599" on="0"/>
        <pt x="803" y="1599" on="1"/>
        <pt x="806" y="1599" on="0"/>
        <pt x="827" y="1571" on="1"/>
        <pt x="850" y="1542" on="0"/>
        <pt x="860" y="1536" on="1"/>
      </contour>
      <contour>
        <pt x="996" y="714" on="1"/>
        <pt x="983" y="616" on="0"/>
        <pt x="970" y="616" on="1"/>
        <pt x="957" y="616" on="0"/>
        <pt x="944" y="693" on="1"/>
        <pt x="946" y="717" on="0"/>
        <pt x="952" y="758" on="1"/>
        <pt x="961" y="791" on="0"/>
        <pt x="970" y="791" on="1"/>
        <pt x="976" y="791" on="0"/>
      </contour>
      <contour>
        <pt x="1152" y="-19" on="1"/>
        <pt x="1150" y="-43" on="0"/>
        <pt x="1148" y="-77" on="1"/>
        <pt x="1108" y="-186" on="0"/>
        <pt x="1020" y="-284" on="1"/>
        <pt x="1017" y="-270" on="0"/>
        <pt x="1017" y="-249" on="1"/>
        <pt x="1017" y="-207" on="0"/>
        <pt x="1028" y="-186" on="1"/>
        <pt x="1053" y="-139" on="0"/>
        <pt x="1092" y="-80" on="1"/>
        <pt x="1131" y="-18" on="0"/>
        <pt x="1135" y="-19" on="1"/>
      </contour>
      <contour>
        <pt x="832" y="795" on="1"/>
        <pt x="832" y="767" on="0"/>
        <pt x="815" y="698" on="0"/>
        <pt x="811" y="698" on="1"/>
        <pt x="809" y="698" on="0"/>
        <pt x="788" y="750" on="1"/>
        <pt x="787" y="776" on="0"/>
        <pt x="794" y="827" on="1"/>
        <pt x="803" y="882" on="0"/>
        <pt x="809" y="882" on="1"/>
        <pt x="814" y="882" on="0"/>
        <pt x="832" y="814" on="0"/>
      </contour>
      <contour>
        <pt x="1108" y="253" on="1"/>
        <pt x="1108" y="162" on="0"/>
        <pt x="1106" y="142" on="1"/>
        <pt x="1104" y="116" on="0"/>
        <pt x="1088" y="34" on="1"/>
        <pt x="1080" y="-8" on="0"/>
        <pt x="1056" y="-8" on="1"/>
        <pt x="1038" y="-8" on="0"/>
        <pt x="996" y="74" on="0"/>
        <pt x="992" y="74" on="1"/>
        <pt x="987" y="74" on="0"/>
        <pt x="985" y="65" on="1"/>
        <pt x="978" y="36" on="0"/>
        <pt x="961" y="-5" on="1"/>
        <pt x="930" y="-49" on="0"/>
        <pt x="895" y="-49" on="1"/>
        <pt x="892" y="-49" on="0"/>
        <pt x="822" y="22" on="0"/>
        <pt x="819" y="22" on="1"/>
        <pt x="815" y="22" on="0"/>
        <pt x="755" y="-28" on="0"/>
        <pt x="752" y="-28" on="1"/>
        <pt x="738" y="-28" on="0"/>
        <pt x="720" y="-5" on="1"/>
        <pt x="719" y="-4" on="0"/>
        <pt x="712" y="20" on="1"/>
        <pt x="705" y="43" on="0"/>
        <pt x="701" y="43" on="1"/>
        <pt x="700" y="43" on="0"/>
        <pt x="689" y="10" on="1"/>
        <pt x="678" y="-27" on="0"/>
        <pt x="669" y="-36" on="1"/>
        <pt x="667" y="-39" on="0"/>
        <pt x="653" y="-39" on="1"/>
        <pt x="650" y="-39" on="0"/>
        <pt x="626" y="-18" on="0"/>
        <pt x="623" y="-18" on="1"/>
        <pt x="620" y="-18" on="0"/>
        <pt x="594" y="-39" on="0"/>
        <pt x="591" y="-39" on="1"/>
        <pt x="588" y="-39" on="0"/>
        <pt x="556" y="-18" on="0"/>
        <pt x="553" y="-18" on="1"/>
        <pt x="550" y="-18" on="0"/>
        <pt x="479" y="-69" on="0"/>
        <pt x="476" y="-69" on="1"/>
        <pt x="468" y="-69" on="0"/>
        <pt x="442" y="-36" on="1"/>
        <pt x="417" y="-4" on="0"/>
        <pt x="389" y="156" on="1"/>
        <pt x="381" y="132" on="0"/>
        <pt x="365" y="88" on="1"/>
        <pt x="352" y="53" on="0"/>
        <pt x="327" y="53" on="1"/>
        <pt x="311" y="53" on="0"/>
        <pt x="296" y="71" on="1"/>
        <pt x="274" y="97" on="0"/>
        <pt x="274" y="145" on="1"/>
        <pt x="274" y="158" on="0"/>
        <pt x="278" y="176" on="1"/>
        <pt x="283" y="202" on="0"/>
        <pt x="284" y="204" on="1"/>
        <pt x="297" y="300" on="0"/>
        <pt x="327" y="374" on="1"/>
        <pt x="360" y="454" on="0"/>
        <pt x="369" y="501" on="1"/>
        <pt x="369" y="525" on="0"/>
        <pt x="368" y="567" on="1"/>
        <pt x="367" y="615" on="0"/>
        <pt x="367" y="632" on="1"/>
        <pt x="367" y="702" on="0"/>
        <pt x="377" y="739" on="1"/>
        <pt x="379" y="733" on="0"/>
        <pt x="382" y="723" on="1"/>
        <pt x="392" y="556" on="0"/>
        <pt x="413" y="254" on="1"/>
        <pt x="418" y="191" on="0"/>
        <pt x="435" y="157" on="1"/>
        <pt x="446" y="135" on="0"/>
        <pt x="467" y="113" on="1"/>
        <pt x="486" y="94" on="0"/>
        <pt x="492" y="94" on="1"/>
        <pt x="529" y="94" on="0"/>
        <pt x="548" y="137" on="1"/>
        <pt x="552" y="145" on="0"/>
        <pt x="558" y="183" on="1"/>
        <pt x="568" y="240" on="0"/>
        <pt x="569" y="247" on="1"/>
        <pt x="577" y="236" on="0"/>
        <pt x="577" y="206" on="1"/>
        <pt x="577" y="193" on="0"/>
        <pt x="574" y="140" on="0"/>
        <pt x="574" y="130" on="1"/>
        <pt x="574" y="97" on="0"/>
        <pt x="580" y="93" on="1"/>
        <pt x="578" y="94" on="0"/>
        <pt x="591" y="94" on="1"/>
        <pt x="609" y="94" on="0"/>
        <pt x="627" y="127" on="1"/>
        <pt x="629" y="132" on="0"/>
        <pt x="649" y="242" on="0"/>
        <pt x="656" y="258" on="1"/>
        <pt x="664" y="242" on="0"/>
        <pt x="664" y="215" on="1"/>
        <pt x="664" y="201" on="0"/>
        <pt x="660" y="173" on="1"/>
        <pt x="657" y="143" on="0"/>
        <pt x="657" y="132" on="1"/>
        <pt x="662" y="115" on="0"/>
        <pt x="666" y="115" on="1"/>
        <pt x="686" y="115" on="0"/>
        <pt x="697" y="202" on="1"/>
        <pt x="709" y="292" on="0"/>
        <pt x="719" y="298" on="1"/>
        <pt x="721" y="289" on="0"/>
        <pt x="721" y="270" on="1"/>
        <pt x="721" y="250" on="0"/>
        <pt x="718" y="211" on="1"/>
        <pt x="714" y="167" on="0"/>
        <pt x="714" y="162" on="1"/>
        <pt x="721" y="135" on="0"/>
        <pt x="739" y="135" on="1"/>
        <pt x="742" y="135" on="0"/>
        <pt x="757" y="125" on="0"/>
        <pt x="760" y="125" on="1"/>
        <pt x="782" y="125" on="0"/>
        <pt x="789" y="152" on="1"/>
        <pt x="791" y="273" on="0"/>
        <pt x="799" y="337" on="1"/>
        <pt x="805" y="387" on="0"/>
        <pt x="823" y="463" on="1"/>
        <pt x="845" y="555" on="0"/>
        <pt x="858" y="555" on="1"/>
        <pt x="873" y="555" on="0"/>
        <pt x="883" y="473" on="1"/>
        <pt x="892" y="408" on="0"/>
        <pt x="892" y="356" on="1"/>
        <pt x="892" y="224" on="0"/>
        <pt x="876" y="179" on="1"/>
        <pt x="873" y="129" on="0"/>
        <pt x="873" y="142" on="1"/>
        <pt x="879" y="115" on="0"/>
        <pt x="905" y="115" on="1"/>
        <pt x="954" y="115" on="0"/>
        <pt x="970" y="167" on="1"/>
        <pt x="995" y="247" on="0"/>
        <pt x="997" y="247" on="1"/>
        <pt x="995" y="247" on="0"/>
        <pt x="1048" y="156" on="0"/>
        <pt x="1060" y="156" on="1"/>
        <pt x="1069" y="156" on="0"/>
        <pt x="1079" y="182" on="1"/>
        <pt x="1077" y="453" on="0"/>
        <pt x="1055" y="866" on="1"/>
        <pt x="1054" y="881" on="0"/>
        <pt x="1047" y="928" on="1"/>
        <pt x="1040" y="971" on="0"/>
        <pt x="1040" y="990" on="1"/>
        <pt x="1040" y="1050" on="0"/>
        <pt x="1059" y="1205" on="1"/>
        <pt x="1062" y="1208" on="0"/>
        <pt x="1068" y="1220" on="1"/>
        <pt x="1070" y="1173" on="0"/>
        <pt x="1075" y="1083" on="1"/>
        <pt x="1076" y="1068" on="0"/>
        <pt x="1084" y="1046" on="1"/>
        <pt x="1095" y="1014" on="0"/>
        <pt x="1095" y="1013" on="1"/>
        <pt x="1094" y="990" on="0"/>
        <pt x="1087" y="927" on="1"/>
        <pt x="1082" y="870" on="0"/>
        <pt x="1082" y="857" on="1"/>
        <pt x="1082" y="844" on="0"/>
        <pt x="1108" y="265" on="0"/>
      </contour>
      <contour>
        <pt x="706" y="-205" on="1"/>
        <pt x="704" y="-235" on="0"/>
        <pt x="697" y="-273" on="1"/>
        <pt x="675" y="-321" on="0"/>
        <pt x="638" y="-384" on="1"/>
        <pt x="584" y="-478" on="0"/>
        <pt x="578" y="-489" on="1"/>
        <pt x="567" y="-489" on="1"/>
        <pt x="565" y="-476" on="0"/>
        <pt x="561" y="-454" on="1"/>
        <pt x="564" y="-426" on="0"/>
        <pt x="572" y="-391" on="1"/>
        <pt x="598" y="-340" on="0"/>
        <pt x="692" y="-192" on="1"/>
      </contour>
      <contour>
        <pt x="456" y="-194" on="1"/>
        <pt x="455" y="-225" on="0"/>
        <pt x="450" y="-272" on="1"/>
        <pt x="438" y="-321" on="0"/>
        <pt x="424" y="-343" on="1"/>
        <pt x="390" y="-398" on="0"/>
        <pt x="317" y="-540" on="1"/>
        <pt x="308" y="-540" on="1"/>
        <pt x="305" y="-526" on="0"/>
        <pt x="305" y="-510" on="1"/>
        <pt x="305" y="-456" on="0"/>
        <pt x="316" y="-432" on="1"/>
        <pt x="324" y="-416" on="0"/>
        <pt x="408" y="-272" on="1"/>
        <pt x="419" y="-242" on="0"/>
        <pt x="442" y="-194" on="1"/>
      </contour>
      <contour>
        <pt x="263" y="33" on="1"/>
        <pt x="259" y="20" on="0"/>
        <pt x="249" y="5" on="1"/>
        <pt x="191" y="-28" on="0"/>
        <pt x="172" y="-28" on="1"/>
        <pt x="160" y="-28" on="0"/>
        <pt x="146" y="-11" on="1"/>
        <pt x="128" y="11" on="0"/>
        <pt x="128" y="48" on="1"/>
        <pt x="128" y="67" on="0"/>
        <pt x="134" y="103" on="1"/>
        <pt x="140" y="143" on="0"/>
        <pt x="147" y="161" on="1"/>
        <pt x="159" y="175" on="0"/>
        <pt x="183" y="229" on="1"/>
        <pt x="189" y="252" on="0"/>
        <pt x="194" y="276" on="1"/>
        <pt x="202" y="309" on="0"/>
        <pt x="206" y="309" on="1"/>
        <pt x="219" y="309" on="0"/>
        <pt x="219" y="217" on="1"/>
        <pt x="219" y="179" on="0"/>
        <pt x="216" y="156" on="1"/>
        <pt x="208" y="156" on="0"/>
        <pt x="202" y="206" on="1"/>
        <pt x="194" y="187" on="0"/>
        <pt x="162" y="107" on="0"/>
        <pt x="154" y="87" on="1"/>
        <pt x="154" y="71" on="0"/>
        <pt x="156" y="66" on="1"/>
        <pt x="179" y="43" on="0"/>
        <pt x="197" y="43" on="1"/>
        <pt x="250" y="43" on="0"/>
      </contour>
      <contour>
        <pt x="866" y="288" on="1"/>
        <pt x="866" y="301" on="0"/>
        <pt x="860" y="342" on="1"/>
        <pt x="853" y="391" on="0"/>
        <pt x="847" y="391" on="1"/>
        <pt x="841" y="391" on="0"/>
        <pt x="813" y="283" on="0"/>
        <pt x="813" y="253" on="1"/>
        <pt x="813" y="236" on="0"/>
        <pt x="827" y="186" on="0"/>
        <pt x="832" y="186" on="1"/>
        <pt x="835" y="186" on="0"/>
        <pt x="849" y="220" on="1"/>
        <pt x="866" y="259" on="0"/>
      </contour>
      <contour>
        <pt x="384" y="256" on="1"/>
        <pt x="378" y="337" on="0"/>
        <pt x="372" y="370" on="1"/>
        <pt x="355" y="333" on="0"/>
        <pt x="337" y="297" on="1"/>
        <pt x="317" y="252" on="0"/>
        <pt x="316" y="220" on="1"/>
        <pt x="339" y="197" on="0"/>
        <pt x="347" y="197" on="1"/>
        <pt x="371" y="197" on="0"/>
      </contour>
    </TTGlyph>
    <TTGlyph name="equal" xMin="142" yMin="226" xMax="842" yMax="1588">
      <contour>
        <pt x="142" y="226" on="1"/>
        <pt x="142" y="1588" on="1"/>
        <pt x="842" y="1588" on="1"/>
        <pt x="842" y="226" on="1"/>
      </contour>
      <contour>
        <pt x="284" y="368" on="1"/>
        <pt x="700" y="368" on="1"/>
        <pt x="700" y="1447" on="1"/>
        <pt x="284" y="1447" on="1"/>
      </contour>
    </TTGlyph>
    <TTGlyph name="exclam" xMin="142" yMin="226" xMax="842" yMax="1588">
      <contour>
        <pt x="142" y="226" on="1"/>
        <pt x="142" y="1588" on="1"/>
        <pt x="842" y="1588" on="1"/>
        <pt x="842" y="226" on="1"/>
      </contour>
      <contour>
        <pt x="284" y="368" on="1"/>
        <pt x="700" y="368" on="1"/>
        <pt x="700" y="1447" on="1"/>
        <pt x="284" y="1447" on="1"/>
      </contour>
    </TTGlyph>
    <TTGlyph name="figuredash" xMin="128" yMin="-540" xMax="4151" yMax="1650">
      <contour>
        <pt x="3619" y="1613" on="1"/>
        <pt x="3619" y="1575" on="0"/>
        <pt x="3507" y="1514" on="1"/>
        <pt x="3444" y="1484" on="0"/>
        <pt x="3381" y="1452" on="1"/>
        <pt x="3286" y="1398" on="0"/>
        <pt x="3089" y="1303" on="1"/>
        <pt x="3089" y="1307" on="0"/>
        <pt x="3077" y="1323" on="0"/>
        <pt x="3077" y="1338" on="1"/>
        <pt x="3077" y="1386" on="0"/>
        <pt x="3121" y="1411" on="1"/>
        <pt x="3550" y="1650" on="0"/>
        <pt x="3574" y="1649" on="1"/>
        <pt x="3619" y="1649" on="1"/>
      </contour>
      <contour>
        <pt x="3004" y="1490" on="1"/>
        <pt x="3005" y="1461" on="0"/>
        <pt x="2893" y="1398" on="1"/>
        <pt x="2792" y="1341" on="0"/>
        <pt x="2736" y="1325" on="1"/>
        <pt x="2726" y="1323" on="0"/>
        <pt x="2682" y="1323" on="1"/>
        <pt x="2656" y="1323" on="0"/>
        <pt x="2586" y="1346" on="1"/>
        <pt x="2596" y="1378" on="0"/>
        <pt x="2679" y="1401" on="1"/>
        <pt x="2767" y="1425" on="0"/>
        <pt x="2790" y="1461" on="1"/>
        <pt x="2784" y="1487" on="0"/>
        <pt x="2744" y="1487" on="1"/>
        <pt x="2740" y="1487" on="0"/>
        <pt x="2606" y="1440" on="1"/>
        <pt x="2586" y="1455" on="1"/>
        <pt x="2604" y="1511" on="0"/>
        <pt x="2726" y="1599" on="0"/>
        <pt x="2780" y="1599" on="1"/>
        <pt x="2790" y="1599" on="0"/>
        <pt x="2875" y="1571" on="1"/>
        <pt x="2965" y="1542" on="0"/>
        <pt x="3004" y="1536" on="1"/>
      </contour>
      <contour>
        <pt x="3538" y="714" on="1"/>
        <pt x="3489" y="616" on="0"/>
        <pt x="3435" y="616" on="1"/>
        <pt x="3385" y="616" on="0"/>
        <pt x="3333" y="693" on="1"/>
        <pt x="3342" y="717" on="0"/>
        <pt x="3367" y="758" on="1"/>
        <pt x="3400" y="791" on="0"/>
        <pt x="3435" y="791" on="1"/>
        <pt x="3461" y="791" on="0"/>
      </contour>
      <contour>
        <pt x="4151" y="-19" on="1"/>
        <pt x="4145" y="-43" on="0"/>
        <pt x="4136" y="-77" on="1"/>
        <pt x="3979" y="-186" on="0"/>
        <pt x="3633" y="-284" on="1"/>
        <pt x="3619" y="-270" on="0"/>
        <pt x="3619" y="-249" on="1"/>
        <pt x="3619" y="-207" on="0"/>
        <pt x="3664" y="-186" on="1"/>
        <pt x="3763" y="-139" on="0"/>
        <pt x="3914" y="-80" on="1"/>
        <pt x="4068" y="-18" on="0"/>
        <pt x="4086" y="-19" on="1"/>
      </contour>
      <contour>
        <pt x="2893" y="795" on="1"/>
        <pt x="2893" y="767" on="0"/>
        <pt x="2828" y="698" on="0"/>
        <pt x="2811" y="698" on="1"/>
        <pt x="2803" y="698" on="0"/>
        <pt x="2719" y="750" on="1"/>
        <pt x="2717" y="776" on="0"/>
        <pt x="2746" y="827" on="1"/>
        <pt x="2778" y="882" on="0"/>
        <pt x="2805" y="882" on="1"/>
        <pt x="2825" y="882" on="0"/>
        <pt x="2893" y="814" on="0"/>
      </contour>
      <contour>
        <pt x="3977" y="253" on="1"/>
        <pt x="3977" y="162" on="0"/>
        <pt x="3971" y="142" on="1"/>
        <pt x="3962" y="116" on="0"/>
        <pt x="3901" y="34" on="1"/>
        <pt x="3869" y="-8" on="0"/>
        <pt x="3773" y="-8" on="1"/>
        <pt x="3704" y="-8" on="0"/>
        <pt x="3540" y="74" on="0"/>
        <pt x="3522" y="74" on="1"/>
        <pt x="3504" y="74" on="0"/>
        <pt x="3495" y="65" on="1"/>
        <pt x="3466" y="36" on="0"/>
        <pt x="3401" y="-5" on="1"/>
        <pt x="3278" y="-49" on="0"/>
        <pt x="3143" y="-49" on="1"/>
        <pt x="3130" y="-49" on="0"/>
        <pt x="2854" y="22" on="0"/>
        <pt x="2841" y="22" on="1"/>
        <pt x="2828" y="22" on="0"/>
        <pt x="2593" y="-28" on="0"/>
        <pt x="2580" y="-28" on="1"/>
        <pt x="2524" y="-28" on="0"/>
        <pt x="2455" y="-5" on="1"/>
        <pt x="2450" y="-4" on="0"/>
        <pt x="2422" y="20" on="1"/>
        <pt x="2396" y="43" on="0"/>
        <pt x="2381" y="43" on="1"/>
        <pt x="2374" y="43" on="0"/>
        <pt x="2333" y="10" on="1"/>
        <pt x="2287" y="-27" on="0"/>
        <pt x="2254" y="-36" on="1"/>
        <pt x="2244" y="-39" on="0"/>
        <pt x="2191" y="-39" on="1"/>
        <pt x="2178" y="-39" on="0"/>
        <pt x="2086" y="-18" on="0"/>
        <pt x="2074" y="-18" on="1"/>
        <pt x="2060" y="-18" on="0"/>
        <pt x="1958" y="-39" on="0"/>
        <pt x="1946" y="-39" on="1"/>
        <pt x="1934" y="-39" on="0"/>
        <pt x="1810" y="-18" on="0"/>
        <pt x="1797" y="-18" on="1"/>
        <pt x="1784" y="-18" on="0"/>
        <pt x="1508" y="-69" on="0"/>
        <pt x="1495" y="-69" on="1"/>
        <pt x="1465" y="-69" on="0"/>
        <pt x="1360" y="-36" on="1"/>
        <pt x="1263" y="-4" on="0"/>
        <pt x="1155" y="156" on="1"/>
        <pt x="1121" y="132" on="0"/>
        <pt x="1058" y="88" on="1"/>
        <pt x="1008" y="53" on="0"/>
        <pt x="911" y="53" on="1"/>
        <pt x="848" y="53" on="0"/>
        <pt x="787" y="71" on="1"/>
        <pt x="701" y="97" on="0"/>
        <pt x="701" y="145" on="1"/>
        <pt x="701" y="158" on="0"/>
        <pt x="716" y="176" on="1"/>
        <pt x="737" y="202" on="0"/>
        <pt x="739" y="204" on="1"/>
        <pt x="793" y="300" on="0"/>
        <pt x="911" y="374" on="1"/>
        <pt x="1039" y="454" on="0"/>
        <pt x="1073" y="501" on="1"/>
        <pt x="1074" y="525" on="0"/>
        <pt x="1071" y="567" on="1"/>
        <pt x="1067" y="615" on="0"/>
        <pt x="1067" y="632" on="1"/>
        <pt x="1067" y="702" on="0"/>
        <pt x="1105" y="739" on="1"/>
        <pt x="1113" y="733" on="0"/>
        <pt x="1127" y="723" on="1"/>
        <pt x="1164" y="556" on="0"/>
        <pt x="1246" y="254" on="1"/>
        <pt x="1268" y="191" on="0"/>
        <pt x="1333" y="157" on="1"/>
        <pt x="1379" y="135" on="0"/>
        <pt x="1460" y="113" on="1"/>
        <pt x="1533" y="94" on="0"/>
        <pt x="1557" y="94" on="1"/>
        <pt x="1703" y="94" on="0"/>
        <pt x="1779" y="137" on="1"/>
        <pt x="1793" y="145" on="0"/>
        <pt x="1818" y="183" on="1"/>
        <pt x="1856" y="240" on="0"/>
        <pt x="1862" y="247" on="1"/>
        <pt x="1893" y="236" on="0"/>
        <pt x="1893" y="206" on="1"/>
        <pt x="1893" y="193" on="0"/>
        <pt x="1879" y="140" on="0"/>
        <pt x="1879" y="130" on="1"/>
        <pt x="1879" y="97" on="0"/>
        <pt x="1902" y="93" on="1"/>
        <pt x="1895" y="94" on="0"/>
        <pt x="1946" y="94" on="1"/>
        <pt x="2016" y="94" on="0"/>
        <pt x="2087" y="127" on="1"/>
        <pt x="2098" y="132" on="0"/>
        <pt x="2174" y="242" on="0"/>
        <pt x="2201" y="258" on="1"/>
        <pt x="2232" y="242" on="0"/>
        <pt x="2232" y="215" on="1"/>
        <pt x="2232" y="201" on="0"/>
        <pt x="2220" y="173" on="1"/>
        <pt x="2208" y="143" on="0"/>
        <pt x="2206" y="132" on="1"/>
        <pt x="2224" y="115" on="0"/>
        <pt x="2242" y="115" on="1"/>
        <pt x="2322" y="115" on="0"/>
        <pt x="2364" y="202" on="1"/>
        <pt x="2409" y="292" on="0"/>
        <pt x="2449" y="298" on="1"/>
        <pt x="2456" y="289" on="0"/>
        <pt x="2456" y="270" on="1"/>
        <pt x="2456" y="250" on="0"/>
        <pt x="2445" y="211" on="1"/>
        <pt x="2432" y="167" on="0"/>
        <pt x="2432" y="162" on="1"/>
        <pt x="2459" y="135" on="0"/>
        <pt x="2529" y="135" on="1"/>
        <pt x="2542" y="135" on="0"/>
        <pt x="2598" y="125" on="0"/>
        <pt x="2611" y="125" on="1"/>
        <pt x="2699" y="125" on="0"/>
        <pt x="2725" y="152" on="1"/>
        <pt x="2731" y="273" on="0"/>
        <pt x="2763" y="337" on="1"/>
        <pt x="2787" y="387" on="0"/>
        <pt x="2859" y="463" on="1"/>
        <pt x="2945" y="555" on="0"/>
        <pt x="2995" y="555" on="1"/>
        <pt x="3054" y="555" on="0"/>
        <pt x="3095" y="473" on="1"/>
        <pt x="3128" y="408" on="0"/>
        <pt x="3128" y="356" on="1"/>
        <pt x="3128" y="224" on="0"/>
        <pt x="3068" y="179" on="1"/>
        <pt x="3056" y="129" on="0"/>
        <pt x="3056" y="142" on="1"/>
        <pt x="3079" y="115" on="0"/>
        <pt x="3180" y="115" on="1"/>
        <pt x="3374" y="115" on="0"/>
        <pt x="3437" y="167" on="1"/>
        <pt x="3533" y="247" on="0"/>
        <pt x="3542" y="247" on="1"/>
        <pt x="3536" y="247" on="0"/>
        <pt x="3744" y="156" on="0"/>
        <pt x="3788" y="156" on="1"/>
        <pt x="3823" y="156" on="0"/>
        <pt x="3866" y="182" on="1"/>
        <pt x="3855" y="453" on="0"/>
        <pt x="3769" y="866" on="1"/>
        <pt x="3766" y="881" on="0"/>
        <pt x="3737" y="928" on="1"/>
        <pt x="3711" y="971" on="0"/>
        <pt x="3711" y="990" on="1"/>
        <pt x="3711" y="1050" on="0"/>
        <pt x="3787" y="1205" on="1"/>
        <pt x="3799" y="1208" on="0"/>
        <pt x="3820" y="1220" on="1"/>
        <pt x="3828" y="1173" on="0"/>
        <pt x="3847" y="1083" on="1"/>
        <pt x="3851" y="1068" on="0"/>
        <pt x="3882" y="1046" on="1"/>
        <pt x="3926" y="1014" on="0"/>
        <pt x="3927" y="1013" on="1"/>
        <pt x="3922" y="990" on="0"/>
        <pt x="3897" y="927" on="1"/>
        <pt x="3875" y="870" on="0"/>
        <pt x="3875" y="857" on="1"/>
        <pt x="3875" y="844" on="0"/>
        <pt x="3977" y="265" on="0"/>
      </contour>
      <contour>
        <pt x="2400" y="-205" on="1"/>
        <pt x="2391" y="-235" on="0"/>
        <pt x="2364" y="-273" on="1"/>
        <pt x="2278" y="-321" on="0"/>
        <pt x="2133" y="-384" on="1"/>
        <pt x="1918" y="-478" on="0"/>
        <pt x="1895" y="-489" on="1"/>
        <pt x="1851" y="-489" on="1"/>
        <pt x="1844" y="-476" on="0"/>
        <pt x="1828" y="-454" on="1"/>
        <pt x="1842" y="-426" on="0"/>
        <pt x="1871" y="-391" on="1"/>
        <pt x="1973" y="-340" on="0"/>
        <pt x="2344" y="-192" on="1"/>
      </contour>
      <contour>
        <pt x="1417" y="-194" on="1"/>
        <pt x="1413" y="-225" on="0"/>
        <pt x="1392" y="-272" on="1"/>
        <pt x="1344" y="-321" on="0"/>
        <pt x="1292" y="-343" on="1"/>
        <pt x="1159" y="-398" on="0"/>
        <pt x="872" y="-540" on="1"/>
        <pt x="837" y="-540" on="1"/>
        <pt x="824" y="-526" on="0"/>
        <pt x="824" y="-510" on="1"/>
        <pt x="824" y="-456" on="0"/>
        <pt x="868" y="-432" on="1"/>
        <pt x="898" y="-416" on="0"/>
        <pt x="1227" y="-272" on="1"/>
        <pt x="1273" y="-242" on="0"/>
        <pt x="1361" y="-194" on="1"/>
      </contour>
      <contour>
        <pt x="660" y="33" on="1"/>
        <pt x="643" y="20" on="0"/>
        <pt x="605" y="5" on="1"/>
        <pt x="376" y="-28" on="0"/>
        <pt x="302" y="-28" on="1"/>
        <pt x="254" y="-28" on="0"/>
        <pt x="200" y="-11" on="1"/>
        <pt x="128" y="11" on="0"/>
        <pt x="128" y="48" on="1"/>
        <pt x="128" y="67" on="0"/>
        <pt x="151" y="103" on="1"/>
        <pt x="175" y="143" on="0"/>
        <pt x="202" y="161" on="1"/>
        <pt x="251" y="175" on="0"/>
        <pt x="345" y="229" on="1"/>
        <pt x="367" y="252" on="0"/>
        <pt x="389" y="276" on="1"/>
        <pt x="420" y="309" on="0"/>
        <pt x="435" y="309" on="1"/>
        <pt x="487" y="309" on="0"/>
        <pt x="487" y="217" on="1"/>
        <pt x="487" y="179" on="0"/>
        <pt x="474" y="156" on="1"/>
        <pt x="444" y="156" on="0"/>
        <pt x="419" y="206" on="1"/>
        <pt x="388" y="187" on="0"/>
        <pt x="261" y="107" on="0"/>
        <pt x="230" y="87" on="1"/>
        <pt x="230" y="71" on="0"/>
        <pt x="238" y="66" on="1"/>
        <pt x="328" y="43" on="0"/>
        <pt x="399" y="43" on="1"/>
        <pt x="608" y="43" on="0"/>
      </contour>
      <contour>
        <pt x="3026" y="288" on="1"/>
        <pt x="3026" y="301" on="0"/>
        <pt x="3003" y="342" on="1"/>
        <pt x="2977" y="391" on="0"/>
        <pt x="2954" y="391" on="1"/>
        <pt x="2929" y="391" on="0"/>
        <pt x="2821" y="283" on="0"/>
        <pt x="2821" y="253" on="1"/>
        <pt x="2821" y="236" on="0"/>
        <pt x="2876" y="186" on="0"/>
        <pt x="2893" y="186" on="1"/>
        <pt x="2907" y="186" on="0"/>
        <pt x="2962" y="220" on="1"/>
        <pt x="3026" y="259" on="0"/>
      </contour>
      <contour>
        <pt x="1132" y="256" on="1"/>
        <pt x="1109" y="337" on="0"/>
        <pt x="1086" y="370" on="1"/>
        <pt x="1018" y="333" on="0"/>
        <pt x="949" y="297" on="1"/>
        <pt x="871" y="252" on="0"/>
        <pt x="866" y="220" on="1"/>
        <pt x="957" y="197" on="0"/>
        <pt x="988" y="197" on="1"/>
        <pt x="1084" y="197" on="0"/>
      </contour>
    </TTGlyph>
    <TTGlyph name="gaffinalarabic" xMin="142" yMin="226" xMax="842" yMax="1588">
      <contour>
        <pt x="142" y="226" on="1"/>
        <pt x="142" y="1588" on="1"/>
        <pt x="842" y="1588" on="1"/>
        <pt x="842" y="226" on="1"/>
      </contour>
      <contour>
        <pt x="284" y="368" on="1"/>
        <pt x="700" y="368" on="1"/>
        <pt x="700" y="1447" on="1"/>
        <pt x="284" y="1447" on="1"/>
      </contour>
    </TTGlyph>
    <TTGlyph name="gafinitialarabic" xMin="142" yMin="226" xMax="842" yMax="1588">
      <contour>
        <pt x="142" y="226" on="1"/>
        <pt x="142" y="1588" on="1"/>
        <pt x="842" y="1588" on="1"/>
        <pt x="842" y="226" on="1"/>
      </contour>
      <contour>
        <pt x="284" y="368" on="1"/>
        <pt x="700" y="368" on="1"/>
        <pt x="700" y="1447" on="1"/>
        <pt x="284" y="1447" on="1"/>
      </contour>
    </TTGlyph>
    <TTGlyph name="gafmedialarabic" xMin="142" yMin="226" xMax="842" yMax="1588">
      <contour>
        <pt x="142" y="226" on="1"/>
        <pt x="142" y="1588" on="1"/>
        <pt x="842" y="1588" on="1"/>
        <pt x="842" y="226" on="1"/>
      </contour>
      <contour>
        <pt x="284" y="368" on="1"/>
        <pt x="700" y="368" on="1"/>
        <pt x="700" y="1447" on="1"/>
        <pt x="284" y="1447" on="1"/>
      </contour>
    </TTGlyph>
    <TTGlyph name="glyph41" xMin="142" yMin="226" xMax="842" yMax="1588">
      <contour>
        <pt x="142" y="226" on="1"/>
        <pt x="142" y="1588" on="1"/>
        <pt x="842" y="1588" on="1"/>
        <pt x="842" y="226" on="1"/>
      </contour>
      <contour>
        <pt x="284" y="368" on="1"/>
        <pt x="700" y="368" on="1"/>
        <pt x="700" y="1447" on="1"/>
        <pt x="284" y="1447" on="1"/>
      </contour>
    </TTGlyph>
    <TTGlyph name="glyph42" xMin="142" yMin="226" xMax="842" yMax="1588">
      <contour>
        <pt x="142" y="226" on="1"/>
        <pt x="142" y="1588" on="1"/>
        <pt x="842" y="1588" on="1"/>
        <pt x="842" y="226" on="1"/>
      </contour>
      <contour>
        <pt x="284" y="368" on="1"/>
        <pt x="700" y="368" on="1"/>
        <pt x="700" y="1447" on="1"/>
        <pt x="284" y="1447" on="1"/>
      </contour>
    </TTGlyph>
    <TTGlyph name="glyph43" xMin="142" yMin="226" xMax="842" yMax="1588">
      <contour>
        <pt x="142" y="226" on="1"/>
        <pt x="142" y="1588" on="1"/>
        <pt x="842" y="1588" on="1"/>
        <pt x="842" y="226" on="1"/>
      </contour>
      <contour>
        <pt x="284" y="368" on="1"/>
        <pt x="700" y="368" on="1"/>
        <pt x="700" y="1447" on="1"/>
        <pt x="284" y="1447" on="1"/>
      </contour>
    </TTGlyph>
    <TTGlyph name="glyph44" xMin="142" yMin="226" xMax="842" yMax="1588">
      <contour>
        <pt x="142" y="226" on="1"/>
        <pt x="142" y="1588" on="1"/>
        <pt x="842" y="1588" on="1"/>
        <pt x="842" y="226" on="1"/>
      </contour>
      <contour>
        <pt x="284" y="368" on="1"/>
        <pt x="700" y="368" on="1"/>
        <pt x="700" y="1447" on="1"/>
        <pt x="284" y="1447" on="1"/>
      </contour>
    </TTGlyph>
    <TTGlyph name="glyph45" xMin="142" yMin="226" xMax="842" yMax="1588">
      <contour>
        <pt x="142" y="226" on="1"/>
        <pt x="142" y="1588" on="1"/>
        <pt x="842" y="1588" on="1"/>
        <pt x="842" y="226" on="1"/>
      </contour>
      <contour>
        <pt x="284" y="368" on="1"/>
        <pt x="700" y="368" on="1"/>
        <pt x="700" y="1447" on="1"/>
        <pt x="284" y="1447" on="1"/>
      </contour>
    </TTGlyph>
    <TTGlyph name="glyph46" xMin="142" yMin="226" xMax="842" yMax="1588">
      <contour>
        <pt x="142" y="226" on="1"/>
        <pt x="142" y="1588" on="1"/>
        <pt x="842" y="1588" on="1"/>
        <pt x="842" y="226" on="1"/>
      </contour>
      <contour>
        <pt x="284" y="368" on="1"/>
        <pt x="700" y="368" on="1"/>
        <pt x="700" y="1447" on="1"/>
        <pt x="284" y="1447" on="1"/>
      </contour>
    </TTGlyph>
    <TTGlyph name="glyph47" xMin="142" yMin="226" xMax="842" yMax="1588">
      <contour>
        <pt x="142" y="226" on="1"/>
        <pt x="142" y="1588" on="1"/>
        <pt x="842" y="1588" on="1"/>
        <pt x="842" y="226" on="1"/>
      </contour>
      <contour>
        <pt x="284" y="368" on="1"/>
        <pt x="700" y="368" on="1"/>
        <pt x="700" y="1447" on="1"/>
        <pt x="284" y="1447" on="1"/>
      </contour>
    </TTGlyph>
    <TTGlyph name="glyph48" xMin="142" yMin="226" xMax="842" yMax="1588">
      <contour>
        <pt x="142" y="226" on="1"/>
        <pt x="142" y="1588" on="1"/>
        <pt x="842" y="1588" on="1"/>
        <pt x="842" y="226" on="1"/>
      </contour>
      <contour>
        <pt x="284" y="368" on="1"/>
        <pt x="700" y="368" on="1"/>
        <pt x="700" y="1447" on="1"/>
        <pt x="284" y="1447" on="1"/>
      </contour>
    </TTGlyph>
    <TTGlyph name="glyph50" xMin="142" yMin="226" xMax="842" yMax="1588">
      <contour>
        <pt x="142" y="226" on="1"/>
        <pt x="142" y="1588" on="1"/>
        <pt x="842" y="1588" on="1"/>
        <pt x="842" y="226" on="1"/>
      </contour>
      <contour>
        <pt x="284" y="368" on="1"/>
        <pt x="700" y="368" on="1"/>
        <pt x="700" y="1447" on="1"/>
        <pt x="284" y="1447" on="1"/>
      </contour>
    </TTGlyph>
    <TTGlyph name="glyph51" xMin="142" yMin="226" xMax="842" yMax="1588">
      <contour>
        <pt x="142" y="226" on="1"/>
        <pt x="142" y="1588" on="1"/>
        <pt x="842" y="1588" on="1"/>
        <pt x="842" y="226" on="1"/>
      </contour>
      <contour>
        <pt x="284" y="368" on="1"/>
        <pt x="700" y="368" on="1"/>
        <pt x="700" y="1447" on="1"/>
        <pt x="284" y="1447" on="1"/>
      </contour>
    </TTGlyph>
    <TTGlyph name="greater" xMin="142" yMin="226" xMax="842" yMax="1588">
      <contour>
        <pt x="142" y="226" on="1"/>
        <pt x="142" y="1588" on="1"/>
        <pt x="842" y="1588" on="1"/>
        <pt x="842" y="226" on="1"/>
      </contour>
      <contour>
        <pt x="284" y="368" on="1"/>
        <pt x="700" y="368" on="1"/>
        <pt x="700" y="1447" on="1"/>
        <pt x="284" y="1447" on="1"/>
      </contour>
    </TTGlyph>
    <TTGlyph name="hahhamzabovefinal" xMin="142" yMin="226" xMax="842" yMax="1588">
      <contour>
        <pt x="142" y="226" on="1"/>
        <pt x="142" y="1588" on="1"/>
        <pt x="842" y="1588" on="1"/>
        <pt x="842" y="226" on="1"/>
      </contour>
      <contour>
        <pt x="284" y="368" on="1"/>
        <pt x="700" y="368" on="1"/>
        <pt x="700" y="1447" on="1"/>
        <pt x="284" y="1447" on="1"/>
      </contour>
    </TTGlyph>
    <TTGlyph name="hahhamzaboveinitial" xMin="142" yMin="226" xMax="842" yMax="1588">
      <contour>
        <pt x="142" y="226" on="1"/>
        <pt x="142" y="1588" on="1"/>
        <pt x="842" y="1588" on="1"/>
        <pt x="842" y="226" on="1"/>
      </contour>
      <contour>
        <pt x="284" y="368" on="1"/>
        <pt x="700" y="368" on="1"/>
        <pt x="700" y="1447" on="1"/>
        <pt x="284" y="1447" on="1"/>
      </contour>
    </TTGlyph>
    <TTGlyph name="hahhamzabovemedial" xMin="142" yMin="226" xMax="842" yMax="1588">
      <contour>
        <pt x="142" y="226" on="1"/>
        <pt x="142" y="1588" on="1"/>
        <pt x="842" y="1588" on="1"/>
        <pt x="842" y="226" on="1"/>
      </contour>
      <contour>
        <pt x="284" y="368" on="1"/>
        <pt x="700" y="368" on="1"/>
        <pt x="700" y="1447" on="1"/>
        <pt x="284" y="1447" on="1"/>
      </contour>
    </TTGlyph>
    <TTGlyph name="hahthreedotsabovefinal" xMin="142" yMin="226" xMax="842" yMax="1588">
      <contour>
        <pt x="142" y="226" on="1"/>
        <pt x="142" y="1588" on="1"/>
        <pt x="842" y="1588" on="1"/>
        <pt x="842" y="226" on="1"/>
      </contour>
      <contour>
        <pt x="284" y="368" on="1"/>
        <pt x="700" y="368" on="1"/>
        <pt x="700" y="1447" on="1"/>
        <pt x="284" y="1447" on="1"/>
      </contour>
    </TTGlyph>
    <TTGlyph name="hahthreedotsaboveinitial" xMin="142" yMin="226" xMax="842" yMax="1588">
      <contour>
        <pt x="142" y="226" on="1"/>
        <pt x="142" y="1588" on="1"/>
        <pt x="842" y="1588" on="1"/>
        <pt x="842" y="226" on="1"/>
      </contour>
      <contour>
        <pt x="284" y="368" on="1"/>
        <pt x="700" y="368" on="1"/>
        <pt x="700" y="1447" on="1"/>
        <pt x="284" y="1447" on="1"/>
      </contour>
    </TTGlyph>
    <TTGlyph name="hahthreedotsabovemedial" xMin="142" yMin="226" xMax="842" yMax="1588">
      <contour>
        <pt x="142" y="226" on="1"/>
        <pt x="142" y="1588" on="1"/>
        <pt x="842" y="1588" on="1"/>
        <pt x="842" y="226" on="1"/>
      </contour>
      <contour>
        <pt x="284" y="368" on="1"/>
        <pt x="700" y="368" on="1"/>
        <pt x="700" y="1447" on="1"/>
        <pt x="284" y="1447" on="1"/>
      </contour>
    </TTGlyph>
    <TTGlyph name="hehdoachashmeefinalarabic" xMin="142" yMin="226" xMax="842" yMax="1588">
      <contour>
        <pt x="142" y="226" on="1"/>
        <pt x="142" y="1588" on="1"/>
        <pt x="842" y="1588" on="1"/>
        <pt x="842" y="226" on="1"/>
      </contour>
      <contour>
        <pt x="284" y="368" on="1"/>
        <pt x="700" y="368" on="1"/>
        <pt x="700" y="1447" on="1"/>
        <pt x="284" y="1447" on="1"/>
      </contour>
    </TTGlyph>
    <TTGlyph name="hehdoachashmeeinitialarabic" xMin="142" yMin="226" xMax="842" yMax="1588">
      <contour>
        <pt x="142" y="226" on="1"/>
        <pt x="142" y="1588" on="1"/>
        <pt x="842" y="1588" on="1"/>
        <pt x="842" y="226" on="1"/>
      </contour>
      <contour>
        <pt x="284" y="368" on="1"/>
        <pt x="700" y="368" on="1"/>
        <pt x="700" y="1447" on="1"/>
        <pt x="284" y="1447" on="1"/>
      </contour>
    </TTGlyph>
    <TTGlyph name="hehdoachashmeemedialarabic" xMin="142" yMin="226" xMax="842" yMax="1588">
      <contour>
        <pt x="142" y="226" on="1"/>
        <pt x="142" y="1588" on="1"/>
        <pt x="842" y="1588" on="1"/>
        <pt x="842" y="226" on="1"/>
      </contour>
      <contour>
        <pt x="284" y="368" on="1"/>
        <pt x="700" y="368" on="1"/>
        <pt x="700" y="1447" on="1"/>
        <pt x="284" y="1447" on="1"/>
      </contour>
    </TTGlyph>
    <TTGlyph name="hehfinalaltonearabic" xMin="142" yMin="226" xMax="842" yMax="1588">
      <contour>
        <pt x="142" y="226" on="1"/>
        <pt x="142" y="1588" on="1"/>
        <pt x="842" y="1588" on="1"/>
        <pt x="842" y="226" on="1"/>
      </contour>
      <contour>
        <pt x="284" y="368" on="1"/>
        <pt x="700" y="368" on="1"/>
        <pt x="700" y="1447" on="1"/>
        <pt x="284" y="1447" on="1"/>
      </contour>
    </TTGlyph>
    <TTGlyph name="hehhamzaabovefinalarabic" xMin="142" yMin="226" xMax="842" yMax="1588">
      <contour>
        <pt x="142" y="226" on="1"/>
        <pt x="142" y="1588" on="1"/>
        <pt x="842" y="1588" on="1"/>
        <pt x="842" y="226" on="1"/>
      </contour>
      <contour>
        <pt x="284" y="368" on="1"/>
        <pt x="700" y="368" on="1"/>
        <pt x="700" y="1447" on="1"/>
        <pt x="284" y="1447" on="1"/>
      </contour>
    </TTGlyph>
    <TTGlyph name="hehinitialaltonearabic" xMin="142" yMin="226" xMax="842" yMax="1588">
      <contour>
        <pt x="142" y="226" on="1"/>
        <pt x="142" y="1588" on="1"/>
        <pt x="842" y="1588" on="1"/>
        <pt x="842" y="226" on="1"/>
      </contour>
      <contour>
        <pt x="284" y="368" on="1"/>
        <pt x="700" y="368" on="1"/>
        <pt x="700" y="1447" on="1"/>
        <pt x="284" y="1447" on="1"/>
      </contour>
    </TTGlyph>
    <TTGlyph name="hehmedialaltonearabic" xMin="142" yMin="226" xMax="842" yMax="1588">
      <contour>
        <pt x="142" y="226" on="1"/>
        <pt x="142" y="1588" on="1"/>
        <pt x="842" y="1588" on="1"/>
        <pt x="842" y="226" on="1"/>
      </contour>
      <contour>
        <pt x="284" y="368" on="1"/>
        <pt x="700" y="368" on="1"/>
        <pt x="700" y="1447" on="1"/>
        <pt x="284" y="1447" on="1"/>
      </contour>
    </TTGlyph>
    <TTGlyph name="hyphen" xMin="128" yMin="-540" xMax="4151" yMax="1650">
      <contour>
        <pt x="3619" y="1613" on="1"/>
        <pt x="3619" y="1575" on="0"/>
        <pt x="3507" y="1514" on="1"/>
        <pt x="3444" y="1484" on="0"/>
        <pt x="3381" y="1452" on="1"/>
        <pt x="3286" y="1398" on="0"/>
        <pt x="3089" y="1303" on="1"/>
        <pt x="3089" y="1307" on="0"/>
        <pt x="3077" y="1323" on="0"/>
        <pt x="3077" y="1338" on="1"/>
        <pt x="3077" y="1386" on="0"/>
        <pt x="3121" y="1411" on="1"/>
        <pt x="3550" y="1650" on="0"/>
        <pt x="3574" y="1649" on="1"/>
        <pt x="3619" y="1649" on="1"/>
      </contour>
      <contour>
        <pt x="3004" y="1490" on="1"/>
        <pt x="3005" y="1461" on="0"/>
        <pt x="2893" y="1398" on="1"/>
        <pt x="2792" y="1341" on="0"/>
        <pt x="2736" y="1325" on="1"/>
        <pt x="2726" y="1323" on="0"/>
        <pt x="2682" y="1323" on="1"/>
        <pt x="2656" y="1323" on="0"/>
        <pt x="2586" y="1346" on="1"/>
        <pt x="2596" y="1378" on="0"/>
        <pt x="2679" y="1401" on="1"/>
        <pt x="2767" y="1425" on="0"/>
        <pt x="2790" y="1461" on="1"/>
        <pt x="2784" y="1487" on="0"/>
        <pt x="2744" y="1487" on="1"/>
        <pt x="2740" y="1487" on="0"/>
        <pt x="2606" y="1440" on="1"/>
        <pt x="2586" y="1455" on="1"/>
        <pt x="2604" y="1511" on="0"/>
        <pt x="2726" y="1599" on="0"/>
        <pt x="2780" y="1599" on="1"/>
        <pt x="2790" y="1599" on="0"/>
        <pt x="2875" y="1571" on="1"/>
        <pt x="2965" y="1542" on="0"/>
        <pt x="3004" y="1536" on="1"/>
      </contour>
      <contour>
        <pt x="3538" y="714" on="1"/>
        <pt x="3489" y="616" on="0"/>
        <pt x="3435" y="616" on="1"/>
        <pt x="3385" y="616" on="0"/>
        <pt x="3333" y="693" on="1"/>
        <pt x="3342" y="717" on="0"/>
        <pt x="3367" y="758" on="1"/>
        <pt x="3400" y="791" on="0"/>
        <pt x="3435" y="791" on="1"/>
        <pt x="3461" y="791" on="0"/>
      </contour>
      <contour>
        <pt x="4151" y="-19" on="1"/>
        <pt x="4145" y="-43" on="0"/>
        <pt x="4136" y="-77" on="1"/>
        <pt x="3979" y="-186" on="0"/>
        <pt x="3633" y="-284" on="1"/>
        <pt x="3619" y="-270" on="0"/>
        <pt x="3619" y="-249" on="1"/>
        <pt x="3619" y="-207" on="0"/>
        <pt x="3664" y="-186" on="1"/>
        <pt x="3763" y="-139" on="0"/>
        <pt x="3914" y="-80" on="1"/>
        <pt x="4068" y="-18" on="0"/>
        <pt x="4086" y="-19" on="1"/>
      </contour>
      <contour>
        <pt x="2893" y="795" on="1"/>
        <pt x="2893" y="767" on="0"/>
        <pt x="2828" y="698" on="0"/>
        <pt x="2811" y="698" on="1"/>
        <pt x="2803" y="698" on="0"/>
        <pt x="2719" y="750" on="1"/>
        <pt x="2717" y="776" on="0"/>
        <pt x="2746" y="827" on="1"/>
        <pt x="2778" y="882" on="0"/>
        <pt x="2805" y="882" on="1"/>
        <pt x="2825" y="882" on="0"/>
        <pt x="2893" y="814" on="0"/>
      </contour>
      <contour>
        <pt x="3977" y="253" on="1"/>
        <pt x="3977" y="162" on="0"/>
        <pt x="3971" y="142" on="1"/>
        <pt x="3962" y="116" on="0"/>
        <pt x="3901" y="34" on="1"/>
        <pt x="3869" y="-8" on="0"/>
        <pt x="3773" y="-8" on="1"/>
        <pt x="3704" y="-8" on="0"/>
        <pt x="3540" y="74" on="0"/>
        <pt x="3522" y="74" on="1"/>
        <pt x="3504" y="74" on="0"/>
        <pt x="3495" y="65" on="1"/>
        <pt x="3466" y="36" on="0"/>
        <pt x="3401" y="-5" on="1"/>
        <pt x="3278" y="-49" on="0"/>
        <pt x="3143" y="-49" on="1"/>
        <pt x="3130" y="-49" on="0"/>
        <pt x="2854" y="22" on="0"/>
        <pt x="2841" y="22" on="1"/>
        <pt x="2828" y="22" on="0"/>
        <pt x="2593" y="-28" on="0"/>
        <pt x="2580" y="-28" on="1"/>
        <pt x="2524" y="-28" on="0"/>
        <pt x="2455" y="-5" on="1"/>
        <pt x="2450" y="-4" on="0"/>
        <pt x="2422" y="20" on="1"/>
        <pt x="2396" y="43" on="0"/>
        <pt x="2381" y="43" on="1"/>
        <pt x="2374" y="43" on="0"/>
        <pt x="2333" y="10" on="1"/>
        <pt x="2287" y="-27" on="0"/>
        <pt x="2254" y="-36" on="1"/>
        <pt x="2244" y="-39" on="0"/>
        <pt x="2191" y="-39" on="1"/>
        <pt x="2178" y="-39" on="0"/>
        <pt x="2086" y="-18" on="0"/>
        <pt x="2074" y="-18" on="1"/>
        <pt x="2060" y="-18" on="0"/>
        <pt x="1958" y="-39" on="0"/>
        <pt x="1946" y="-39" on="1"/>
        <pt x="1934" y="-39" on="0"/>
        <pt x="1810" y="-18" on="0"/>
        <pt x="1797" y="-18" on="1"/>
        <pt x="1784" y="-18" on="0"/>
        <pt x="1508" y="-69" on="0"/>
        <pt x="1495" y="-69" on="1"/>
        <pt x="1465" y="-69" on="0"/>
        <pt x="1360" y="-36" on="1"/>
        <pt x="1263" y="-4" on="0"/>
        <pt x="1155" y="156" on="1"/>
        <pt x="1121" y="132" on="0"/>
        <pt x="1058" y="88" on="1"/>
        <pt x="1008" y="53" on="0"/>
        <pt x="911" y="53" on="1"/>
        <pt x="848" y="53" on="0"/>
        <pt x="787" y="71" on="1"/>
        <pt x="701" y="97" on="0"/>
        <pt x="701" y="145" on="1"/>
        <pt x="701" y="158" on="0"/>
        <pt x="716" y="176" on="1"/>
        <pt x="737" y="202" on="0"/>
        <pt x="739" y="204" on="1"/>
        <pt x="793" y="300" on="0"/>
        <pt x="911" y="374" on="1"/>
        <pt x="1039" y="454" on="0"/>
        <pt x="1073" y="501" on="1"/>
        <pt x="1074" y="525" on="0"/>
        <pt x="1071" y="567" on="1"/>
        <pt x="1067" y="615" on="0"/>
        <pt x="1067" y="632" on="1"/>
        <pt x="1067" y="702" on="0"/>
        <pt x="1105" y="739" on="1"/>
        <pt x="1113" y="733" on="0"/>
        <pt x="1127" y="723" on="1"/>
        <pt x="1164" y="556" on="0"/>
        <pt x="1246" y="254" on="1"/>
        <pt x="1268" y="191" on="0"/>
        <pt x="1333" y="157" on="1"/>
        <pt x="1379" y="135" on="0"/>
        <pt x="1460" y="113" on="1"/>
        <pt x="1533" y="94" on="0"/>
        <pt x="1557" y="94" on="1"/>
        <pt x="1703" y="94" on="0"/>
        <pt x="1779" y="137" on="1"/>
        <pt x="1793" y="145" on="0"/>
        <pt x="1818" y="183" on="1"/>
        <pt x="1856" y="240" on="0"/>
        <pt x="1862" y="247" on="1"/>
        <pt x="1893" y="236" on="0"/>
        <pt x="1893" y="206" on="1"/>
        <pt x="1893" y="193" on="0"/>
        <pt x="1879" y="140" on="0"/>
        <pt x="1879" y="130" on="1"/>
        <pt x="1879" y="97" on="0"/>
        <pt x="1902" y="93" on="1"/>
        <pt x="1895" y="94" on="0"/>
        <pt x="1946" y="94" on="1"/>
        <pt x="2016" y="94" on="0"/>
        <pt x="2087" y="127" on="1"/>
        <pt x="2098" y="132" on="0"/>
        <pt x="2174" y="242" on="0"/>
        <pt x="2201" y="258" on="1"/>
        <pt x="2232" y="242" on="0"/>
        <pt x="2232" y="215" on="1"/>
        <pt x="2232" y="201" on="0"/>
        <pt x="2220" y="173" on="1"/>
        <pt x="2208" y="143" on="0"/>
        <pt x="2206" y="132" on="1"/>
        <pt x="2224" y="115" on="0"/>
        <pt x="2242" y="115" on="1"/>
        <pt x="2322" y="115" on="0"/>
        <pt x="2364" y="202" on="1"/>
        <pt x="2409" y="292" on="0"/>
        <pt x="2449" y="298" on="1"/>
        <pt x="2456" y="289" on="0"/>
        <pt x="2456" y="270" on="1"/>
        <pt x="2456" y="250" on="0"/>
        <pt x="2445" y="211" on="1"/>
        <pt x="2432" y="167" on="0"/>
        <pt x="2432" y="162" on="1"/>
        <pt x="2459" y="135" on="0"/>
        <pt x="2529" y="135" on="1"/>
        <pt x="2542" y="135" on="0"/>
        <pt x="2598" y="125" on="0"/>
        <pt x="2611" y="125" on="1"/>
        <pt x="2699" y="125" on="0"/>
        <pt x="2725" y="152" on="1"/>
        <pt x="2731" y="273" on="0"/>
        <pt x="2763" y="337" on="1"/>
        <pt x="2787" y="387" on="0"/>
        <pt x="2859" y="463" on="1"/>
        <pt x="2945" y="555" on="0"/>
        <pt x="2995" y="555" on="1"/>
        <pt x="3054" y="555" on="0"/>
        <pt x="3095" y="473" on="1"/>
        <pt x="3128" y="408" on="0"/>
        <pt x="3128" y="356" on="1"/>
        <pt x="3128" y="224" on="0"/>
        <pt x="3068" y="179" on="1"/>
        <pt x="3056" y="129" on="0"/>
        <pt x="3056" y="142" on="1"/>
        <pt x="3079" y="115" on="0"/>
        <pt x="3180" y="115" on="1"/>
        <pt x="3374" y="115" on="0"/>
        <pt x="3437" y="167" on="1"/>
        <pt x="3533" y="247" on="0"/>
        <pt x="3542" y="247" on="1"/>
        <pt x="3536" y="247" on="0"/>
        <pt x="3744" y="156" on="0"/>
        <pt x="3788" y="156" on="1"/>
        <pt x="3823" y="156" on="0"/>
        <pt x="3866" y="182" on="1"/>
        <pt x="3855" y="453" on="0"/>
        <pt x="3769" y="866" on="1"/>
        <pt x="3766" y="881" on="0"/>
        <pt x="3737" y="928" on="1"/>
        <pt x="3711" y="971" on="0"/>
        <pt x="3711" y="990" on="1"/>
        <pt x="3711" y="1050" on="0"/>
        <pt x="3787" y="1205" on="1"/>
        <pt x="3799" y="1208" on="0"/>
        <pt x="3820" y="1220" on="1"/>
        <pt x="3828" y="1173" on="0"/>
        <pt x="3847" y="1083" on="1"/>
        <pt x="3851" y="1068" on="0"/>
        <pt x="3882" y="1046" on="1"/>
        <pt x="3926" y="1014" on="0"/>
        <pt x="3927" y="1013" on="1"/>
        <pt x="3922" y="990" on="0"/>
        <pt x="3897" y="927" on="1"/>
        <pt x="3875" y="870" on="0"/>
        <pt x="3875" y="857" on="1"/>
        <pt x="3875" y="844" on="0"/>
        <pt x="3977" y="265" on="0"/>
      </contour>
      <contour>
        <pt x="2400" y="-205" on="1"/>
        <pt x="2391" y="-235" on="0"/>
        <pt x="2364" y="-273" on="1"/>
        <pt x="2278" y="-321" on="0"/>
        <pt x="2133" y="-384" on="1"/>
        <pt x="1918" y="-478" on="0"/>
        <pt x="1895" y="-489" on="1"/>
        <pt x="1851" y="-489" on="1"/>
        <pt x="1844" y="-476" on="0"/>
        <pt x="1828" y="-454" on="1"/>
        <pt x="1842" y="-426" on="0"/>
        <pt x="1871" y="-391" on="1"/>
        <pt x="1973" y="-340" on="0"/>
        <pt x="2344" y="-192" on="1"/>
      </contour>
      <contour>
        <pt x="1417" y="-194" on="1"/>
        <pt x="1413" y="-225" on="0"/>
        <pt x="1392" y="-272" on="1"/>
        <pt x="1344" y="-321" on="0"/>
        <pt x="1292" y="-343" on="1"/>
        <pt x="1159" y="-398" on="0"/>
        <pt x="872" y="-540" on="1"/>
        <pt x="837" y="-540" on="1"/>
        <pt x="824" y="-526" on="0"/>
        <pt x="824" y="-510" on="1"/>
        <pt x="824" y="-456" on="0"/>
        <pt x="868" y="-432" on="1"/>
        <pt x="898" y="-416" on="0"/>
        <pt x="1227" y="-272" on="1"/>
        <pt x="1273" y="-242" on="0"/>
        <pt x="1361" y="-194" on="1"/>
      </contour>
      <contour>
        <pt x="660" y="33" on="1"/>
        <pt x="643" y="20" on="0"/>
        <pt x="605" y="5" on="1"/>
        <pt x="376" y="-28" on="0"/>
        <pt x="302" y="-28" on="1"/>
        <pt x="254" y="-28" on="0"/>
        <pt x="200" y="-11" on="1"/>
        <pt x="128" y="11" on="0"/>
        <pt x="128" y="48" on="1"/>
        <pt x="128" y="67" on="0"/>
        <pt x="151" y="103" on="1"/>
        <pt x="175" y="143" on="0"/>
        <pt x="202" y="161" on="1"/>
        <pt x="251" y="175" on="0"/>
        <pt x="345" y="229" on="1"/>
        <pt x="367" y="252" on="0"/>
        <pt x="389" y="276" on="1"/>
        <pt x="420" y="309" on="0"/>
        <pt x="435" y="309" on="1"/>
        <pt x="487" y="309" on="0"/>
        <pt x="487" y="217" on="1"/>
        <pt x="487" y="179" on="0"/>
        <pt x="474" y="156" on="1"/>
        <pt x="444" y="156" on="0"/>
        <pt x="419" y="206" on="1"/>
        <pt x="388" y="187" on="0"/>
        <pt x="261" y="107" on="0"/>
        <pt x="230" y="87" on="1"/>
        <pt x="230" y="71" on="0"/>
        <pt x="238" y="66" on="1"/>
        <pt x="328" y="43" on="0"/>
        <pt x="399" y="43" on="1"/>
        <pt x="608" y="43" on="0"/>
      </contour>
      <contour>
        <pt x="3026" y="288" on="1"/>
        <pt x="3026" y="301" on="0"/>
        <pt x="3003" y="342" on="1"/>
        <pt x="2977" y="391" on="0"/>
        <pt x="2954" y="391" on="1"/>
        <pt x="2929" y="391" on="0"/>
        <pt x="2821" y="283" on="0"/>
        <pt x="2821" y="253" on="1"/>
        <pt x="2821" y="236" on="0"/>
        <pt x="2876" y="186" on="0"/>
        <pt x="2893" y="186" on="1"/>
        <pt x="2907" y="186" on="0"/>
        <pt x="2962" y="220" on="1"/>
        <pt x="3026" y="259" on="0"/>
      </contour>
      <contour>
        <pt x="1132" y="256" on="1"/>
        <pt x="1109" y="337" on="0"/>
        <pt x="1086" y="370" on="1"/>
        <pt x="1018" y="333" on="0"/>
        <pt x="949" y="297" on="1"/>
        <pt x="871" y="252" on="0"/>
        <pt x="866" y="220" on="1"/>
        <pt x="957" y="197" on="0"/>
        <pt x="988" y="197" on="1"/>
        <pt x="1084" y="197" on="0"/>
      </contour>
    </TTGlyph>
    <TTGlyph name="irghizufinal" xMin="142" yMin="226" xMax="842" yMax="1588">
      <contour>
        <pt x="142" y="226" on="1"/>
        <pt x="142" y="1588" on="1"/>
        <pt x="842" y="1588" on="1"/>
        <pt x="842" y="226" on="1"/>
      </contour>
      <contour>
        <pt x="284" y="368" on="1"/>
        <pt x="700" y="368" on="1"/>
        <pt x="700" y="1447" on="1"/>
        <pt x="284" y="1447" on="1"/>
      </contour>
    </TTGlyph>
    <TTGlyph name="jehfinalarabic" xMin="142" yMin="226" xMax="842" yMax="1588">
      <contour>
        <pt x="142" y="226" on="1"/>
        <pt x="142" y="1588" on="1"/>
        <pt x="842" y="1588" on="1"/>
        <pt x="842" y="226" on="1"/>
      </contour>
      <contour>
        <pt x="284" y="368" on="1"/>
        <pt x="700" y="368" on="1"/>
        <pt x="700" y="1447" on="1"/>
        <pt x="284" y="1447" on="1"/>
      </contour>
    </TTGlyph>
    <TTGlyph name="kafringfinal" xMin="142" yMin="226" xMax="842" yMax="1588">
      <contour>
        <pt x="142" y="226" on="1"/>
        <pt x="142" y="1588" on="1"/>
        <pt x="842" y="1588" on="1"/>
        <pt x="842" y="226" on="1"/>
      </contour>
      <contour>
        <pt x="284" y="368" on="1"/>
        <pt x="700" y="368" on="1"/>
        <pt x="700" y="1447" on="1"/>
        <pt x="284" y="1447" on="1"/>
      </contour>
    </TTGlyph>
    <TTGlyph name="kafringinitial" xMin="142" yMin="226" xMax="842" yMax="1588">
      <contour>
        <pt x="142" y="226" on="1"/>
        <pt x="142" y="1588" on="1"/>
        <pt x="842" y="1588" on="1"/>
        <pt x="842" y="226" on="1"/>
      </contour>
      <contour>
        <pt x="284" y="368" on="1"/>
        <pt x="700" y="368" on="1"/>
        <pt x="700" y="1447" on="1"/>
        <pt x="284" y="1447" on="1"/>
      </contour>
    </TTGlyph>
    <TTGlyph name="kafringmedial" xMin="142" yMin="226" xMax="842" yMax="1588">
      <contour>
        <pt x="142" y="226" on="1"/>
        <pt x="142" y="1588" on="1"/>
        <pt x="842" y="1588" on="1"/>
        <pt x="842" y="226" on="1"/>
      </contour>
      <contour>
        <pt x="284" y="368" on="1"/>
        <pt x="700" y="368" on="1"/>
        <pt x="700" y="1447" on="1"/>
        <pt x="284" y="1447" on="1"/>
      </contour>
    </TTGlyph>
    <TTGlyph name="kashidaautoarabic" xMin="142" yMin="226" xMax="842" yMax="1588">
      <contour>
        <pt x="142" y="226" on="1"/>
        <pt x="142" y="1588" on="1"/>
        <pt x="842" y="1588" on="1"/>
        <pt x="842" y="226" on="1"/>
      </contour>
      <contour>
        <pt x="284" y="368" on="1"/>
        <pt x="700" y="368" on="1"/>
        <pt x="700" y="1447" on="1"/>
        <pt x="284" y="1447" on="1"/>
      </contour>
    </TTGlyph>
    <TTGlyph name="kashidaautonosidebearingarabic" xMin="142" yMin="226" xMax="842" yMax="1588">
      <contour>
        <pt x="142" y="226" on="1"/>
        <pt x="142" y="1588" on="1"/>
        <pt x="842" y="1588" on="1"/>
        <pt x="842" y="226" on="1"/>
      </contour>
      <contour>
        <pt x="284" y="368" on="1"/>
        <pt x="700" y="368" on="1"/>
        <pt x="700" y="1447" on="1"/>
        <pt x="284" y="1447" on="1"/>
      </contour>
    </TTGlyph>
    <TTGlyph name="kehehfinalarabic" xMin="142" yMin="226" xMax="842" yMax="1588">
      <contour>
        <pt x="142" y="226" on="1"/>
        <pt x="142" y="1588" on="1"/>
        <pt x="842" y="1588" on="1"/>
        <pt x="842" y="226" on="1"/>
      </contour>
      <contour>
        <pt x="284" y="368" on="1"/>
        <pt x="700" y="368" on="1"/>
        <pt x="700" y="1447" on="1"/>
        <pt x="284" y="1447" on="1"/>
      </contour>
    </TTGlyph>
    <TTGlyph name="kehehinitialarabic" xMin="142" yMin="226" xMax="842" yMax="1588">
      <contour>
        <pt x="142" y="226" on="1"/>
        <pt x="142" y="1588" on="1"/>
        <pt x="842" y="1588" on="1"/>
        <pt x="842" y="226" on="1"/>
      </contour>
      <contour>
        <pt x="284" y="368" on="1"/>
        <pt x="700" y="368" on="1"/>
        <pt x="700" y="1447" on="1"/>
        <pt x="284" y="1447" on="1"/>
      </contour>
    </TTGlyph>
    <TTGlyph name="kehehmedialarabic" xMin="142" yMin="226" xMax="842" yMax="1588">
      <contour>
        <pt x="142" y="226" on="1"/>
        <pt x="142" y="1588" on="1"/>
        <pt x="842" y="1588" on="1"/>
        <pt x="842" y="226" on="1"/>
      </contour>
      <contour>
        <pt x="284" y="368" on="1"/>
        <pt x="700" y="368" on="1"/>
        <pt x="700" y="1447" on="1"/>
        <pt x="284" y="1447" on="1"/>
      </contour>
    </TTGlyph>
    <TTGlyph name="kirghizyifinal" xMin="142" yMin="226" xMax="842" yMax="1588">
      <contour>
        <pt x="142" y="226" on="1"/>
        <pt x="142" y="1588" on="1"/>
        <pt x="842" y="1588" on="1"/>
        <pt x="842" y="226" on="1"/>
      </contour>
      <contour>
        <pt x="284" y="368" on="1"/>
        <pt x="700" y="368" on="1"/>
        <pt x="700" y="1447" on="1"/>
        <pt x="284" y="1447" on="1"/>
      </contour>
    </TTGlyph>
    <TTGlyph name="lammeemjeeminitialarabic" xMin="142" yMin="226" xMax="842" yMax="1588">
      <contour>
        <pt x="142" y="226" on="1"/>
        <pt x="142" y="1588" on="1"/>
        <pt x="842" y="1588" on="1"/>
        <pt x="842" y="226" on="1"/>
      </contour>
      <contour>
        <pt x="284" y="368" on="1"/>
        <pt x="700" y="368" on="1"/>
        <pt x="700" y="1447" on="1"/>
        <pt x="284" y="1447" on="1"/>
      </contour>
    </TTGlyph>
    <TTGlyph name="lammeemkhahinitialarabic" xMin="142" yMin="226" xMax="842" yMax="1588">
      <contour>
        <pt x="142" y="226" on="1"/>
        <pt x="142" y="1588" on="1"/>
        <pt x="842" y="1588" on="1"/>
        <pt x="842" y="226" on="1"/>
      </contour>
      <contour>
        <pt x="284" y="368" on="1"/>
        <pt x="700" y="368" on="1"/>
        <pt x="700" y="1447" on="1"/>
        <pt x="284" y="1447" on="1"/>
      </contour>
    </TTGlyph>
    <TTGlyph name="lamthreedotsabovefinal" xMin="142" yMin="226" xMax="842" yMax="1588">
      <contour>
        <pt x="142" y="226" on="1"/>
        <pt x="142" y="1588" on="1"/>
        <pt x="842" y="1588" on="1"/>
        <pt x="842" y="226" on="1"/>
      </contour>
      <contour>
        <pt x="284" y="368" on="1"/>
        <pt x="700" y="368" on="1"/>
        <pt x="700" y="1447" on="1"/>
        <pt x="284" y="1447" on="1"/>
      </contour>
    </TTGlyph>
    <TTGlyph name="lamthreedotsaboveinitial" xMin="142" yMin="226" xMax="842" yMax="1588">
      <contour>
        <pt x="142" y="226" on="1"/>
        <pt x="142" y="1588" on="1"/>
        <pt x="842" y="1588" on="1"/>
        <pt x="842" y="226" on="1"/>
      </contour>
      <contour>
        <pt x="284" y="368" on="1"/>
        <pt x="700" y="368" on="1"/>
        <pt x="700" y="1447" on="1"/>
        <pt x="284" y="1447" on="1"/>
      </contour>
    </TTGlyph>
    <TTGlyph name="lamthreedotsabovemedial" xMin="142" yMin="226" xMax="842" yMax="1588">
      <contour>
        <pt x="142" y="226" on="1"/>
        <pt x="142" y="1588" on="1"/>
        <pt x="842" y="1588" on="1"/>
        <pt x="842" y="226" on="1"/>
      </contour>
      <contour>
        <pt x="284" y="368" on="1"/>
        <pt x="700" y="368" on="1"/>
        <pt x="700" y="1447" on="1"/>
        <pt x="284" y="1447" on="1"/>
      </contour>
    </TTGlyph>
    <TTGlyph name="less" xMin="142" yMin="226" xMax="842" yMax="1588">
      <contour>
        <pt x="142" y="226" on="1"/>
        <pt x="142" y="1588" on="1"/>
        <pt x="842" y="1588" on="1"/>
        <pt x="842" y="226" on="1"/>
      </contour>
      <contour>
        <pt x="284" y="368" on="1"/>
        <pt x="700" y="368" on="1"/>
        <pt x="700" y="1447" on="1"/>
        <pt x="284" y="1447" on="1"/>
      </contour>
    </TTGlyph>
    <TTGlyph name="meemmeemisolatedarabic" xMin="142" yMin="226" xMax="842" yMax="1588">
      <contour>
        <pt x="142" y="226" on="1"/>
        <pt x="142" y="1588" on="1"/>
        <pt x="842" y="1588" on="1"/>
        <pt x="842" y="226" on="1"/>
      </contour>
      <contour>
        <pt x="284" y="368" on="1"/>
        <pt x="700" y="368" on="1"/>
        <pt x="700" y="1447" on="1"/>
        <pt x="284" y="1447" on="1"/>
      </contour>
    </TTGlyph>
    <TTGlyph name="multiply" xMin="142" yMin="226" xMax="842" yMax="1588">
      <contour>
        <pt x="142" y="226" on="1"/>
        <pt x="142" y="1588" on="1"/>
        <pt x="842" y="1588" on="1"/>
        <pt x="842" y="226" on="1"/>
      </contour>
      <contour>
        <pt x="284" y="368" on="1"/>
        <pt x="700" y="368" on="1"/>
        <pt x="700" y="1447" on="1"/>
        <pt x="284" y="1447" on="1"/>
      </contour>
    </TTGlyph>
    <TTGlyph name="noonghunnafinalarabic" xMin="142" yMin="226" xMax="842" yMax="1588">
      <contour>
        <pt x="142" y="226" on="1"/>
        <pt x="142" y="1588" on="1"/>
        <pt x="842" y="1588" on="1"/>
        <pt x="842" y="226" on="1"/>
      </contour>
      <contour>
        <pt x="284" y="368" on="1"/>
        <pt x="700" y="368" on="1"/>
        <pt x="700" y="1447" on="1"/>
        <pt x="284" y="1447" on="1"/>
      </contour>
    </TTGlyph>
    <TTGlyph name="noonjeemisolatedarabic" xMin="142" yMin="226" xMax="842" yMax="1588">
      <contour>
        <pt x="142" y="226" on="1"/>
        <pt x="142" y="1588" on="1"/>
        <pt x="842" y="1588" on="1"/>
        <pt x="842" y="226" on="1"/>
      </contour>
      <contour>
        <pt x="284" y="368" on="1"/>
        <pt x="700" y="368" on="1"/>
        <pt x="700" y="1447" on="1"/>
        <pt x="284" y="1447" on="1"/>
      </contour>
    </TTGlyph>
    <TTGlyph name="noonmeemisolatedarabic" xMin="142" yMin="226" xMax="842" yMax="1588">
      <contour>
        <pt x="142" y="226" on="1"/>
        <pt x="142" y="1588" on="1"/>
        <pt x="842" y="1588" on="1"/>
        <pt x="842" y="226" on="1"/>
      </contour>
      <contour>
        <pt x="284" y="368" on="1"/>
        <pt x="700" y="368" on="1"/>
        <pt x="700" y="1447" on="1"/>
        <pt x="284" y="1447" on="1"/>
      </contour>
    </TTGlyph>
    <TTGlyph name="noonringfinal" xMin="142" yMin="226" xMax="842" yMax="1588">
      <contour>
        <pt x="142" y="226" on="1"/>
        <pt x="142" y="1588" on="1"/>
        <pt x="842" y="1588" on="1"/>
        <pt x="842" y="226" on="1"/>
      </contour>
      <contour>
        <pt x="284" y="368" on="1"/>
        <pt x="700" y="368" on="1"/>
        <pt x="700" y="1447" on="1"/>
        <pt x="284" y="1447" on="1"/>
      </contour>
    </TTGlyph>
    <TTGlyph name="noonringinitial" xMin="142" yMin="226" xMax="842" yMax="1588">
      <contour>
        <pt x="142" y="226" on="1"/>
        <pt x="142" y="1588" on="1"/>
        <pt x="842" y="1588" on="1"/>
        <pt x="842" y="226" on="1"/>
      </contour>
      <contour>
        <pt x="284" y="368" on="1"/>
        <pt x="700" y="368" on="1"/>
        <pt x="700" y="1447" on="1"/>
        <pt x="284" y="1447" on="1"/>
      </contour>
    </TTGlyph>
    <TTGlyph name="noonringmedial" xMin="142" yMin="226" xMax="842" yMax="1588">
      <contour>
        <pt x="142" y="226" on="1"/>
        <pt x="142" y="1588" on="1"/>
        <pt x="842" y="1588" on="1"/>
        <pt x="842" y="226" on="1"/>
      </contour>
      <contour>
        <pt x="284" y="368" on="1"/>
        <pt x="700" y="368" on="1"/>
        <pt x="700" y="1447" on="1"/>
        <pt x="284" y="1447" on="1"/>
      </contour>
    </TTGlyph>
    <TTGlyph name="numbersign" xMin="142" yMin="226" xMax="842" yMax="1588">
      <contour>
        <pt x="142" y="226" on="1"/>
        <pt x="142" y="1588" on="1"/>
        <pt x="842" y="1588" on="1"/>
        <pt x="842" y="226" on="1"/>
      </contour>
      <contour>
        <pt x="284" y="368" on="1"/>
        <pt x="700" y="368" on="1"/>
        <pt x="700" y="1447" on="1"/>
        <pt x="284" y="1447" on="1"/>
      </contour>
    </TTGlyph>
    <TTGlyph name="parenleft" xMin="142" yMin="226" xMax="842" yMax="1588">
      <contour>
        <pt x="142" y="226" on="1"/>
        <pt x="142" y="1588" on="1"/>
        <pt x="842" y="1588" on="1"/>
        <pt x="842" y="226" on="1"/>
      </contour>
      <contour>
        <pt x="284" y="368" on="1"/>
        <pt x="700" y="368" on="1"/>
        <pt x="700" y="1447" on="1"/>
        <pt x="284" y="1447" on="1"/>
      </contour>
    </TTGlyph>
    <TTGlyph name="parenright" xMin="142" yMin="226" xMax="842" yMax="1588">
      <contour>
        <pt x="142" y="226" on="1"/>
        <pt x="142" y="1588" on="1"/>
        <pt x="842" y="1588" on="1"/>
        <pt x="842" y="226" on="1"/>
      </contour>
      <contour>
        <pt x="284" y="368" on="1"/>
        <pt x="700" y="368" on="1"/>
        <pt x="700" y="1447" on="1"/>
        <pt x="284" y="1447" on="1"/>
      </contour>
    </TTGlyph>
    <TTGlyph name="pashtoefinal" xMin="142" yMin="226" xMax="842" yMax="1588">
      <contour>
        <pt x="142" y="226" on="1"/>
        <pt x="142" y="1588" on="1"/>
        <pt x="842" y="1588" on="1"/>
        <pt x="842" y="226" on="1"/>
      </contour>
      <contour>
        <pt x="284" y="368" on="1"/>
        <pt x="700" y="368" on="1"/>
        <pt x="700" y="1447" on="1"/>
        <pt x="284" y="1447" on="1"/>
      </contour>
    </TTGlyph>
    <TTGlyph name="pashtoeinitial" xMin="142" yMin="226" xMax="842" yMax="1588">
      <contour>
        <pt x="142" y="226" on="1"/>
        <pt x="142" y="1588" on="1"/>
        <pt x="842" y="1588" on="1"/>
        <pt x="842" y="226" on="1"/>
      </contour>
      <contour>
        <pt x="284" y="368" on="1"/>
        <pt x="700" y="368" on="1"/>
        <pt x="700" y="1447" on="1"/>
        <pt x="284" y="1447" on="1"/>
      </contour>
    </TTGlyph>
    <TTGlyph name="pashtoemedial" xMin="142" yMin="226" xMax="842" yMax="1588">
      <contour>
        <pt x="142" y="226" on="1"/>
        <pt x="142" y="1588" on="1"/>
        <pt x="842" y="1588" on="1"/>
        <pt x="842" y="226" on="1"/>
      </contour>
      <contour>
        <pt x="284" y="368" on="1"/>
        <pt x="700" y="368" on="1"/>
        <pt x="700" y="1447" on="1"/>
        <pt x="284" y="1447" on="1"/>
      </contour>
    </TTGlyph>
    <TTGlyph name="pehfinalarabic" xMin="142" yMin="226" xMax="842" yMax="1588">
      <contour>
        <pt x="142" y="226" on="1"/>
        <pt x="142" y="1588" on="1"/>
        <pt x="842" y="1588" on="1"/>
        <pt x="842" y="226" on="1"/>
      </contour>
      <contour>
        <pt x="284" y="368" on="1"/>
        <pt x="700" y="368" on="1"/>
        <pt x="700" y="1447" on="1"/>
        <pt x="284" y="1447" on="1"/>
      </contour>
    </TTGlyph>
    <TTGlyph name="pehinitialarabic" xMin="142" yMin="226" xMax="842" yMax="1588">
      <contour>
        <pt x="142" y="226" on="1"/>
        <pt x="142" y="1588" on="1"/>
        <pt x="842" y="1588" on="1"/>
        <pt x="842" y="226" on="1"/>
      </contour>
      <contour>
        <pt x="284" y="368" on="1"/>
        <pt x="700" y="368" on="1"/>
        <pt x="700" y="1447" on="1"/>
        <pt x="284" y="1447" on="1"/>
      </contour>
    </TTGlyph>
    <TTGlyph name="pehmedialarabic" xMin="142" yMin="226" xMax="842" yMax="1588">
      <contour>
        <pt x="142" y="226" on="1"/>
        <pt x="142" y="1588" on="1"/>
        <pt x="842" y="1588" on="1"/>
        <pt x="842" y="226" on="1"/>
      </contour>
      <contour>
        <pt x="284" y="368" on="1"/>
        <pt x="700" y="368" on="1"/>
        <pt x="700" y="1447" on="1"/>
        <pt x="284" y="1447" on="1"/>
      </contour>
    </TTGlyph>
    <TTGlyph name="percent" xMin="142" yMin="226" xMax="842" yMax="1588">
      <contour>
        <pt x="142" y="226" on="1"/>
        <pt x="142" y="1588" on="1"/>
        <pt x="842" y="1588" on="1"/>
        <pt x="842" y="226" on="1"/>
      </contour>
      <contour>
        <pt x="284" y="368" on="1"/>
        <pt x="700" y="368" on="1"/>
        <pt x="700" y="1447" on="1"/>
        <pt x="284" y="1447" on="1"/>
      </contour>
    </TTGlyph>
    <TTGlyph name="period" xMin="142" yMin="226" xMax="842" yMax="1588">
      <contour>
        <pt x="142" y="226" on="1"/>
        <pt x="142" y="1588" on="1"/>
        <pt x="842" y="1588" on="1"/>
        <pt x="842" y="226" on="1"/>
      </contour>
      <contour>
        <pt x="284" y="368" on="1"/>
        <pt x="700" y="368" on="1"/>
        <pt x="700" y="1447" on="1"/>
        <pt x="284" y="1447" on="1"/>
      </contour>
    </TTGlyph>
    <TTGlyph name="plus" xMin="142" yMin="226" xMax="842" yMax="1588">
      <contour>
        <pt x="142" y="226" on="1"/>
        <pt x="142" y="1588" on="1"/>
        <pt x="842" y="1588" on="1"/>
        <pt x="842" y="226" on="1"/>
      </contour>
      <contour>
        <pt x="284" y="368" on="1"/>
        <pt x="700" y="368" on="1"/>
        <pt x="700" y="1447" on="1"/>
        <pt x="284" y="1447" on="1"/>
      </contour>
    </TTGlyph>
    <TTGlyph name="quotedbl" xMin="142" yMin="226" xMax="842" yMax="1588">
      <contour>
        <pt x="142" y="226" on="1"/>
        <pt x="142" y="1588" on="1"/>
        <pt x="842" y="1588" on="1"/>
        <pt x="842" y="226" on="1"/>
      </contour>
      <contour>
        <pt x="284" y="368" on="1"/>
        <pt x="700" y="368" on="1"/>
        <pt x="700" y="1447" on="1"/>
        <pt x="284" y="1447" on="1"/>
      </contour>
    </TTGlyph>
    <TTGlyph name="quotesingle" xMin="142" yMin="226" xMax="842" yMax="1588">
      <contour>
        <pt x="142" y="226" on="1"/>
        <pt x="142" y="1588" on="1"/>
        <pt x="842" y="1588" on="1"/>
        <pt x="842" y="226" on="1"/>
      </contour>
      <contour>
        <pt x="284" y="368" on="1"/>
        <pt x="700" y="368" on="1"/>
        <pt x="700" y="1447" on="1"/>
        <pt x="284" y="1447" on="1"/>
      </contour>
    </TTGlyph>
    <TTGlyph name="rehdotbelowdotabovefinal" xMin="142" yMin="226" xMax="842" yMax="1588">
      <contour>
        <pt x="142" y="226" on="1"/>
        <pt x="142" y="1588" on="1"/>
        <pt x="842" y="1588" on="1"/>
        <pt x="842" y="226" on="1"/>
      </contour>
      <contour>
        <pt x="284" y="368" on="1"/>
        <pt x="700" y="368" on="1"/>
        <pt x="700" y="1447" on="1"/>
        <pt x="284" y="1447" on="1"/>
      </contour>
    </TTGlyph>
    <TTGlyph name="rehringfinal" xMin="142" yMin="226" xMax="842" yMax="1588">
      <contour>
        <pt x="142" y="226" on="1"/>
        <pt x="142" y="1588" on="1"/>
        <pt x="842" y="1588" on="1"/>
        <pt x="842" y="226" on="1"/>
      </contour>
      <contour>
        <pt x="284" y="368" on="1"/>
        <pt x="700" y="368" on="1"/>
        <pt x="700" y="1447" on="1"/>
        <pt x="284" y="1447" on="1"/>
      </contour>
    </TTGlyph>
    <TTGlyph name="rrehfinalarabic" xMin="142" yMin="226" xMax="842" yMax="1588">
      <contour>
        <pt x="142" y="226" on="1"/>
        <pt x="142" y="1588" on="1"/>
        <pt x="842" y="1588" on="1"/>
        <pt x="842" y="226" on="1"/>
      </contour>
      <contour>
        <pt x="284" y="368" on="1"/>
        <pt x="700" y="368" on="1"/>
        <pt x="700" y="1447" on="1"/>
        <pt x="284" y="1447" on="1"/>
      </contour>
    </TTGlyph>
    <TTGlyph name="seendotbelowdotabovefinal" xMin="142" yMin="226" xMax="842" yMax="1588">
      <contour>
        <pt x="142" y="226" on="1"/>
        <pt x="142" y="1588" on="1"/>
        <pt x="842" y="1588" on="1"/>
        <pt x="842" y="226" on="1"/>
      </contour>
      <contour>
        <pt x="284" y="368" on="1"/>
        <pt x="700" y="368" on="1"/>
        <pt x="700" y="1447" on="1"/>
        <pt x="284" y="1447" on="1"/>
      </contour>
    </TTGlyph>
    <TTGlyph name="seendotbelowdotaboveinitial" xMin="142" yMin="226" xMax="842" yMax="1588">
      <contour>
        <pt x="142" y="226" on="1"/>
        <pt x="142" y="1588" on="1"/>
        <pt x="842" y="1588" on="1"/>
        <pt x="842" y="226" on="1"/>
      </contour>
      <contour>
        <pt x="284" y="368" on="1"/>
        <pt x="700" y="368" on="1"/>
        <pt x="700" y="1447" on="1"/>
        <pt x="284" y="1447" on="1"/>
      </contour>
    </TTGlyph>
    <TTGlyph name="seendotbelowdotabovemedial" xMin="142" yMin="226" xMax="842" yMax="1588">
      <contour>
        <pt x="142" y="226" on="1"/>
        <pt x="142" y="1588" on="1"/>
        <pt x="842" y="1588" on="1"/>
        <pt x="842" y="226" on="1"/>
      </contour>
      <contour>
        <pt x="284" y="368" on="1"/>
        <pt x="700" y="368" on="1"/>
        <pt x="700" y="1447" on="1"/>
        <pt x="284" y="1447" on="1"/>
      </contour>
    </TTGlyph>
    <TTGlyph name="shaddadammaarabic" xMin="142" yMin="226" xMax="842" yMax="1588">
      <contour>
        <pt x="142" y="226" on="1"/>
        <pt x="142" y="1588" on="1"/>
        <pt x="842" y="1588" on="1"/>
        <pt x="842" y="226" on="1"/>
      </contour>
      <contour>
        <pt x="284" y="368" on="1"/>
        <pt x="700" y="368" on="1"/>
        <pt x="700" y="1447" on="1"/>
        <pt x="284" y="1447" on="1"/>
      </contour>
    </TTGlyph>
    <TTGlyph name="shaddadammatanarabic" xMin="142" yMin="226" xMax="842" yMax="1588">
      <contour>
        <pt x="142" y="226" on="1"/>
        <pt x="142" y="1588" on="1"/>
        <pt x="842" y="1588" on="1"/>
        <pt x="842" y="226" on="1"/>
      </contour>
      <contour>
        <pt x="284" y="368" on="1"/>
        <pt x="700" y="368" on="1"/>
        <pt x="700" y="1447" on="1"/>
        <pt x="284" y="1447" on="1"/>
      </contour>
    </TTGlyph>
    <TTGlyph name="shaddafathaarabic" xMin="142" yMin="226" xMax="842" yMax="1588">
      <contour>
        <pt x="142" y="226" on="1"/>
        <pt x="142" y="1588" on="1"/>
        <pt x="842" y="1588" on="1"/>
        <pt x="842" y="226" on="1"/>
      </contour>
      <contour>
        <pt x="284" y="368" on="1"/>
        <pt x="700" y="368" on="1"/>
        <pt x="700" y="1447" on="1"/>
        <pt x="284" y="1447" on="1"/>
      </contour>
    </TTGlyph>
    <TTGlyph name="shaddakasraarabic" xMin="142" yMin="226" xMax="842" yMax="1588">
      <contour>
        <pt x="142" y="226" on="1"/>
        <pt x="142" y="1588" on="1"/>
        <pt x="842" y="1588" on="1"/>
        <pt x="842" y="226" on="1"/>
      </contour>
      <contour>
        <pt x="284" y="368" on="1"/>
        <pt x="700" y="368" on="1"/>
        <pt x="700" y="1447" on="1"/>
        <pt x="284" y="1447" on="1"/>
      </contour>
    </TTGlyph>
    <TTGlyph name="shaddakasratanarabic" xMin="142" yMin="226" xMax="842" yMax="1588">
      <contour>
        <pt x="142" y="226" on="1"/>
        <pt x="142" y="1588" on="1"/>
        <pt x="842" y="1588" on="1"/>
        <pt x="842" y="226" on="1"/>
      </contour>
      <contour>
        <pt x="284" y="368" on="1"/>
        <pt x="700" y="368" on="1"/>
        <pt x="700" y="1447" on="1"/>
        <pt x="284" y="1447" on="1"/>
      </contour>
    </TTGlyph>
    <TTGlyph name="slash" xMin="142" yMin="226" xMax="842" yMax="1588">
      <contour>
        <pt x="142" y="226" on="1"/>
        <pt x="142" y="1588" on="1"/>
        <pt x="842" y="1588" on="1"/>
        <pt x="842" y="226" on="1"/>
      </contour>
      <contour>
        <pt x="284" y="368" on="1"/>
        <pt x="700" y="368" on="1"/>
        <pt x="700" y="1447" on="1"/>
        <pt x="284" y="1447" on="1"/>
      </contour>
    </TTGlyph>
    <TTGlyph name="space" xMin="142" yMin="226" xMax="842" yMax="1588">
      <contour>
        <pt x="142" y="226" on="1"/>
        <pt x="142" y="1588" on="1"/>
        <pt x="842" y="1588" on="1"/>
        <pt x="842" y="226" on="1"/>
      </contour>
      <contour>
        <pt x="284" y="368" on="1"/>
        <pt x="700" y="368" on="1"/>
        <pt x="700" y="1447" on="1"/>
        <pt x="284" y="1447" on="1"/>
      </contour>
    </TTGlyph>
    <TTGlyph name="tchehfinalarabic" xMin="142" yMin="226" xMax="842" yMax="1588">
      <contour>
        <pt x="142" y="226" on="1"/>
        <pt x="142" y="1588" on="1"/>
        <pt x="842" y="1588" on="1"/>
        <pt x="842" y="226" on="1"/>
      </contour>
      <contour>
        <pt x="284" y="368" on="1"/>
        <pt x="700" y="368" on="1"/>
        <pt x="700" y="1447" on="1"/>
        <pt x="284" y="1447" on="1"/>
      </contour>
    </TTGlyph>
    <TTGlyph name="tchehinitialarabic" xMin="142" yMin="226" xMax="842" yMax="1588">
      <contour>
        <pt x="142" y="226" on="1"/>
        <pt x="142" y="1588" on="1"/>
        <pt x="842" y="1588" on="1"/>
        <pt x="842" y="226" on="1"/>
      </contour>
      <contour>
        <pt x="284" y="368" on="1"/>
        <pt x="700" y="368" on="1"/>
        <pt x="700" y="1447" on="1"/>
        <pt x="284" y="1447" on="1"/>
      </contour>
    </TTGlyph>
    <TTGlyph name="tchehmedialarabic" xMin="142" yMin="226" xMax="842" yMax="1588">
      <contour>
        <pt x="142" y="226" on="1"/>
        <pt x="142" y="1588" on="1"/>
        <pt x="842" y="1588" on="1"/>
        <pt x="842" y="226" on="1"/>
      </contour>
      <contour>
        <pt x="284" y="368" on="1"/>
        <pt x="700" y="368" on="1"/>
        <pt x="700" y="1447" on="1"/>
        <pt x="284" y="1447" on="1"/>
      </contour>
    </TTGlyph>
    <TTGlyph name="tehhahisolatedarabic" xMin="142" yMin="226" xMax="842" yMax="1588">
      <contour>
        <pt x="142" y="226" on="1"/>
        <pt x="142" y="1588" on="1"/>
        <pt x="842" y="1588" on="1"/>
        <pt x="842" y="226" on="1"/>
      </contour>
      <contour>
        <pt x="284" y="368" on="1"/>
        <pt x="700" y="368" on="1"/>
        <pt x="700" y="1447" on="1"/>
        <pt x="284" y="1447" on="1"/>
      </contour>
    </TTGlyph>
    <TTGlyph name="tehjeemisolatedarabic" xMin="142" yMin="226" xMax="842" yMax="1588">
      <contour>
        <pt x="142" y="226" on="1"/>
        <pt x="142" y="1588" on="1"/>
        <pt x="842" y="1588" on="1"/>
        <pt x="842" y="226" on="1"/>
      </contour>
      <contour>
        <pt x="284" y="368" on="1"/>
        <pt x="700" y="368" on="1"/>
        <pt x="700" y="1447" on="1"/>
        <pt x="284" y="1447" on="1"/>
      </contour>
    </TTGlyph>
    <TTGlyph name="tehmeemisolatedarabic" xMin="142" yMin="226" xMax="842" yMax="1588">
      <contour>
        <pt x="142" y="226" on="1"/>
        <pt x="142" y="1588" on="1"/>
        <pt x="842" y="1588" on="1"/>
        <pt x="842" y="226" on="1"/>
      </contour>
      <contour>
        <pt x="284" y="368" on="1"/>
        <pt x="700" y="368" on="1"/>
        <pt x="700" y="1447" on="1"/>
        <pt x="284" y="1447" on="1"/>
      </contour>
    </TTGlyph>
    <TTGlyph name="tehnoonfinalarabic" xMin="142" yMin="226" xMax="842" yMax="1588">
      <contour>
        <pt x="142" y="226" on="1"/>
        <pt x="142" y="1588" on="1"/>
        <pt x="842" y="1588" on="1"/>
        <pt x="842" y="226" on="1"/>
      </contour>
      <contour>
        <pt x="284" y="368" on="1"/>
        <pt x="700" y="368" on="1"/>
        <pt x="700" y="1447" on="1"/>
        <pt x="284" y="1447" on="1"/>
      </contour>
    </TTGlyph>
    <TTGlyph name="tehringfinal" xMin="142" yMin="226" xMax="842" yMax="1588">
      <contour>
        <pt x="142" y="226" on="1"/>
        <pt x="142" y="1588" on="1"/>
        <pt x="842" y="1588" on="1"/>
        <pt x="842" y="226" on="1"/>
      </contour>
      <contour>
        <pt x="284" y="368" on="1"/>
        <pt x="700" y="368" on="1"/>
        <pt x="700" y="1447" on="1"/>
        <pt x="284" y="1447" on="1"/>
      </contour>
    </TTGlyph>
    <TTGlyph name="tehringinitial" xMin="142" yMin="226" xMax="842" yMax="1588">
      <contour>
        <pt x="142" y="226" on="1"/>
        <pt x="142" y="1588" on="1"/>
        <pt x="842" y="1588" on="1"/>
        <pt x="842" y="226" on="1"/>
      </contour>
      <contour>
        <pt x="284" y="368" on="1"/>
        <pt x="700" y="368" on="1"/>
        <pt x="700" y="1447" on="1"/>
        <pt x="284" y="1447" on="1"/>
      </contour>
    </TTGlyph>
    <TTGlyph name="tehringmedial" xMin="142" yMin="226" xMax="842" yMax="1588">
      <contour>
        <pt x="142" y="226" on="1"/>
        <pt x="142" y="1588" on="1"/>
        <pt x="842" y="1588" on="1"/>
        <pt x="842" y="226" on="1"/>
      </contour>
      <contour>
        <pt x="284" y="368" on="1"/>
        <pt x="700" y="368" on="1"/>
        <pt x="700" y="1447" on="1"/>
        <pt x="284" y="1447" on="1"/>
      </contour>
    </TTGlyph>
    <TTGlyph name="ttehfinalarabic" xMin="142" yMin="226" xMax="842" yMax="1588">
      <contour>
        <pt x="142" y="226" on="1"/>
        <pt x="142" y="1588" on="1"/>
        <pt x="842" y="1588" on="1"/>
        <pt x="842" y="226" on="1"/>
      </contour>
      <contour>
        <pt x="284" y="368" on="1"/>
        <pt x="700" y="368" on="1"/>
        <pt x="700" y="1447" on="1"/>
        <pt x="284" y="1447" on="1"/>
      </contour>
    </TTGlyph>
    <TTGlyph name="ttehinitialarabic" xMin="142" yMin="226" xMax="842" yMax="1588">
      <contour>
        <pt x="142" y="226" on="1"/>
        <pt x="142" y="1588" on="1"/>
        <pt x="842" y="1588" on="1"/>
        <pt x="842" y="226" on="1"/>
      </contour>
      <contour>
        <pt x="284" y="368" on="1"/>
        <pt x="700" y="368" on="1"/>
        <pt x="700" y="1447" on="1"/>
        <pt x="284" y="1447" on="1"/>
      </contour>
    </TTGlyph>
    <TTGlyph name="ttehmedialarabic" xMin="142" yMin="226" xMax="842" yMax="1588">
      <contour>
        <pt x="142" y="226" on="1"/>
        <pt x="142" y="1588" on="1"/>
        <pt x="842" y="1588" on="1"/>
        <pt x="842" y="226" on="1"/>
      </contour>
      <contour>
        <pt x="284" y="368" on="1"/>
        <pt x="700" y="368" on="1"/>
        <pt x="700" y="1447" on="1"/>
        <pt x="284" y="1447" on="1"/>
      </contour>
    </TTGlyph>
    <TTGlyph name="uni000D" xMin="142" yMin="226" xMax="842" yMax="1588">
      <contour>
        <pt x="142" y="226" on="1"/>
        <pt x="142" y="1588" on="1"/>
        <pt x="842" y="1588" on="1"/>
        <pt x="842" y="226" on="1"/>
      </contour>
      <contour>
        <pt x="284" y="368" on="1"/>
        <pt x="700" y="368" on="1"/>
        <pt x="700" y="1447" on="1"/>
        <pt x="284" y="1447" on="1"/>
      </contour>
    </TTGlyph>
    <TTGlyph name="uni00A0" xMin="142" yMin="226" xMax="842" yMax="1588">
      <contour>
        <pt x="142" y="226" on="1"/>
        <pt x="142" y="1588" on="1"/>
        <pt x="842" y="1588" on="1"/>
        <pt x="842" y="226" on="1"/>
      </contour>
      <contour>
        <pt x="284" y="368" on="1"/>
        <pt x="700" y="368" on="1"/>
        <pt x="700" y="1447" on="1"/>
        <pt x="284" y="1447" on="1"/>
      </contour>
    </TTGlyph>
    <TTGlyph name="uni00AD" xMin="142" yMin="226" xMax="842" yMax="1588">
      <contour>
        <pt x="142" y="226" on="1"/>
        <pt x="142" y="1588" on="1"/>
        <pt x="842" y="1588" on="1"/>
        <pt x="842" y="226" on="1"/>
      </contour>
      <contour>
        <pt x="284" y="368" on="1"/>
        <pt x="700" y="368" on="1"/>
        <pt x="700" y="1447" on="1"/>
        <pt x="284" y="1447" on="1"/>
      </contour>
    </TTGlyph>
    <TTGlyph name="uni0653" xMin="142" yMin="226" xMax="842" yMax="1588">
      <contour>
        <pt x="142" y="226" on="1"/>
        <pt x="142" y="1588" on="1"/>
        <pt x="842" y="1588" on="1"/>
        <pt x="842" y="226" on="1"/>
      </contour>
      <contour>
        <pt x="284" y="368" on="1"/>
        <pt x="700" y="368" on="1"/>
        <pt x="700" y="1447" on="1"/>
        <pt x="284" y="1447" on="1"/>
      </contour>
    </TTGlyph>
    <TTGlyph name="uni0654" xMin="142" yMin="226" xMax="842" yMax="1588">
      <contour>
        <pt x="142" y="226" on="1"/>
        <pt x="142" y="1588" on="1"/>
        <pt x="842" y="1588" on="1"/>
        <pt x="842" y="226" on="1"/>
      </contour>
      <contour>
        <pt x="284" y="368" on="1"/>
        <pt x="700" y="368" on="1"/>
        <pt x="700" y="1447" on="1"/>
        <pt x="284" y="1447" on="1"/>
      </contour>
    </TTGlyph>
    <TTGlyph name="uni0655" xMin="142" yMin="226" xMax="842" yMax="1588">
      <contour>
        <pt x="142" y="226" on="1"/>
        <pt x="142" y="1588" on="1"/>
        <pt x="842" y="1588" on="1"/>
        <pt x="842" y="226" on="1"/>
      </contour>
      <contour>
        <pt x="284" y="368" on="1"/>
        <pt x="700" y="368" on="1"/>
        <pt x="700" y="1447" on="1"/>
        <pt x="284" y="1447" on="1"/>
      </contour>
    </TTGlyph>
    <TTGlyph name="uni066B" xMin="142" yMin="226" xMax="842" yMax="1588">
      <contour>
        <pt x="142" y="226" on="1"/>
        <pt x="142" y="1588" on="1"/>
        <pt x="842" y="1588" on="1"/>
        <pt x="842" y="226" on="1"/>
      </contour>
      <contour>
        <pt x="284" y="368" on="1"/>
        <pt x="700" y="368" on="1"/>
        <pt x="700" y="1447" on="1"/>
        <pt x="284" y="1447" on="1"/>
      </contour>
    </TTGlyph>
    <TTGlyph name="uni066C" xMin="142" yMin="226" xMax="842" yMax="1588">
      <contour>
        <pt x="142" y="226" on="1"/>
        <pt x="142" y="1588" on="1"/>
        <pt x="842" y="1588" on="1"/>
        <pt x="842" y="226" on="1"/>
      </contour>
      <contour>
        <pt x="284" y="368" on="1"/>
        <pt x="700" y="368" on="1"/>
        <pt x="700" y="1447" on="1"/>
        <pt x="284" y="1447" on="1"/>
      </contour>
    </TTGlyph>
    <TTGlyph name="uni0671" xMin="142" yMin="226" xMax="842" yMax="1588">
      <contour>
        <pt x="142" y="226" on="1"/>
        <pt x="142" y="1588" on="1"/>
        <pt x="842" y="1588" on="1"/>
        <pt x="842" y="226" on="1"/>
      </contour>
      <contour>
        <pt x="284" y="368" on="1"/>
        <pt x="700" y="368" on="1"/>
        <pt x="700" y="1447" on="1"/>
        <pt x="284" y="1447" on="1"/>
      </contour>
    </TTGlyph>
    <TTGlyph name="uni067C" xMin="142" yMin="226" xMax="842" yMax="1588">
      <contour>
        <pt x="142" y="226" on="1"/>
        <pt x="142" y="1588" on="1"/>
        <pt x="842" y="1588" on="1"/>
        <pt x="842" y="226" on="1"/>
      </contour>
      <contour>
        <pt x="284" y="368" on="1"/>
        <pt x="700" y="368" on="1"/>
        <pt x="700" y="1447" on="1"/>
        <pt x="284" y="1447" on="1"/>
      </contour>
    </TTGlyph>
    <TTGlyph name="uni0681" xMin="142" yMin="226" xMax="842" yMax="1588">
      <contour>
        <pt x="142" y="226" on="1"/>
        <pt x="142" y="1588" on="1"/>
        <pt x="842" y="1588" on="1"/>
        <pt x="842" y="226" on="1"/>
      </contour>
      <contour>
        <pt x="284" y="368" on="1"/>
        <pt x="700" y="368" on="1"/>
        <pt x="700" y="1447" on="1"/>
        <pt x="284" y="1447" on="1"/>
      </contour>
    </TTGlyph>
    <TTGlyph name="uni0685" xMin="142" yMin="226" xMax="842" yMax="1588">
      <contour>
        <pt x="142" y="226" on="1"/>
        <pt x="142" y="1588" on="1"/>
        <pt x="842" y="1588" on="1"/>
        <pt x="842" y="226" on="1"/>
      </contour>
      <contour>
        <pt x="284" y="368" on="1"/>
        <pt x="700" y="368" on="1"/>
        <pt x="700" y="1447" on="1"/>
        <pt x="284" y="1447" on="1"/>
      </contour>
    </TTGlyph>
    <TTGlyph name="uni0689" xMin="142" yMin="226" xMax="842" yMax="1588">
      <contour>
        <pt x="142" y="226" on="1"/>
        <pt x="142" y="1588" on="1"/>
        <pt x="842" y="1588" on="1"/>
        <pt x="842" y="226" on="1"/>
      </contour>
      <contour>
        <pt x="284" y="368" on="1"/>
        <pt x="700" y="368" on="1"/>
        <pt x="700" y="1447" on="1"/>
        <pt x="284" y="1447" on="1"/>
      </contour>
    </TTGlyph>
    <TTGlyph name="uni0693" xMin="142" yMin="226" xMax="842" yMax="1588">
      <contour>
        <pt x="142" y="226" on="1"/>
        <pt x="142" y="1588" on="1"/>
        <pt x="842" y="1588" on="1"/>
        <pt x="842" y="226" on="1"/>
      </contour>
      <contour>
        <pt x="284" y="368" on="1"/>
        <pt x="700" y="368" on="1"/>
        <pt x="700" y="1447" on="1"/>
        <pt x="284" y="1447" on="1"/>
      </contour>
    </TTGlyph>
    <TTGlyph name="uni0696" xMin="142" yMin="226" xMax="842" yMax="1588">
      <contour>
        <pt x="142" y="226" on="1"/>
        <pt x="142" y="1588" on="1"/>
        <pt x="842" y="1588" on="1"/>
        <pt x="842" y="226" on="1"/>
      </contour>
      <contour>
        <pt x="284" y="368" on="1"/>
        <pt x="700" y="368" on="1"/>
        <pt x="700" y="1447" on="1"/>
        <pt x="284" y="1447" on="1"/>
      </contour>
    </TTGlyph>
    <TTGlyph name="uni069A" xMin="142" yMin="226" xMax="842" yMax="1588">
      <contour>
        <pt x="142" y="226" on="1"/>
        <pt x="142" y="1588" on="1"/>
        <pt x="842" y="1588" on="1"/>
        <pt x="842" y="226" on="1"/>
      </contour>
      <contour>
        <pt x="284" y="368" on="1"/>
        <pt x="700" y="368" on="1"/>
        <pt x="700" y="1447" on="1"/>
        <pt x="284" y="1447" on="1"/>
      </contour>
    </TTGlyph>
    <TTGlyph name="uni06A9" xMin="142" yMin="226" xMax="842" yMax="1588">
      <contour>
        <pt x="142" y="226" on="1"/>
        <pt x="142" y="1588" on="1"/>
        <pt x="842" y="1588" on="1"/>
        <pt x="842" y="226" on="1"/>
      </contour>
      <contour>
        <pt x="284" y="368" on="1"/>
        <pt x="700" y="368" on="1"/>
        <pt x="700" y="1447" on="1"/>
        <pt x="284" y="1447" on="1"/>
      </contour>
    </TTGlyph>
    <TTGlyph name="uni06AB" xMin="142" yMin="226" xMax="842" yMax="1588">
      <contour>
        <pt x="142" y="226" on="1"/>
        <pt x="142" y="1588" on="1"/>
        <pt x="842" y="1588" on="1"/>
        <pt x="842" y="226" on="1"/>
      </contour>
      <contour>
        <pt x="284" y="368" on="1"/>
        <pt x="700" y="368" on="1"/>
        <pt x="700" y="1447" on="1"/>
        <pt x="284" y="1447" on="1"/>
      </contour>
    </TTGlyph>
    <TTGlyph name="uni06B7" xMin="142" yMin="226" xMax="842" yMax="1588">
      <contour>
        <pt x="142" y="226" on="1"/>
        <pt x="142" y="1588" on="1"/>
        <pt x="842" y="1588" on="1"/>
        <pt x="842" y="226" on="1"/>
      </contour>
      <contour>
        <pt x="284" y="368" on="1"/>
        <pt x="700" y="368" on="1"/>
        <pt x="700" y="1447" on="1"/>
        <pt x="284" y="1447" on="1"/>
      </contour>
    </TTGlyph>
    <TTGlyph name="uni06BC" xMin="142" yMin="226" xMax="842" yMax="1588">
      <contour>
        <pt x="142" y="226" on="1"/>
        <pt x="142" y="1588" on="1"/>
        <pt x="842" y="1588" on="1"/>
        <pt x="842" y="226" on="1"/>
      </contour>
      <contour>
        <pt x="284" y="368" on="1"/>
        <pt x="700" y="368" on="1"/>
        <pt x="700" y="1447" on="1"/>
        <pt x="284" y="1447" on="1"/>
      </contour>
    </TTGlyph>
    <TTGlyph name="uni06BE" xMin="142" yMin="226" xMax="842" yMax="1588">
      <contour>
        <pt x="142" y="226" on="1"/>
        <pt x="142" y="1588" on="1"/>
        <pt x="842" y="1588" on="1"/>
        <pt x="842" y="226" on="1"/>
      </contour>
      <contour>
        <pt x="284" y="368" on="1"/>
        <pt x="700" y="368" on="1"/>
        <pt x="700" y="1447" on="1"/>
        <pt x="284" y="1447" on="1"/>
      </contour>
    </TTGlyph>
    <TTGlyph name="uni06C2" xMin="142" yMin="226" xMax="842" yMax="1588">
      <contour>
        <pt x="142" y="226" on="1"/>
        <pt x="142" y="1588" on="1"/>
        <pt x="842" y="1588" on="1"/>
        <pt x="842" y="226" on="1"/>
      </contour>
      <contour>
        <pt x="284" y="368" on="1"/>
        <pt x="700" y="368" on="1"/>
        <pt x="700" y="1447" on="1"/>
        <pt x="284" y="1447" on="1"/>
      </contour>
    </TTGlyph>
    <TTGlyph name="uni06C7" xMin="142" yMin="226" xMax="842" yMax="1588">
      <contour>
        <pt x="142" y="226" on="1"/>
        <pt x="142" y="1588" on="1"/>
        <pt x="842" y="1588" on="1"/>
        <pt x="842" y="226" on="1"/>
      </contour>
      <contour>
        <pt x="284" y="368" on="1"/>
        <pt x="700" y="368" on="1"/>
        <pt x="700" y="1447" on="1"/>
        <pt x="284" y="1447" on="1"/>
      </contour>
    </TTGlyph>
    <TTGlyph name="uni06C9" xMin="142" yMin="226" xMax="842" yMax="1588">
      <contour>
        <pt x="142" y="226" on="1"/>
        <pt x="142" y="1588" on="1"/>
        <pt x="842" y="1588" on="1"/>
        <pt x="842" y="226" on="1"/>
      </contour>
      <contour>
        <pt x="284" y="368" on="1"/>
        <pt x="700" y="368" on="1"/>
        <pt x="700" y="1447" on="1"/>
        <pt x="284" y="1447" on="1"/>
      </contour>
    </TTGlyph>
    <TTGlyph name="uni06CC" xMin="142" yMin="226" xMax="842" yMax="1588">
      <contour>
        <pt x="142" y="226" on="1"/>
        <pt x="142" y="1588" on="1"/>
        <pt x="842" y="1588" on="1"/>
        <pt x="842" y="226" on="1"/>
      </contour>
      <contour>
        <pt x="284" y="368" on="1"/>
        <pt x="700" y="368" on="1"/>
        <pt x="700" y="1447" on="1"/>
        <pt x="284" y="1447" on="1"/>
      </contour>
    </TTGlyph>
    <TTGlyph name="uni06CD" xMin="142" yMin="226" xMax="842" yMax="1588">
      <contour>
        <pt x="142" y="226" on="1"/>
        <pt x="142" y="1588" on="1"/>
        <pt x="842" y="1588" on="1"/>
        <pt x="842" y="226" on="1"/>
      </contour>
      <contour>
        <pt x="284" y="368" on="1"/>
        <pt x="700" y="368" on="1"/>
        <pt x="700" y="1447" on="1"/>
        <pt x="284" y="1447" on="1"/>
      </contour>
    </TTGlyph>
    <TTGlyph name="uni06D0" xMin="142" yMin="226" xMax="842" yMax="1588">
      <contour>
        <pt x="142" y="226" on="1"/>
        <pt x="142" y="1588" on="1"/>
        <pt x="842" y="1588" on="1"/>
        <pt x="842" y="226" on="1"/>
      </contour>
      <contour>
        <pt x="284" y="368" on="1"/>
        <pt x="700" y="368" on="1"/>
        <pt x="700" y="1447" on="1"/>
        <pt x="284" y="1447" on="1"/>
      </contour>
    </TTGlyph>
    <TTGlyph name="uni06D1" xMin="142" yMin="226" xMax="842" yMax="1588">
      <contour>
        <pt x="142" y="226" on="1"/>
        <pt x="142" y="1588" on="1"/>
        <pt x="842" y="1588" on="1"/>
        <pt x="842" y="226" on="1"/>
      </contour>
      <contour>
        <pt x="284" y="368" on="1"/>
        <pt x="700" y="368" on="1"/>
        <pt x="700" y="1447" on="1"/>
        <pt x="284" y="1447" on="1"/>
      </contour>
    </TTGlyph>
    <TTGlyph name="uni06D3" xMin="142" yMin="226" xMax="842" yMax="1588">
      <contour>
        <pt x="142" y="226" on="1"/>
        <pt x="142" y="1588" on="1"/>
        <pt x="842" y="1588" on="1"/>
        <pt x="842" y="226" on="1"/>
      </contour>
      <contour>
        <pt x="284" y="368" on="1"/>
        <pt x="700" y="368" on="1"/>
        <pt x="700" y="1447" on="1"/>
        <pt x="284" y="1447" on="1"/>
      </contour>
    </TTGlyph>
    <TTGlyph name="uni06D4" xMin="142" yMin="226" xMax="842" yMax="1588">
      <contour>
        <pt x="142" y="226" on="1"/>
        <pt x="142" y="1588" on="1"/>
        <pt x="842" y="1588" on="1"/>
        <pt x="842" y="226" on="1"/>
      </contour>
      <contour>
        <pt x="284" y="368" on="1"/>
        <pt x="700" y="368" on="1"/>
        <pt x="700" y="1447" on="1"/>
        <pt x="284" y="1447" on="1"/>
      </contour>
    </TTGlyph>
    <TTGlyph name="uni06F0" xMin="142" yMin="226" xMax="842" yMax="1588">
      <contour>
        <pt x="142" y="226" on="1"/>
        <pt x="142" y="1588" on="1"/>
        <pt x="842" y="1588" on="1"/>
        <pt x="842" y="226" on="1"/>
      </contour>
      <contour>
        <pt x="284" y="368" on="1"/>
        <pt x="700" y="368" on="1"/>
        <pt x="700" y="1447" on="1"/>
        <pt x="284" y="1447" on="1"/>
      </contour>
    </TTGlyph>
    <TTGlyph name="uni06F1" xMin="142" yMin="226" xMax="842" yMax="1588">
      <contour>
        <pt x="142" y="226" on="1"/>
        <pt x="142" y="1588" on="1"/>
        <pt x="842" y="1588" on="1"/>
        <pt x="842" y="226" on="1"/>
      </contour>
      <contour>
        <pt x="284" y="368" on="1"/>
        <pt x="700" y="368" on="1"/>
        <pt x="700" y="1447" on="1"/>
        <pt x="284" y="1447" on="1"/>
      </contour>
    </TTGlyph>
    <TTGlyph name="uni06F2" xMin="142" yMin="226" xMax="842" yMax="1588">
      <contour>
        <pt x="142" y="226" on="1"/>
        <pt x="142" y="1588" on="1"/>
        <pt x="842" y="1588" on="1"/>
        <pt x="842" y="226" on="1"/>
      </contour>
      <contour>
        <pt x="284" y="368" on="1"/>
        <pt x="700" y="368" on="1"/>
        <pt x="700" y="1447" on="1"/>
        <pt x="284" y="1447" on="1"/>
      </contour>
    </TTGlyph>
    <TTGlyph name="uni06F3" xMin="142" yMin="226" xMax="842" yMax="1588">
      <contour>
        <pt x="142" y="226" on="1"/>
        <pt x="142" y="1588" on="1"/>
        <pt x="842" y="1588" on="1"/>
        <pt x="842" y="226" on="1"/>
      </contour>
      <contour>
        <pt x="284" y="368" on="1"/>
        <pt x="700" y="368" on="1"/>
        <pt x="700" y="1447" on="1"/>
        <pt x="284" y="1447" on="1"/>
      </contour>
    </TTGlyph>
    <TTGlyph name="uni06F4" xMin="142" yMin="226" xMax="842" yMax="1588">
      <contour>
        <pt x="142" y="226" on="1"/>
        <pt x="142" y="1588" on="1"/>
        <pt x="842" y="1588" on="1"/>
        <pt x="842" y="226" on="1"/>
      </contour>
      <contour>
        <pt x="284" y="368" on="1"/>
        <pt x="700" y="368" on="1"/>
        <pt x="700" y="1447" on="1"/>
        <pt x="284" y="1447" on="1"/>
      </contour>
    </TTGlyph>
    <TTGlyph name="uni06F5" xMin="142" yMin="226" xMax="842" yMax="1588">
      <contour>
        <pt x="142" y="226" on="1"/>
        <pt x="142" y="1588" on="1"/>
        <pt x="842" y="1588" on="1"/>
        <pt x="842" y="226" on="1"/>
      </contour>
      <contour>
        <pt x="284" y="368" on="1"/>
        <pt x="700" y="368" on="1"/>
        <pt x="700" y="1447" on="1"/>
        <pt x="284" y="1447" on="1"/>
      </contour>
    </TTGlyph>
    <TTGlyph name="uni06F6" xMin="142" yMin="226" xMax="842" yMax="1588">
      <contour>
        <pt x="142" y="226" on="1"/>
        <pt x="142" y="1588" on="1"/>
        <pt x="842" y="1588" on="1"/>
        <pt x="842" y="226" on="1"/>
      </contour>
      <contour>
        <pt x="284" y="368" on="1"/>
        <pt x="700" y="368" on="1"/>
        <pt x="700" y="1447" on="1"/>
        <pt x="284" y="1447" on="1"/>
      </contour>
    </TTGlyph>
    <TTGlyph name="uni06F7" xMin="142" yMin="226" xMax="842" yMax="1588">
      <contour>
        <pt x="142" y="226" on="1"/>
        <pt x="142" y="1588" on="1"/>
        <pt x="842" y="1588" on="1"/>
        <pt x="842" y="226" on="1"/>
      </contour>
      <contour>
        <pt x="284" y="368" on="1"/>
        <pt x="700" y="368" on="1"/>
        <pt x="700" y="1447" on="1"/>
        <pt x="284" y="1447" on="1"/>
      </contour>
    </TTGlyph>
    <TTGlyph name="uni06F8" xMin="142" yMin="226" xMax="842" yMax="1588">
      <contour>
        <pt x="142" y="226" on="1"/>
        <pt x="142" y="1588" on="1"/>
        <pt x="842" y="1588" on="1"/>
        <pt x="842" y="226" on="1"/>
      </contour>
      <contour>
        <pt x="284" y="368" on="1"/>
        <pt x="700" y="368" on="1"/>
        <pt x="700" y="1447" on="1"/>
        <pt x="284" y="1447" on="1"/>
      </contour>
    </TTGlyph>
    <TTGlyph name="uni06F9" xMin="142" yMin="226" xMax="842" yMax="1588">
      <contour>
        <pt x="142" y="226" on="1"/>
        <pt x="142" y="1588" on="1"/>
        <pt x="842" y="1588" on="1"/>
        <pt x="842" y="226" on="1"/>
      </contour>
      <contour>
        <pt x="284" y="368" on="1"/>
        <pt x="700" y="368" on="1"/>
        <pt x="700" y="1447" on="1"/>
        <pt x="284" y="1447" on="1"/>
      </contour>
    </TTGlyph>
    <TTGlyph name="uni2010" xMin="128" yMin="-540" xMax="4151" yMax="1650">
      <contour>
        <pt x="3619" y="1613" on="1"/>
        <pt x="3619" y="1575" on="0"/>
        <pt x="3507" y="1514" on="1"/>
        <pt x="3444" y="1484" on="0"/>
        <pt x="3381" y="1452" on="1"/>
        <pt x="3286" y="1398" on="0"/>
        <pt x="3089" y="1303" on="1"/>
        <pt x="3089" y="1307" on="0"/>
        <pt x="3077" y="1323" on="0"/>
        <pt x="3077" y="1338" on="1"/>
        <pt x="3077" y="1386" on="0"/>
        <pt x="3121" y="1411" on="1"/>
        <pt x="3550" y="1650" on="0"/>
        <pt x="3574" y="1649" on="1"/>
        <pt x="3619" y="1649" on="1"/>
      </contour>
      <contour>
        <pt x="3004" y="1490" on="1"/>
        <pt x="3005" y="1461" on="0"/>
        <pt x="2893" y="1398" on="1"/>
        <pt x="2792" y="1341" on="0"/>
        <pt x="2736" y="1325" on="1"/>
        <pt x="2726" y="1323" on="0"/>
        <pt x="2682" y="1323" on="1"/>
        <pt x="2656" y="1323" on="0"/>
        <pt x="2586" y="1346" on="1"/>
        <pt x="2596" y="1378" on="0"/>
        <pt x="2679" y="1401" on="1"/>
        <pt x="2767" y="1425" on="0"/>
        <pt x="2790" y="1461" on="1"/>
        <pt x="2784" y="1487" on="0"/>
        <pt x="2744" y="1487" on="1"/>
        <pt x="2740" y="1487" on="0"/>
        <pt x="2606" y="1440" on="1"/>
        <pt x="2586" y="1455" on="1"/>
        <pt x="2604" y="1511" on="0"/>
        <pt x="2726" y="1599" on="0"/>
        <pt x="2780" y="1599" on="1"/>
        <pt x="2790" y="1599" on="0"/>
        <pt x="2875" y="1571" on="1"/>
        <pt x="2965" y="1542" on="0"/>
        <pt x="3004" y="1536" on="1"/>
      </contour>
      <contour>
        <pt x="3538" y="714" on="1"/>
        <pt x="3489" y="616" on="0"/>
        <pt x="3435" y="616" on="1"/>
        <pt x="3385" y="616" on="0"/>
        <pt x="3333" y="693" on="1"/>
        <pt x="3342" y="717" on="0"/>
        <pt x="3367" y="758" on="1"/>
        <pt x="3400" y="791" on="0"/>
        <pt x="3435" y="791" on="1"/>
        <pt x="3461" y="791" on="0"/>
      </contour>
      <contour>
        <pt x="4151" y="-19" on="1"/>
        <pt x="4145" y="-43" on="0"/>
        <pt x="4136" y="-77" on="1"/>
        <pt x="3979" y="-186" on="0"/>
        <pt x="3633" y="-284" on="1"/>
        <pt x="3619" y="-270" on="0"/>
        <pt x="3619" y="-249" on="1"/>
        <pt x="3619" y="-207" on="0"/>
        <pt x="3664" y="-186" on="1"/>
        <pt x="3763" y="-139" on="0"/>
        <pt x="3914" y="-80" on="1"/>
        <pt x="4068" y="-18" on="0"/>
        <pt x="4086" y="-19" on="1"/>
      </contour>
      <contour>
        <pt x="2893" y="795" on="1"/>
        <pt x="2893" y="767" on="0"/>
        <pt x="2828" y="698" on="0"/>
        <pt x="2811" y="698" on="1"/>
        <pt x="2803" y="698" on="0"/>
        <pt x="2719" y="750" on="1"/>
        <pt x="2717" y="776" on="0"/>
        <pt x="2746" y="827" on="1"/>
        <pt x="2778" y="882" on="0"/>
        <pt x="2805" y="882" on="1"/>
        <pt x="2825" y="882" on="0"/>
        <pt x="2893" y="814" on="0"/>
      </contour>
      <contour>
        <pt x="3977" y="253" on="1"/>
        <pt x="3977" y="162" on="0"/>
        <pt x="3971" y="142" on="1"/>
        <pt x="3962" y="116" on="0"/>
        <pt x="3901" y="34" on="1"/>
        <pt x="3869" y="-8" on="0"/>
        <pt x="3773" y="-8" on="1"/>
        <pt x="3704" y="-8" on="0"/>
        <pt x="3540" y="74" on="0"/>
        <pt x="3522" y="74" on="1"/>
        <pt x="3504" y="74" on="0"/>
        <pt x="3495" y="65" on="1"/>
        <pt x="3466" y="36" on="0"/>
        <pt x="3401" y="-5" on="1"/>
        <pt x="3278" y="-49" on="0"/>
        <pt x="3143" y="-49" on="1"/>
        <pt x="3130" y="-49" on="0"/>
        <pt x="2854" y="22" on="0"/>
        <pt x="2841" y="22" on="1"/>
        <pt x="2828" y="22" on="0"/>
        <pt x="2593" y="-28" on="0"/>
        <pt x="2580" y="-28" on="1"/>
        <pt x="2524" y="-28" on="0"/>
        <pt x="2455" y="-5" on="1"/>
        <pt x="2450" y="-4" on="0"/>
        <pt x="2422" y="20" on="1"/>
        <pt x="2396" y="43" on="0"/>
        <pt x="2381" y="43" on="1"/>
        <pt x="2374" y="43" on="0"/>
        <pt x="2333" y="10" on="1"/>
        <pt x="2287" y="-27" on="0"/>
        <pt x="2254" y="-36" on="1"/>
        <pt x="2244" y="-39" on="0"/>
        <pt x="2191" y="-39" on="1"/>
        <pt x="2178" y="-39" on="0"/>
        <pt x="2086" y="-18" on="0"/>
        <pt x="2074" y="-18" on="1"/>
        <pt x="2060" y="-18" on="0"/>
        <pt x="1958" y="-39" on="0"/>
        <pt x="1946" y="-39" on="1"/>
        <pt x="1934" y="-39" on="0"/>
        <pt x="1810" y="-18" on="0"/>
        <pt x="1797" y="-18" on="1"/>
        <pt x="1784" y="-18" on="0"/>
        <pt x="1508" y="-69" on="0"/>
        <pt x="1495" y="-69" on="1"/>
        <pt x="1465" y="-69" on="0"/>
        <pt x="1360" y="-36" on="1"/>
        <pt x="1263" y="-4" on="0"/>
        <pt x="1155" y="156" on="1"/>
        <pt x="1121" y="132" on="0"/>
        <pt x="1058" y="88" on="1"/>
        <pt x="1008" y="53" on="0"/>
        <pt x="911" y="53" on="1"/>
        <pt x="848" y="53" on="0"/>
        <pt x="787" y="71" on="1"/>
        <pt x="701" y="97" on="0"/>
        <pt x="701" y="145" on="1"/>
        <pt x="701" y="158" on="0"/>
        <pt x="716" y="176" on="1"/>
        <pt x="737" y="202" on="0"/>
        <pt x="739" y="204" on="1"/>
        <pt x="793" y="300" on="0"/>
        <pt x="911" y="374" on="1"/>
        <pt x="1039" y="454" on="0"/>
        <pt x="1073" y="501" on="1"/>
        <pt x="1074" y="525" on="0"/>
        <pt x="1071" y="567" on="1"/>
        <pt x="1067" y="615" on="0"/>
        <pt x="1067" y="632" on="1"/>
        <pt x="1067" y="702" on="0"/>
        <pt x="1105" y="739" on="1"/>
        <pt x="1113" y="733" on="0"/>
        <pt x="1127" y="723" on="1"/>
        <pt x="1164" y="556" on="0"/>
        <pt x="1246" y="254" on="1"/>
        <pt x="1268" y="191" on="0"/>
        <pt x="1333" y="157" on="1"/>
        <pt x="1379" y="135" on="0"/>
        <pt x="1460" y="113" on="1"/>
        <pt x="1533" y="94" on="0"/>
        <pt x="1557" y="94" on="1"/>
        <pt x="1703" y="94" on="0"/>
        <pt x="1779" y="137" on="1"/>
        <pt x="1793" y="145" on="0"/>
        <pt x="1818" y="183" on="1"/>
        <pt x="1856" y="240" on="0"/>
        <pt x="1862" y="247" on="1"/>
        <pt x="1893" y="236" on="0"/>
        <pt x="1893" y="206" on="1"/>
        <pt x="1893" y="193" on="0"/>
        <pt x="1879" y="140" on="0"/>
        <pt x="1879" y="130" on="1"/>
        <pt x="1879" y="97" on="0"/>
        <pt x="1902" y="93" on="1"/>
        <pt x="1895" y="94" on="0"/>
        <pt x="1946" y="94" on="1"/>
        <pt x="2016" y="94" on="0"/>
        <pt x="2087" y="127" on="1"/>
        <pt x="2098" y="132" on="0"/>
        <pt x="2174" y="242" on="0"/>
        <pt x="2201" y="258" on="1"/>
        <pt x="2232" y="242" on="0"/>
        <pt x="2232" y="215" on="1"/>
        <pt x="2232" y="201" on="0"/>
        <pt x="2220" y="173" on="1"/>
        <pt x="2208" y="143" on="0"/>
        <pt x="2206" y="132" on="1"/>
        <pt x="2224" y="115" on="0"/>
        <pt x="2242" y="115" on="1"/>
        <pt x="2322" y="115" on="0"/>
        <pt x="2364" y="202" on="1"/>
        <pt x="2409" y="292" on="0"/>
        <pt x="2449" y="298" on="1"/>
        <pt x="2456" y="289" on="0"/>
        <pt x="2456" y="270" on="1"/>
        <pt x="2456" y="250" on="0"/>
        <pt x="2445" y="211" on="1"/>
        <pt x="2432" y="167" on="0"/>
        <pt x="2432" y="162" on="1"/>
        <pt x="2459" y="135" on="0"/>
        <pt x="2529" y="135" on="1"/>
        <pt x="2542" y="135" on="0"/>
        <pt x="2598" y="125" on="0"/>
        <pt x="2611" y="125" on="1"/>
        <pt x="2699" y="125" on="0"/>
        <pt x="2725" y="152" on="1"/>
        <pt x="2731" y="273" on="0"/>
        <pt x="2763" y="337" on="1"/>
        <pt x="2787" y="387" on="0"/>
        <pt x="2859" y="463" on="1"/>
        <pt x="2945" y="555" on="0"/>
        <pt x="2995" y="555" on="1"/>
        <pt x="3054" y="555" on="0"/>
        <pt x="3095" y="473" on="1"/>
        <pt x="3128" y="408" on="0"/>
        <pt x="3128" y="356" on="1"/>
        <pt x="3128" y="224" on="0"/>
        <pt x="3068" y="179" on="1"/>
        <pt x="3056" y="129" on="0"/>
        <pt x="3056" y="142" on="1"/>
        <pt x="3079" y="115" on="0"/>
        <pt x="3180" y="115" on="1"/>
        <pt x="3374" y="115" on="0"/>
        <pt x="3437" y="167" on="1"/>
        <pt x="3533" y="247" on="0"/>
        <pt x="3542" y="247" on="1"/>
        <pt x="3536" y="247" on="0"/>
        <pt x="3744" y="156" on="0"/>
        <pt x="3788" y="156" on="1"/>
        <pt x="3823" y="156" on="0"/>
        <pt x="3866" y="182" on="1"/>
        <pt x="3855" y="453" on="0"/>
        <pt x="3769" y="866" on="1"/>
        <pt x="3766" y="881" on="0"/>
        <pt x="3737" y="928" on="1"/>
        <pt x="3711" y="971" on="0"/>
        <pt x="3711" y="990" on="1"/>
        <pt x="3711" y="1050" on="0"/>
        <pt x="3787" y="1205" on="1"/>
        <pt x="3799" y="1208" on="0"/>
        <pt x="3820" y="1220" on="1"/>
        <pt x="3828" y="1173" on="0"/>
        <pt x="3847" y="1083" on="1"/>
        <pt x="3851" y="1068" on="0"/>
        <pt x="3882" y="1046" on="1"/>
        <pt x="3926" y="1014" on="0"/>
        <pt x="3927" y="1013" on="1"/>
        <pt x="3922" y="990" on="0"/>
        <pt x="3897" y="927" on="1"/>
        <pt x="3875" y="870" on="0"/>
        <pt x="3875" y="857" on="1"/>
        <pt x="3875" y="844" on="0"/>
        <pt x="3977" y="265" on="0"/>
      </contour>
      <contour>
        <pt x="2400" y="-205" on="1"/>
        <pt x="2391" y="-235" on="0"/>
        <pt x="2364" y="-273" on="1"/>
        <pt x="2278" y="-321" on="0"/>
        <pt x="2133" y="-384" on="1"/>
        <pt x="1918" y="-478" on="0"/>
        <pt x="1895" y="-489" on="1"/>
        <pt x="1851" y="-489" on="1"/>
        <pt x="1844" y="-476" on="0"/>
        <pt x="1828" y="-454" on="1"/>
        <pt x="1842" y="-426" on="0"/>
        <pt x="1871" y="-391" on="1"/>
        <pt x="1973" y="-340" on="0"/>
        <pt x="2344" y="-192" on="1"/>
      </contour>
      <contour>
        <pt x="1417" y="-194" on="1"/>
        <pt x="1413" y="-225" on="0"/>
        <pt x="1392" y="-272" on="1"/>
        <pt x="1344" y="-321" on="0"/>
        <pt x="1292" y="-343" on="1"/>
        <pt x="1159" y="-398" on="0"/>
        <pt x="872" y="-540" on="1"/>
        <pt x="837" y="-540" on="1"/>
        <pt x="824" y="-526" on="0"/>
        <pt x="824" y="-510" on="1"/>
        <pt x="824" y="-456" on="0"/>
        <pt x="868" y="-432" on="1"/>
        <pt x="898" y="-416" on="0"/>
        <pt x="1227" y="-272" on="1"/>
        <pt x="1273" y="-242" on="0"/>
        <pt x="1361" y="-194" on="1"/>
      </contour>
      <contour>
        <pt x="660" y="33" on="1"/>
        <pt x="643" y="20" on="0"/>
        <pt x="605" y="5" on="1"/>
        <pt x="376" y="-28" on="0"/>
        <pt x="302" y="-28" on="1"/>
        <pt x="254" y="-28" on="0"/>
        <pt x="200" y="-11" on="1"/>
        <pt x="128" y="11" on="0"/>
        <pt x="128" y="48" on="1"/>
        <pt x="128" y="67" on="0"/>
        <pt x="151" y="103" on="1"/>
        <pt x="175" y="143" on="0"/>
        <pt x="202" y="161" on="1"/>
        <pt x="251" y="175" on="0"/>
        <pt x="345" y="229" on="1"/>
        <pt x="367" y="252" on="0"/>
        <pt x="389" y="276" on="1"/>
        <pt x="420" y="309" on="0"/>
        <pt x="435" y="309" on="1"/>
        <pt x="487" y="309" on="0"/>
        <pt x="487" y="217" on="1"/>
        <pt x="487" y="179" on="0"/>
        <pt x="474" y="156" on="1"/>
        <pt x="444" y="156" on="0"/>
        <pt x="419" y="206" on="1"/>
        <pt x="388" y="187" on="0"/>
        <pt x="261" y="107" on="0"/>
        <pt x="230" y="87" on="1"/>
        <pt x="230" y="71" on="0"/>
        <pt x="238" y="66" on="1"/>
        <pt x="328" y="43" on="0"/>
        <pt x="399" y="43" on="1"/>
        <pt x="608" y="43" on="0"/>
      </contour>
      <contour>
        <pt x="3026" y="288" on="1"/>
        <pt x="3026" y="301" on="0"/>
        <pt x="3003" y="342" on="1"/>
        <pt x="2977" y="391" on="0"/>
        <pt x="2954" y="391" on="1"/>
        <pt x="2929" y="391" on="0"/>
        <pt x="2821" y="283" on="0"/>
        <pt x="2821" y="253" on="1"/>
        <pt x="2821" y="236" on="0"/>
        <pt x="2876" y="186" on="0"/>
        <pt x="2893" y="186" on="1"/>
        <pt x="2907" y="186" on="0"/>
        <pt x="2962" y="220" on="1"/>
        <pt x="3026" y="259" on="0"/>
      </contour>
      <contour>
        <pt x="1132" y="256" on="1"/>
        <pt x="1109" y="337" on="0"/>
        <pt x="1086" y="370" on="1"/>
        <pt x="1018" y="333" on="0"/>
        <pt x="949" y="297" on="1"/>
        <pt x="871" y="252" on="0"/>
        <pt x="866" y="220" on="1"/>
        <pt x="957" y="197" on="0"/>
        <pt x="988" y="197" on="1"/>
        <pt x="1084" y="197" on="0"/>
      </contour>
    </TTGlyph>
    <TTGlyph name="uni2011" xMin="128" yMin="-540" xMax="4151" yMax="1650">
      <contour>
        <pt x="3619" y="1613" on="1"/>
        <pt x="3619" y="1575" on="0"/>
        <pt x="3507" y="1514" on="1"/>
        <pt x="3444" y="1484" on="0"/>
        <pt x="3381" y="1452" on="1"/>
        <pt x="3286" y="1398" on="0"/>
        <pt x="3089" y="1303" on="1"/>
        <pt x="3089" y="1307" on="0"/>
        <pt x="3077" y="1323" on="0"/>
        <pt x="3077" y="1338" on="1"/>
        <pt x="3077" y="1386" on="0"/>
        <pt x="3121" y="1411" on="1"/>
        <pt x="3550" y="1650" on="0"/>
        <pt x="3574" y="1649" on="1"/>
        <pt x="3619" y="1649" on="1"/>
      </contour>
      <contour>
        <pt x="3004" y="1490" on="1"/>
        <pt x="3005" y="1461" on="0"/>
        <pt x="2893" y="1398" on="1"/>
        <pt x="2792" y="1341" on="0"/>
        <pt x="2736" y="1325" on="1"/>
        <pt x="2726" y="1323" on="0"/>
        <pt x="2682" y="1323" on="1"/>
        <pt x="2656" y="1323" on="0"/>
        <pt x="2586" y="1346" on="1"/>
        <pt x="2596" y="1378" on="0"/>
        <pt x="2679" y="1401" on="1"/>
        <pt x="2767" y="1425" on="0"/>
        <pt x="2790" y="1461" on="1"/>
        <pt x="2784" y="1487" on="0"/>
        <pt x="2744" y="1487" on="1"/>
        <pt x="2740" y="1487" on="0"/>
        <pt x="2606" y="1440" on="1"/>
        <pt x="2586" y="1455" on="1"/>
        <pt x="2604" y="1511" on="0"/>
        <pt x="2726" y="1599" on="0"/>
        <pt x="2780" y="1599" on="1"/>
        <pt x="2790" y="1599" on="0"/>
        <pt x="2875" y="1571" on="1"/>
        <pt x="2965" y="1542" on="0"/>
        <pt x="3004" y="1536" on="1"/>
      </contour>
      <contour>
        <pt x="3538" y="714" on="1"/>
        <pt x="3489" y="616" on="0"/>
        <pt x="3435" y="616" on="1"/>
        <pt x="3385" y="616" on="0"/>
        <pt x="3333" y="693" on="1"/>
        <pt x="3342" y="717" on="0"/>
        <pt x="3367" y="758" on="1"/>
        <pt x="3400" y="791" on="0"/>
        <pt x="3435" y="791" on="1"/>
        <pt x="3461" y="791" on="0"/>
      </contour>
      <contour>
        <pt x="4151" y="-19" on="1"/>
        <pt x="4145" y="-43" on="0"/>
        <pt x="4136" y="-77" on="1"/>
        <pt x="3979" y="-186" on="0"/>
        <pt x="3633" y="-284" on="1"/>
        <pt x="3619" y="-270" on="0"/>
        <pt x="3619" y="-249" on="1"/>
        <pt x="3619" y="-207" on="0"/>
        <pt x="3664" y="-186" on="1"/>
        <pt x="3763" y="-139" on="0"/>
        <pt x="3914" y="-80" on="1"/>
        <pt x="4068" y="-18" on="0"/>
        <pt x="4086" y="-19" on="1"/>
      </contour>
      <contour>
        <pt x="2893" y="795" on="1"/>
        <pt x="2893" y="767" on="0"/>
        <pt x="2828" y="698" on="0"/>
        <pt x="2811" y="698" on="1"/>
        <pt x="2803" y="698" on="0"/>
        <pt x="2719" y="750" on="1"/>
        <pt x="2717" y="776" on="0"/>
        <pt x="2746" y="827" on="1"/>
        <pt x="2778" y="882" on="0"/>
        <pt x="2805" y="882" on="1"/>
        <pt x="2825" y="882" on="0"/>
        <pt x="2893" y="814" on="0"/>
      </contour>
      <contour>
        <pt x="3977" y="253" on="1"/>
        <pt x="3977" y="162" on="0"/>
        <pt x="3971" y="142" on="1"/>
        <pt x="3962" y="116" on="0"/>
        <pt x="3901" y="34" on="1"/>
        <pt x="3869" y="-8" on="0"/>
        <pt x="3773" y="-8" on="1"/>
        <pt x="3704" y="-8" on="0"/>
        <pt x="3540" y="74" on="0"/>
        <pt x="3522" y="74" on="1"/>
        <pt x="3504" y="74" on="0"/>
        <pt x="3495" y="65" on="1"/>
        <pt x="3466" y="36" on="0"/>
        <pt x="3401" y="-5" on="1"/>
        <pt x="3278" y="-49" on="0"/>
        <pt x="3143" y="-49" on="1"/>
        <pt x="3130" y="-49" on="0"/>
        <pt x="2854" y="22" on="0"/>
        <pt x="2841" y="22" on="1"/>
        <pt x="2828" y="22" on="0"/>
        <pt x="2593" y="-28" on="0"/>
        <pt x="2580" y="-28" on="1"/>
        <pt x="2524" y="-28" on="0"/>
        <pt x="2455" y="-5" on="1"/>
        <pt x="2450" y="-4" on="0"/>
        <pt x="2422" y="20" on="1"/>
        <pt x="2396" y="43" on="0"/>
        <pt x="2381" y="43" on="1"/>
        <pt x="2374" y="43" on="0"/>
        <pt x="2333" y="10" on="1"/>
        <pt x="2287" y="-27" on="0"/>
        <pt x="2254" y="-36" on="1"/>
        <pt x="2244" y="-39" on="0"/>
        <pt x="2191" y="-39" on="1"/>
        <pt x="2178" y="-39" on="0"/>
        <pt x="2086" y="-18" on="0"/>
        <pt x="2074" y="-18" on="1"/>
        <pt x="2060" y="-18" on="0"/>
        <pt x="1958" y="-39" on="0"/>
        <pt x="1946" y="-39" on="1"/>
        <pt x="1934" y="-39" on="0"/>
        <pt x="1810" y="-18" on="0"/>
        <pt x="1797" y="-18" on="1"/>
        <pt x="1784" y="-18" on="0"/>
        <pt x="1508" y="-69" on="0"/>
        <pt x="1495" y="-69" on="1"/>
        <pt x="1465" y="-69" on="0"/>
        <pt x="1360" y="-36" on="1"/>
        <pt x="1263" y="-4" on="0"/>
        <pt x="1155" y="156" on="1"/>
        <pt x="1121" y="132" on="0"/>
        <pt x="1058" y="88" on="1"/>
        <pt x="1008" y="53" on="0"/>
        <pt x="911" y="53" on="1"/>
        <pt x="848" y="53" on="0"/>
        <pt x="787" y="71" on="1"/>
        <pt x="701" y="97" on="0"/>
        <pt x="701" y="145" on="1"/>
        <pt x="701" y="158" on="0"/>
        <pt x="716" y="176" on="1"/>
        <pt x="737" y="202" on="0"/>
        <pt x="739" y="204" on="1"/>
        <pt x="793" y="300" on="0"/>
        <pt x="911" y="374" on="1"/>
        <pt x="1039" y="454" on="0"/>
        <pt x="1073" y="501" on="1"/>
        <pt x="1074" y="525" on="0"/>
        <pt x="1071" y="567" on="1"/>
        <pt x="1067" y="615" on="0"/>
        <pt x="1067" y="632" on="1"/>
        <pt x="1067" y="702" on="0"/>
        <pt x="1105" y="739" on="1"/>
        <pt x="1113" y="733" on="0"/>
        <pt x="1127" y="723" on="1"/>
        <pt x="1164" y="556" on="0"/>
        <pt x="1246" y="254" on="1"/>
        <pt x="1268" y="191" on="0"/>
        <pt x="1333" y="157" on="1"/>
        <pt x="1379" y="135" on="0"/>
        <pt x="1460" y="113" on="1"/>
        <pt x="1533" y="94" on="0"/>
        <pt x="1557" y="94" on="1"/>
        <pt x="1703" y="94" on="0"/>
        <pt x="1779" y="137" on="1"/>
        <pt x="1793" y="145" on="0"/>
        <pt x="1818" y="183" on="1"/>
        <pt x="1856" y="240" on="0"/>
        <pt x="1862" y="247" on="1"/>
        <pt x="1893" y="236" on="0"/>
        <pt x="1893" y="206" on="1"/>
        <pt x="1893" y="193" on="0"/>
        <pt x="1879" y="140" on="0"/>
        <pt x="1879" y="130" on="1"/>
        <pt x="1879" y="97" on="0"/>
        <pt x="1902" y="93" on="1"/>
        <pt x="1895" y="94" on="0"/>
        <pt x="1946" y="94" on="1"/>
        <pt x="2016" y="94" on="0"/>
        <pt x="2087" y="127" on="1"/>
        <pt x="2098" y="132" on="0"/>
        <pt x="2174" y="242" on="0"/>
        <pt x="2201" y="258" on="1"/>
        <pt x="2232" y="242" on="0"/>
        <pt x="2232" y="215" on="1"/>
        <pt x="2232" y="201" on="0"/>
        <pt x="2220" y="173" on="1"/>
        <pt x="2208" y="143" on="0"/>
        <pt x="2206" y="132" on="1"/>
        <pt x="2224" y="115" on="0"/>
        <pt x="2242" y="115" on="1"/>
        <pt x="2322" y="115" on="0"/>
        <pt x="2364" y="202" on="1"/>
        <pt x="2409" y="292" on="0"/>
        <pt x="2449" y="298" on="1"/>
        <pt x="2456" y="289" on="0"/>
        <pt x="2456" y="270" on="1"/>
        <pt x="2456" y="250" on="0"/>
        <pt x="2445" y="211" on="1"/>
        <pt x="2432" y="167" on="0"/>
        <pt x="2432" y="162" on="1"/>
        <pt x="2459" y="135" on="0"/>
        <pt x="2529" y="135" on="1"/>
        <pt x="2542" y="135" on="0"/>
        <pt x="2598" y="125" on="0"/>
        <pt x="2611" y="125" on="1"/>
        <pt x="2699" y="125" on="0"/>
        <pt x="2725" y="152" on="1"/>
        <pt x="2731" y="273" on="0"/>
        <pt x="2763" y="337" on="1"/>
        <pt x="2787" y="387" on="0"/>
        <pt x="2859" y="463" on="1"/>
        <pt x="2945" y="555" on="0"/>
        <pt x="2995" y="555" on="1"/>
        <pt x="3054" y="555" on="0"/>
        <pt x="3095" y="473" on="1"/>
        <pt x="3128" y="408" on="0"/>
        <pt x="3128" y="356" on="1"/>
        <pt x="3128" y="224" on="0"/>
        <pt x="3068" y="179" on="1"/>
        <pt x="3056" y="129" on="0"/>
        <pt x="3056" y="142" on="1"/>
        <pt x="3079" y="115" on="0"/>
        <pt x="3180" y="115" on="1"/>
        <pt x="3374" y="115" on="0"/>
        <pt x="3437" y="167" on="1"/>
        <pt x="3533" y="247" on="0"/>
        <pt x="3542" y="247" on="1"/>
        <pt x="3536" y="247" on="0"/>
        <pt x="3744" y="156" on="0"/>
        <pt x="3788" y="156" on="1"/>
        <pt x="3823" y="156" on="0"/>
        <pt x="3866" y="182" on="1"/>
        <pt x="3855" y="453" on="0"/>
        <pt x="3769" y="866" on="1"/>
        <pt x="3766" y="881" on="0"/>
        <pt x="3737" y="928" on="1"/>
        <pt x="3711" y="971" on="0"/>
        <pt x="3711" y="990" on="1"/>
        <pt x="3711" y="1050" on="0"/>
        <pt x="3787" y="1205" on="1"/>
        <pt x="3799" y="1208" on="0"/>
        <pt x="3820" y="1220" on="1"/>
        <pt x="3828" y="1173" on="0"/>
        <pt x="3847" y="1083" on="1"/>
        <pt x="3851" y="1068" on="0"/>
        <pt x="3882" y="1046" on="1"/>
        <pt x="3926" y="1014" on="0"/>
        <pt x="3927" y="1013" on="1"/>
        <pt x="3922" y="990" on="0"/>
        <pt x="3897" y="927" on="1"/>
        <pt x="3875" y="870" on="0"/>
        <pt x="3875" y="857" on="1"/>
        <pt x="3875" y="844" on="0"/>
        <pt x="3977" y="265" on="0"/>
      </contour>
      <contour>
        <pt x="2400" y="-205" on="1"/>
        <pt x="2391" y="-235" on="0"/>
        <pt x="2364" y="-273" on="1"/>
        <pt x="2278" y="-321" on="0"/>
        <pt x="2133" y="-384" on="1"/>
        <pt x="1918" y="-478" on="0"/>
        <pt x="1895" y="-489" on="1"/>
        <pt x="1851" y="-489" on="1"/>
        <pt x="1844" y="-476" on="0"/>
        <pt x="1828" y="-454" on="1"/>
        <pt x="1842" y="-426" on="0"/>
        <pt x="1871" y="-391" on="1"/>
        <pt x="1973" y="-340" on="0"/>
        <pt x="2344" y="-192" on="1"/>
      </contour>
      <contour>
        <pt x="1417" y="-194" on="1"/>
        <pt x="1413" y="-225" on="0"/>
        <pt x="1392" y="-272" on="1"/>
        <pt x="1344" y="-321" on="0"/>
        <pt x="1292" y="-343" on="1"/>
        <pt x="1159" y="-398" on="0"/>
        <pt x="872" y="-540" on="1"/>
        <pt x="837" y="-540" on="1"/>
        <pt x="824" y="-526" on="0"/>
        <pt x="824" y="-510" on="1"/>
        <pt x="824" y="-456" on="0"/>
        <pt x="868" y="-432" on="1"/>
        <pt x="898" y="-416" on="0"/>
        <pt x="1227" y="-272" on="1"/>
        <pt x="1273" y="-242" on="0"/>
        <pt x="1361" y="-194" on="1"/>
      </contour>
      <contour>
        <pt x="660" y="33" on="1"/>
        <pt x="643" y="20" on="0"/>
        <pt x="605" y="5" on="1"/>
        <pt x="376" y="-28" on="0"/>
        <pt x="302" y="-28" on="1"/>
        <pt x="254" y="-28" on="0"/>
        <pt x="200" y="-11" on="1"/>
        <pt x="128" y="11" on="0"/>
        <pt x="128" y="48" on="1"/>
        <pt x="128" y="67" on="0"/>
        <pt x="151" y="103" on="1"/>
        <pt x="175" y="143" on="0"/>
        <pt x="202" y="161" on="1"/>
        <pt x="251" y="175" on="0"/>
        <pt x="345" y="229" on="1"/>
        <pt x="367" y="252" on="0"/>
        <pt x="389" y="276" on="1"/>
        <pt x="420" y="309" on="0"/>
        <pt x="435" y="309" on="1"/>
        <pt x="487" y="309" on="0"/>
        <pt x="487" y="217" on="1"/>
        <pt x="487" y="179" on="0"/>
        <pt x="474" y="156" on="1"/>
        <pt x="444" y="156" on="0"/>
        <pt x="419" y="206" on="1"/>
        <pt x="388" y="187" on="0"/>
        <pt x="261" y="107" on="0"/>
        <pt x="230" y="87" on="1"/>
        <pt x="230" y="71" on="0"/>
        <pt x="238" y="66" on="1"/>
        <pt x="328" y="43" on="0"/>
        <pt x="399" y="43" on="1"/>
        <pt x="608" y="43" on="0"/>
      </contour>
      <contour>
        <pt x="3026" y="288" on="1"/>
        <pt x="3026" y="301" on="0"/>
        <pt x="3003" y="342" on="1"/>
        <pt x="2977" y="391" on="0"/>
        <pt x="2954" y="391" on="1"/>
        <pt x="2929" y="391" on="0"/>
        <pt x="2821" y="283" on="0"/>
        <pt x="2821" y="253" on="1"/>
        <pt x="2821" y="236" on="0"/>
        <pt x="2876" y="186" on="0"/>
        <pt x="2893" y="186" on="1"/>
        <pt x="2907" y="186" on="0"/>
        <pt x="2962" y="220" on="1"/>
        <pt x="3026" y="259" on="0"/>
      </contour>
      <contour>
        <pt x="1132" y="256" on="1"/>
        <pt x="1109" y="337" on="0"/>
        <pt x="1086" y="370" on="1"/>
        <pt x="1018" y="333" on="0"/>
        <pt x="949" y="297" on="1"/>
        <pt x="871" y="252" on="0"/>
        <pt x="866" y="220" on="1"/>
        <pt x="957" y="197" on="0"/>
        <pt x="988" y="197" on="1"/>
        <pt x="1084" y="197" on="0"/>
      </contour>
    </TTGlyph>
    <TTGlyph name="uniE000" xMin="0" yMin="0" xMax="1785" yMax="1785">
      <contour>
        <pt x="0" y="1785" on="1"/>
        <pt x="1785" y="1785" on="1"/>
        <pt x="1785" y="0" on="1"/>
        <pt x="0" y="0" on="1"/>
      </contour>
    </TTGlyph>
    <TTGlyph name="uniFB51" xMin="419" yMin="-371" xMax="3061" yMax="1707">
      <contour>
        <pt x="3061" y="1529" on="1"/>
        <pt x="3061" y="1480" on="0"/>
        <pt x="3018" y="1455" on="1"/>
        <pt x="2878" y="1376" on="0"/>
        <pt x="2606" y="1217" on="1"/>
        <pt x="2572" y="1217" on="1"/>
        <pt x="2559" y="1230" on="0"/>
        <pt x="2559" y="1252" on="1"/>
        <pt x="2559" y="1296" on="0"/>
        <pt x="2747" y="1412" on="1"/>
        <pt x="2875" y="1488" on="0"/>
        <pt x="3003" y="1564" on="1"/>
        <pt x="3048" y="1564" on="1"/>
        <pt x="3061" y="1551" on="0"/>
      </contour>
      <contour>
        <pt x="2436" y="1661" on="1"/>
        <pt x="2436" y="1606" on="0"/>
        <pt x="2231" y="1488" on="1"/>
        <pt x="1973" y="1338" on="0"/>
        <pt x="1952" y="1320" on="1"/>
        <pt x="1916" y="1320" on="1"/>
        <pt x="1916" y="1323" on="0"/>
        <pt x="1904" y="1350" on="0"/>
        <pt x="1904" y="1365" on="1"/>
        <pt x="1904" y="1404" on="0"/>
        <pt x="1937" y="1426" on="1"/>
        <pt x="2027" y="1487" on="0"/>
        <pt x="2379" y="1687" on="1"/>
        <pt x="2424" y="1687" on="1"/>
        <pt x="2436" y="1685" on="0"/>
      </contour>
      <contour>
        <pt x="1863" y="1672" on="1"/>
        <pt x="1863" y="1629" on="0"/>
        <pt x="1830" y="1609" on="1"/>
        <pt x="1676" y="1520" on="0"/>
        <pt x="1368" y="1330" on="1"/>
        <pt x="1323" y="1330" on="1"/>
        <pt x="1310" y="1343" on="0"/>
        <pt x="1310" y="1360" on="1"/>
        <pt x="1310" y="1407" on="0"/>
        <pt x="1432" y="1479" on="1"/>
        <pt x="1495" y="1512" on="0"/>
        <pt x="1559" y="1546" on="1"/>
        <pt x="1652" y="1601" on="0"/>
        <pt x="1838" y="1707" on="1"/>
        <pt x="1863" y="1683" on="0"/>
      </contour>
      <contour>
        <pt x="2999" y="182" on="1"/>
        <pt x="2999" y="109" on="0"/>
        <pt x="2923" y="-60" on="1"/>
        <pt x="2909" y="-76" on="0"/>
        <pt x="2888" y="-102" on="1"/>
        <pt x="2814" y="-236" on="0"/>
        <pt x="2684" y="-308" on="1"/>
        <pt x="2573" y="-371" on="0"/>
        <pt x="2456" y="-371" on="1"/>
        <pt x="2246" y="-371" on="0"/>
        <pt x="2068" y="-285" on="1"/>
        <pt x="2080" y="-258" on="1"/>
        <pt x="2125" y="-252" on="0"/>
        <pt x="2226" y="-259" on="1"/>
        <pt x="2347" y="-268" on="0"/>
        <pt x="2333" y="-268" on="1"/>
        <pt x="2684" y="-268" on="0"/>
        <pt x="2897" y="116" on="1"/>
        <pt x="2890" y="152" on="1"/>
        <pt x="2802" y="90" on="0"/>
        <pt x="2784" y="90" on="1"/>
        <pt x="2732" y="90" on="0"/>
        <pt x="2685" y="143" on="1"/>
        <pt x="2641" y="190" on="0"/>
        <pt x="2641" y="229" on="1"/>
        <pt x="2641" y="288" on="0"/>
        <pt x="2681" y="385" on="1"/>
        <pt x="2733" y="510" on="0"/>
        <pt x="2805" y="510" on="1"/>
        <pt x="2877" y="510" on="0"/>
        <pt x="2945" y="354" on="1"/>
        <pt x="2999" y="228" on="0"/>
      </contour>
      <contour>
        <pt x="1812" y="894" on="1"/>
        <pt x="1812" y="867" on="0"/>
        <pt x="1746" y="796" on="0"/>
        <pt x="1725" y="796" on="1"/>
        <pt x="1713" y="796" on="0"/>
        <pt x="1656" y="827" on="0"/>
        <pt x="1643" y="827" on="1"/>
        <pt x="1630" y="827" on="0"/>
        <pt x="1559" y="755" on="0"/>
        <pt x="1545" y="755" on="1"/>
        <pt x="1511" y="755" on="0"/>
        <pt x="1479" y="800" on="1"/>
        <pt x="1454" y="835" on="0"/>
        <pt x="1454" y="848" on="1"/>
        <pt x="1454" y="866" on="0"/>
        <pt x="1522" y="950" on="0"/>
        <pt x="1540" y="950" on="1"/>
        <pt x="1550" y="950" on="0"/>
        <pt x="1609" y="909" on="0"/>
        <pt x="1627" y="909" on="1"/>
        <pt x="1640" y="909" on="0"/>
        <pt x="1702" y="971" on="0"/>
        <pt x="1714" y="971" on="1"/>
        <pt x="1742" y="971" on="0"/>
        <pt x="1778" y="938" on="1"/>
        <pt x="1812" y="908" on="0"/>
      </contour>
      <contour>
        <pt x="1054" y="1456" on="1"/>
        <pt x="1054" y="1412" on="0"/>
        <pt x="919" y="1347" on="1"/>
        <pt x="797" y="1288" on="0"/>
        <pt x="762" y="1288" on="1"/>
        <pt x="751" y="1288" on="0"/>
        <pt x="719" y="1298" on="0"/>
        <pt x="709" y="1298" on="1"/>
        <pt x="696" y="1311" on="1"/>
        <pt x="696" y="1348" on="1"/>
        <pt x="738" y="1379" on="0"/>
        <pt x="840" y="1419" on="1"/>
        <pt x="845" y="1452" on="0"/>
        <pt x="808" y="1452" on="1"/>
        <pt x="794" y="1452" on="0"/>
        <pt x="755" y="1435" on="1"/>
        <pt x="707" y="1416" on="0"/>
        <pt x="689" y="1411" on="1"/>
        <pt x="675" y="1425" on="0"/>
        <pt x="675" y="1442" on="1"/>
        <pt x="675" y="1478" on="0"/>
        <pt x="751" y="1524" on="1"/>
        <pt x="818" y="1565" on="0"/>
        <pt x="844" y="1565" on="1"/>
        <pt x="880" y="1565" on="0"/>
        <pt x="1054" y="1490" on="1"/>
      </contour>
      <contour>
        <pt x="2344" y="295" on="1"/>
        <pt x="2344" y="114" on="0"/>
        <pt x="2250" y="44" on="1"/>
        <pt x="2173" y="-12" on="0"/>
        <pt x="1996" y="-12" on="1"/>
        <pt x="1984" y="-12" on="0"/>
        <pt x="1716" y="39" on="0"/>
        <pt x="1704" y="39" on="1"/>
        <pt x="1694" y="39" on="0"/>
        <pt x="1610" y="13" on="1"/>
        <pt x="1519" y="-14" on="0"/>
        <pt x="1480" y="-19" on="1"/>
        <pt x="1388" y="-32" on="0"/>
        <pt x="1290" y="-32" on="1"/>
        <pt x="1123" y="-32" on="0"/>
        <pt x="1007" y="182" on="1"/>
        <pt x="961" y="137" on="0"/>
        <pt x="867" y="62" on="1"/>
        <pt x="803" y="25" on="0"/>
        <pt x="763" y="21" on="1"/>
        <pt x="730" y="18" on="0"/>
        <pt x="660" y="2" on="1"/>
        <pt x="595" y="-12" on="0"/>
        <pt x="583" y="-12" on="1"/>
        <pt x="524" y="-12" on="0"/>
        <pt x="473" y="17" on="1"/>
        <pt x="419" y="48" on="0"/>
        <pt x="419" y="90" on="1"/>
        <pt x="419" y="123" on="0"/>
        <pt x="444" y="159" on="1"/>
        <pt x="466" y="193" on="0"/>
        <pt x="480" y="193" on="1"/>
        <pt x="494" y="193" on="0"/>
        <pt x="616" y="141" on="0"/>
        <pt x="630" y="141" on="1"/>
        <pt x="667" y="141" on="0"/>
        <pt x="833" y="184" on="1"/>
        <pt x="861" y="192" on="0"/>
        <pt x="915" y="242" on="1"/>
        <pt x="972" y="297" on="0"/>
        <pt x="972" y="325" on="1"/>
        <pt x="972" y="335" on="0"/>
        <pt x="945" y="434" on="1"/>
        <pt x="914" y="547" on="0"/>
        <pt x="903" y="606" on="1"/>
        <pt x="901" y="621" on="0"/>
        <pt x="901" y="658" on="1"/>
        <pt x="901" y="741" on="0"/>
        <pt x="934" y="827" on="1"/>
        <pt x="973" y="805" on="0"/>
        <pt x="990" y="718" on="1"/>
        <pt x="1003" y="648" on="0"/>
        <pt x="1015" y="578" on="1"/>
        <pt x="1054" y="440" on="0"/>
        <pt x="1092" y="302" on="1"/>
        <pt x="1126" y="201" on="0"/>
        <pt x="1182" y="167" on="1"/>
        <pt x="1242" y="131" on="0"/>
        <pt x="1386" y="131" on="1"/>
        <pt x="1472" y="131" on="0"/>
        <pt x="1482" y="132" on="1"/>
        <pt x="1545" y="140" on="0"/>
        <pt x="1583" y="179" on="1"/>
        <pt x="1581" y="186" on="0"/>
        <pt x="1581" y="197" on="1"/>
        <pt x="1581" y="283" on="0"/>
        <pt x="1677" y="424" on="1"/>
        <pt x="1780" y="571" on="0"/>
        <pt x="1863" y="571" on="1"/>
        <pt x="1930" y="571" on="0"/>
        <pt x="1969" y="464" on="1"/>
        <pt x="1996" y="390" on="0"/>
        <pt x="1996" y="336" on="1"/>
        <pt x="1996" y="306" on="0"/>
        <pt x="1934" y="169" on="1"/>
        <pt x="1986" y="152" on="0"/>
        <pt x="2021" y="152" on="1"/>
        <pt x="2086" y="152" on="0"/>
        <pt x="2156" y="170" on="1"/>
        <pt x="2252" y="194" on="0"/>
        <pt x="2252" y="238" on="1"/>
        <pt x="2252" y="203" on="0"/>
        <pt x="2197" y="565" on="1"/>
        <pt x="2177" y="658" on="0"/>
        <pt x="2146" y="831" on="1"/>
        <pt x="2143" y="850" on="0"/>
        <pt x="2120" y="901" on="1"/>
        <pt x="2098" y="949" on="0"/>
        <pt x="2098" y="960" on="1"/>
        <pt x="2098" y="976" on="0"/>
        <pt x="2134" y="1050" on="1"/>
        <pt x="2187" y="1161" on="0"/>
        <pt x="2193" y="1174" on="1"/>
        <pt x="2229" y="1174" on="1"/>
        <pt x="2241" y="1138" on="0"/>
        <pt x="2244" y="1039" on="1"/>
        <pt x="2259" y="1019" on="0"/>
        <pt x="2288" y="993" on="1"/>
        <pt x="2303" y="981" on="0"/>
        <pt x="2303" y="960" on="1"/>
        <pt x="2303" y="891" on="0"/>
        <pt x="2251" y="881" on="1"/>
        <pt x="2256" y="845" on="0"/>
        <pt x="2310" y="572" on="1"/>
        <pt x="2344" y="397" on="0"/>
      </contour>
      <contour>
        <pt x="2835" y="277" on="1"/>
        <pt x="2824" y="306" on="0"/>
        <pt x="2803" y="355" on="1"/>
        <pt x="2755" y="355" on="1"/>
        <pt x="2755" y="351" on="0"/>
        <pt x="2743" y="330" on="0"/>
        <pt x="2743" y="315" on="1"/>
        <pt x="2743" y="264" on="0"/>
        <pt x="2790" y="264" on="1"/>
        <pt x="2805" y="264" on="0"/>
        <pt x="2832" y="277" on="0"/>
      </contour>
      <contour>
        <pt x="1894" y="305" on="1"/>
        <pt x="1894" y="322" on="0"/>
        <pt x="1876" y="354" on="1"/>
        <pt x="1851" y="397" on="0"/>
        <pt x="1817" y="397" on="1"/>
        <pt x="1786" y="397" on="0"/>
        <pt x="1741" y="343" on="1"/>
        <pt x="1699" y="293" on="0"/>
        <pt x="1699" y="274" on="1"/>
        <pt x="1699" y="266" on="0"/>
        <pt x="1722" y="247" on="1"/>
        <pt x="1748" y="223" on="0"/>
        <pt x="1771" y="223" on="1"/>
        <pt x="1785" y="223" on="0"/>
        <pt x="1834" y="247" on="1"/>
        <pt x="1894" y="278" on="0"/>
      </contour>
    </TTGlyph>
    <TTGlyph name="uniFB52" xMin="317" yMin="-372" xMax="2846" yMax="1653">
      <contour>
        <pt x="2764" y="1532" on="1"/>
        <pt x="2764" y="1491" on="0"/>
        <pt x="2656" y="1421" on="1"/>
        <pt x="2596" y="1388" on="0"/>
        <pt x="2536" y="1354" on="1"/>
        <pt x="2449" y="1300" on="0"/>
        <pt x="2279" y="1194" on="1"/>
        <pt x="2245" y="1194" on="1"/>
        <pt x="2232" y="1208" on="0"/>
        <pt x="2232" y="1230" on="1"/>
        <pt x="2232" y="1276" on="0"/>
        <pt x="2396" y="1375" on="1"/>
        <pt x="2484" y="1424" on="0"/>
        <pt x="2572" y="1472" on="1"/>
        <pt x="2612" y="1500" on="0"/>
        <pt x="2707" y="1562" on="1"/>
        <pt x="2751" y="1562" on="1"/>
        <pt x="2764" y="1548" on="0"/>
      </contour>
      <contour>
        <pt x="1873" y="1607" on="1"/>
        <pt x="1873" y="1549" on="0"/>
        <pt x="1715" y="1455" on="1"/>
        <pt x="1629" y="1410" on="0"/>
        <pt x="1543" y="1365" on="1"/>
        <pt x="1517" y="1346" on="0"/>
        <pt x="1461" y="1307" on="1"/>
        <pt x="1425" y="1307" on="1"/>
        <pt x="1425" y="1311" on="0"/>
        <pt x="1413" y="1327" on="0"/>
        <pt x="1413" y="1342" on="1"/>
        <pt x="1413" y="1354" on="0"/>
        <pt x="1425" y="1386" on="0"/>
        <pt x="1426" y="1393" on="1"/>
        <pt x="1565" y="1472" on="0"/>
        <pt x="1836" y="1643" on="1"/>
        <pt x="1873" y="1643" on="1"/>
      </contour>
      <contour>
        <pt x="2845" y="163" on="1"/>
        <pt x="2846" y="147" on="0"/>
        <pt x="2771" y="88" on="0"/>
        <pt x="2740" y="80" on="1"/>
        <pt x="2693" y="79" on="0"/>
        <pt x="2597" y="64" on="1"/>
        <pt x="2544" y="50" on="0"/>
        <pt x="2401" y="-45" on="1"/>
        <pt x="2386" y="-33" on="0"/>
        <pt x="2376" y="-33" on="1"/>
        <pt x="2376" y="0" on="1"/>
        <pt x="2376" y="11" on="0"/>
        <pt x="2417" y="61" on="0"/>
        <pt x="2417" y="70" on="1"/>
        <pt x="2345" y="143" on="0"/>
        <pt x="2345" y="165" on="1"/>
        <pt x="2345" y="219" on="0"/>
        <pt x="2566" y="426" on="0"/>
        <pt x="2616" y="426" on="1"/>
        <pt x="2657" y="426" on="0"/>
        <pt x="2723" y="363" on="1"/>
        <pt x="2724" y="328" on="0"/>
        <pt x="2699" y="288" on="1"/>
        <pt x="2672" y="242" on="0"/>
        <pt x="2641" y="242" on="1"/>
        <pt x="2618" y="242" on="0"/>
        <pt x="2560" y="292" on="0"/>
        <pt x="2549" y="292" on="1"/>
        <pt x="2535" y="292" on="0"/>
        <pt x="2487" y="245" on="1"/>
        <pt x="2487" y="220" on="0"/>
        <pt x="2516" y="202" on="1"/>
        <pt x="2571" y="170" on="0"/>
        <pt x="2631" y="170" on="1"/>
        <pt x="2642" y="170" on="0"/>
        <pt x="2709" y="181" on="1"/>
        <pt x="2789" y="193" on="0"/>
        <pt x="2845" y="199" on="1"/>
      </contour>
      <contour>
        <pt x="2171" y="160" on="1"/>
        <pt x="2171" y="39" on="0"/>
        <pt x="2102" y="-4" on="1"/>
        <pt x="1976" y="999" on="1"/>
        <pt x="1976" y="1024" on="0"/>
        <pt x="2009" y="1140" on="1"/>
        <pt x="2021" y="1146" on="0"/>
        <pt x="2042" y="1163" on="1"/>
        <pt x="2070" y="1135" on="0"/>
        <pt x="2074" y="1108" on="1"/>
        <pt x="2104" y="904" on="0"/>
        <pt x="2140" y="524" on="1"/>
        <pt x="2171" y="199" on="0"/>
      </contour>
      <contour>
        <pt x="1381" y="1474" on="1"/>
        <pt x="1382" y="1419" on="0"/>
        <pt x="1246" y="1353" on="1"/>
        <pt x="1128" y="1296" on="0"/>
        <pt x="1080" y="1296" on="1"/>
        <pt x="1048" y="1296" on="0"/>
        <pt x="1024" y="1320" on="1"/>
        <pt x="1025" y="1345" on="0"/>
        <pt x="1084" y="1371" on="1"/>
        <pt x="1152" y="1400" on="0"/>
        <pt x="1167" y="1425" on="1"/>
        <pt x="1157" y="1450" on="0"/>
        <pt x="1126" y="1450" on="1"/>
        <pt x="1112" y="1450" on="0"/>
        <pt x="1081" y="1439" on="1"/>
        <pt x="1041" y="1424" on="0"/>
        <pt x="1025" y="1420" on="1"/>
        <pt x="1025" y="1453" on="1"/>
        <pt x="1024" y="1473" on="0"/>
        <pt x="1130" y="1562" on="0"/>
        <pt x="1152" y="1562" on="1"/>
        <pt x="1163" y="1562" on="0"/>
        <pt x="1249" y="1539" on="1"/>
        <pt x="1343" y="1515" on="0"/>
        <pt x="1381" y="1509" on="1"/>
      </contour>
      <contour>
        <pt x="1761" y="748" on="1"/>
        <pt x="1761" y="731" on="0"/>
        <pt x="1696" y="651" on="0"/>
        <pt x="1679" y="651" on="1"/>
        <pt x="1642" y="651" on="0"/>
        <pt x="1612" y="684" on="1"/>
        <pt x="1587" y="712" on="0"/>
        <pt x="1587" y="733" on="1"/>
        <pt x="1587" y="747" on="0"/>
        <pt x="1628" y="808" on="0"/>
        <pt x="1628" y="820" on="1"/>
        <pt x="1628" y="833" on="0"/>
        <pt x="1566" y="899" on="0"/>
        <pt x="1566" y="912" on="1"/>
        <pt x="1566" y="936" on="0"/>
        <pt x="1606" y="974" on="1"/>
        <pt x="1645" y="1009" on="0"/>
        <pt x="1664" y="1009" on="1"/>
        <pt x="1707" y="1009" on="0"/>
        <pt x="1736" y="965" on="1"/>
        <pt x="1738" y="958" on="0"/>
        <pt x="1738" y="950" on="1"/>
        <pt x="1738" y="935" on="0"/>
        <pt x="1728" y="912" on="1"/>
        <pt x="1715" y="884" on="0"/>
        <pt x="1712" y="870" on="1"/>
        <pt x="1708" y="848" on="0"/>
        <pt x="1761" y="758" on="0"/>
      </contour>
      <contour>
        <pt x="941" y="1617" on="1"/>
        <pt x="942" y="1584" on="0"/>
        <pt x="732" y="1455" on="1"/>
        <pt x="534" y="1333" on="0"/>
        <pt x="474" y="1316" on="1"/>
        <pt x="460" y="1330" on="0"/>
        <pt x="460" y="1348" on="1"/>
        <pt x="460" y="1398" on="0"/>
        <pt x="644" y="1509" on="1"/>
        <pt x="769" y="1581" on="0"/>
        <pt x="895" y="1653" on="1"/>
        <pt x="941" y="1653" on="1"/>
      </contour>
      <contour>
        <pt x="1833" y="190" on="1"/>
        <pt x="1833" y="177" on="0"/>
        <pt x="1810" y="127" on="1"/>
        <pt x="1782" y="63" on="0"/>
        <pt x="1777" y="50" on="1"/>
        <pt x="1776" y="48" on="0"/>
        <pt x="1737" y="20" on="1"/>
        <pt x="1652" y="-4" on="0"/>
        <pt x="1582" y="-4" on="1"/>
        <pt x="1517" y="-4" on="0"/>
        <pt x="1447" y="29" on="1"/>
        <pt x="1421" y="54" on="0"/>
        <pt x="1377" y="88" on="1"/>
        <pt x="1345" y="60" on="0"/>
        <pt x="1267" y="0" on="1"/>
        <pt x="1219" y="-35" on="0"/>
        <pt x="1152" y="-35" on="1"/>
        <pt x="1090" y="-35" on="0"/>
        <pt x="988" y="47" on="1"/>
        <pt x="862" y="-27" on="0"/>
        <pt x="825" y="-44" on="1"/>
        <pt x="753" y="-76" on="0"/>
        <pt x="671" y="-76" on="1"/>
        <pt x="509" y="-76" on="0"/>
        <pt x="442" y="28" on="1"/>
        <pt x="393" y="105" on="0"/>
        <pt x="387" y="265" on="1"/>
        <pt x="384" y="393" on="0"/>
        <pt x="382" y="523" on="1"/>
        <pt x="378" y="610" on="0"/>
        <pt x="365" y="799" on="1"/>
        <pt x="360" y="851" on="0"/>
        <pt x="337" y="963" on="1"/>
        <pt x="317" y="1066" on="0"/>
        <pt x="317" y="1076" on="1"/>
        <pt x="317" y="1090" on="0"/>
        <pt x="335" y="1123" on="1"/>
        <pt x="354" y="1159" on="0"/>
        <pt x="372" y="1173" on="1"/>
        <pt x="401" y="1173" on="0"/>
        <pt x="415" y="1149" on="1"/>
        <pt x="459" y="983" on="0"/>
        <pt x="466" y="755" on="1"/>
        <pt x="472" y="588" on="0"/>
        <pt x="478" y="421" on="1"/>
        <pt x="480" y="365" on="0"/>
        <pt x="482" y="308" on="1"/>
        <pt x="487" y="233" on="0"/>
        <pt x="504" y="187" on="1"/>
        <pt x="522" y="137" on="0"/>
        <pt x="588" y="105" on="1"/>
        <pt x="645" y="78" on="0"/>
        <pt x="696" y="78" on="1"/>
        <pt x="768" y="78" on="0"/>
        <pt x="1021" y="170" on="0"/>
        <pt x="1008" y="170" on="1"/>
        <pt x="1020" y="170" on="0"/>
        <pt x="1175" y="129" on="0"/>
        <pt x="1188" y="129" on="1"/>
        <pt x="1227" y="129" on="0"/>
        <pt x="1272" y="148" on="1"/>
        <pt x="1331" y="174" on="0"/>
        <pt x="1331" y="216" on="1"/>
        <pt x="1331" y="229" on="0"/>
        <pt x="1280" y="479" on="0"/>
        <pt x="1280" y="492" on="1"/>
        <pt x="1280" y="538" on="0"/>
        <pt x="1315" y="610" on="1"/>
        <pt x="1348" y="582" on="0"/>
        <pt x="1380" y="467" on="1"/>
        <pt x="1402" y="378" on="0"/>
        <pt x="1425" y="289" on="1"/>
        <pt x="1466" y="160" on="0"/>
        <pt x="1628" y="160" on="1"/>
        <pt x="1715" y="160" on="0"/>
        <pt x="1730" y="186" on="1"/>
        <pt x="1720" y="215" on="0"/>
        <pt x="1682" y="291" on="1"/>
        <pt x="1648" y="356" on="0"/>
        <pt x="1648" y="369" on="1"/>
        <pt x="1648" y="416" on="0"/>
        <pt x="1682" y="466" on="1"/>
        <pt x="1714" y="466" on="1"/>
        <pt x="1737" y="467" on="0"/>
        <pt x="1780" y="389" on="1"/>
        <pt x="1818" y="320" on="0"/>
        <pt x="1819" y="308" on="1"/>
        <pt x="1819" y="288" on="0"/>
        <pt x="1827" y="243" on="1"/>
        <pt x="1833" y="203" on="0"/>
      </contour>
      <contour>
        <pt x="901" y="533" on="1"/>
        <pt x="901" y="510" on="0"/>
        <pt x="857" y="472" on="1"/>
        <pt x="816" y="436" on="0"/>
        <pt x="799" y="436" on="1"/>
        <pt x="754" y="436" on="0"/>
        <pt x="717" y="518" on="1"/>
        <pt x="717" y="537" on="0"/>
        <pt x="750" y="577" on="1"/>
        <pt x="786" y="620" on="0"/>
        <pt x="814" y="620" on="1"/>
        <pt x="833" y="620" on="0"/>
        <pt x="901" y="552" on="0"/>
      </contour>
      <contour>
        <pt x="1628" y="-249" on="1"/>
        <pt x="1628" y="-283" on="0"/>
        <pt x="1584" y="-315" on="1"/>
        <pt x="1547" y="-342" on="0"/>
        <pt x="1530" y="-342" on="1"/>
        <pt x="1515" y="-342" on="0"/>
        <pt x="1449" y="-301" on="1"/>
        <pt x="1443" y="-305" on="0"/>
        <pt x="1398" y="-344" on="1"/>
        <pt x="1366" y="-372" on="0"/>
        <pt x="1352" y="-372" on="1"/>
        <pt x="1321" y="-372" on="0"/>
        <pt x="1293" y="-339" on="1"/>
        <pt x="1270" y="-311" on="0"/>
        <pt x="1270" y="-295" on="1"/>
        <pt x="1270" y="-273" on="0"/>
        <pt x="1345" y="-199" on="0"/>
        <pt x="1366" y="-199" on="1"/>
        <pt x="1378" y="-199" on="0"/>
        <pt x="1427" y="-229" on="0"/>
        <pt x="1438" y="-229" on="1"/>
        <pt x="1449" y="-229" on="0"/>
        <pt x="1521" y="-158" on="0"/>
        <pt x="1536" y="-158" on="1"/>
        <pt x="1548" y="-158" on="0"/>
        <pt x="1573" y="-181" on="1"/>
        <pt x="1602" y="-208" on="0"/>
        <pt x="1612" y="-214" on="1"/>
        <pt x="1628" y="-240" on="0"/>
      </contour>
    </TTGlyph>
    <TTGlyph name="uniFB53" xMin="270" yMin="-430" xMax="3116" yMax="1851">
      <contour>
        <pt x="3116" y="1536" on="1"/>
        <pt x="3116" y="1521" on="0"/>
        <pt x="3105" y="1491" on="0"/>
        <pt x="3104" y="1486" on="0"/>
        <pt x="3103" y="1485" on="1"/>
        <pt x="3094" y="1475" on="0"/>
        <pt x="3075" y="1475" on="1"/>
        <pt x="3060" y="1475" on="0"/>
        <pt x="3023" y="1497" on="1"/>
        <pt x="2967" y="1532" on="0"/>
        <pt x="2959" y="1536" on="1"/>
        <pt x="2791" y="1356" on="0"/>
        <pt x="2568" y="1311" on="1"/>
        <pt x="2560" y="1313" on="0"/>
        <pt x="2542" y="1326" on="1"/>
        <pt x="2581" y="1359" on="0"/>
        <pt x="2760" y="1466" on="1"/>
        <pt x="2795" y="1499" on="0"/>
        <pt x="2860" y="1552" on="1"/>
        <pt x="2852" y="1569" on="0"/>
        <pt x="2814" y="1603" on="1"/>
        <pt x="2783" y="1632" on="0"/>
        <pt x="2778" y="1658" on="1"/>
        <pt x="2775" y="1699" on="0"/>
        <pt x="2891" y="1851" on="0"/>
        <pt x="2935" y="1851" on="1"/>
        <pt x="2941" y="1851" on="0"/>
        <pt x="2946" y="1849" on="1"/>
        <pt x="2985" y="1831" on="0"/>
        <pt x="2995" y="1656" on="1"/>
        <pt x="2996" y="1655" on="0"/>
        <pt x="3065" y="1607" on="1"/>
        <pt x="3116" y="1572" on="0"/>
      </contour>
      <contour>
        <pt x="2552" y="1519" on="1"/>
        <pt x="2553" y="1480" on="0"/>
        <pt x="2438" y="1428" on="1"/>
        <pt x="2336" y="1382" on="0"/>
        <pt x="2311" y="1382" on="1"/>
        <pt x="2198" y="1382" on="1"/>
        <pt x="2175" y="1407" on="1"/>
        <pt x="2177" y="1429" on="0"/>
        <pt x="2236" y="1455" on="1"/>
        <pt x="2281" y="1473" on="0"/>
        <pt x="2326" y="1492" on="1"/>
        <pt x="2326" y="1501" on="1"/>
        <pt x="2302" y="1525" on="0"/>
        <pt x="2266" y="1525" on="1"/>
        <pt x="2270" y="1525" on="0"/>
        <pt x="2189" y="1505" on="1"/>
        <pt x="2174" y="1519" on="0"/>
        <pt x="2174" y="1536" on="1"/>
        <pt x="2174" y="1578" on="0"/>
        <pt x="2228" y="1605" on="1"/>
        <pt x="2271" y="1628" on="0"/>
        <pt x="2312" y="1628" on="1"/>
        <pt x="2361" y="1628" on="0"/>
        <pt x="2434" y="1605" on="1"/>
        <pt x="2493" y="1584" on="0"/>
        <pt x="2552" y="1565" on="1"/>
      </contour>
      <contour>
        <pt x="2574" y="901" on="1"/>
        <pt x="2574" y="871" on="0"/>
        <pt x="2540" y="833" on="1"/>
        <pt x="2509" y="799" on="0"/>
        <pt x="2492" y="799" on="1"/>
        <pt x="2481" y="799" on="0"/>
        <pt x="2420" y="840" on="0"/>
        <pt x="2405" y="840" on="1"/>
        <pt x="2397" y="840" on="0"/>
        <pt x="2349" y="778" on="0"/>
        <pt x="2312" y="778" on="1"/>
        <pt x="2283" y="778" on="0"/>
        <pt x="2260" y="793" on="0"/>
        <pt x="2194" y="854" on="1"/>
        <pt x="2200" y="860" on="0"/>
        <pt x="2238" y="927" on="1"/>
        <pt x="2264" y="972" on="0"/>
        <pt x="2292" y="972" on="1"/>
        <pt x="2304" y="972" on="0"/>
        <pt x="2375" y="922" on="0"/>
        <pt x="2384" y="922" on="1"/>
        <pt x="2397" y="922" on="0"/>
        <pt x="2464" y="993" on="0"/>
        <pt x="2476" y="993" on="1"/>
        <pt x="2501" y="993" on="0"/>
        <pt x="2574" y="927" on="0"/>
      </contour>
      <contour>
        <pt x="1836" y="1582" on="1"/>
        <pt x="1836" y="1528" on="0"/>
        <pt x="1782" y="1497" on="1"/>
        <pt x="1627" y="1425" on="0"/>
        <pt x="1319" y="1270" on="1"/>
        <pt x="1305" y="1281" on="0"/>
        <pt x="1295" y="1281" on="1"/>
        <pt x="1295" y="1325" on="1"/>
        <pt x="1293" y="1356" on="0"/>
        <pt x="1329" y="1377" on="1"/>
        <pt x="1433" y="1440" on="0"/>
        <pt x="1763" y="1607" on="0"/>
        <pt x="1781" y="1606" on="1"/>
        <pt x="1824" y="1606" on="1"/>
        <pt x="1836" y="1606" on="0"/>
      </contour>
      <contour>
        <pt x="3054" y="281" on="1"/>
        <pt x="3045" y="212" on="0"/>
        <pt x="3037" y="144" on="1"/>
        <pt x="3025" y="66" on="0"/>
        <pt x="2981" y="34" on="1"/>
        <pt x="2959" y="18" on="0"/>
        <pt x="2863" y="-2" on="1"/>
        <pt x="2776" y="-20" on="0"/>
        <pt x="2753" y="-20" on="1"/>
        <pt x="2644" y="-20" on="0"/>
        <pt x="2437" y="51" on="0"/>
        <pt x="2389" y="51" on="1"/>
        <pt x="2392" y="51" on="0"/>
        <pt x="2262" y="23" on="1"/>
        <pt x="2182" y="6" on="0"/>
        <pt x="1947" y="-3" on="1"/>
        <pt x="1925" y="-40" on="0"/>
        <pt x="1894" y="-71" on="1"/>
        <pt x="1622" y="-80" on="0"/>
        <pt x="1523" y="61" on="1"/>
        <pt x="1494" y="36" on="0"/>
        <pt x="1403" y="7" on="1"/>
        <pt x="1319" y="-20" on="0"/>
        <pt x="1258" y="-20" on="1"/>
        <pt x="1246" y="-20" on="0"/>
        <pt x="1158" y="-10" on="0"/>
        <pt x="1145" y="-10" on="1"/>
        <pt x="1116" y="-10" on="0"/>
        <pt x="1112" y="-36" on="1"/>
        <pt x="1094" y="-143" on="0"/>
        <pt x="1088" y="-160" on="1"/>
        <pt x="1073" y="-213" on="0"/>
        <pt x="1033" y="-254" on="1"/>
        <pt x="857" y="-430" on="0"/>
        <pt x="608" y="-430" on="1"/>
        <pt x="494" y="-430" on="0"/>
        <pt x="395" y="-373" on="1"/>
        <pt x="270" y="-303" on="0"/>
        <pt x="270" y="-179" on="1"/>
        <pt x="270" y="-113" on="0"/>
        <pt x="360" y="79" on="0"/>
        <pt x="417" y="132" on="1"/>
        <pt x="454" y="132" on="1"/>
        <pt x="454" y="86" on="1"/>
        <pt x="454" y="73" on="0"/>
        <pt x="382" y="-84" on="0"/>
        <pt x="382" y="-97" on="1"/>
        <pt x="382" y="-194" on="0"/>
        <pt x="485" y="-242" on="1"/>
        <pt x="557" y="-276" on="0"/>
        <pt x="639" y="-276" on="1"/>
        <pt x="743" y="-276" on="0"/>
        <pt x="853" y="-237" on="1"/>
        <pt x="1007" y="-183" on="0"/>
        <pt x="1007" y="-81" on="1"/>
        <pt x="1007" y="7" on="0"/>
        <pt x="918" y="147" on="1"/>
        <pt x="918" y="147" on="0"/>
        <pt x="911" y="160" on="1"/>
        <pt x="905" y="169" on="0"/>
        <pt x="905" y="184" on="1"/>
        <pt x="905" y="215" on="0"/>
        <pt x="959" y="297" on="1"/>
        <pt x="987" y="293" on="0"/>
        <pt x="1025" y="230" on="1"/>
        <pt x="1070" y="157" on="0"/>
        <pt x="1087" y="145" on="1"/>
        <pt x="1131" y="112" on="0"/>
        <pt x="1268" y="112" on="1"/>
        <pt x="1446" y="112" on="0"/>
        <pt x="1521" y="175" on="1"/>
        <pt x="1559" y="216" on="0"/>
        <pt x="1595" y="256" on="1"/>
        <pt x="1665" y="328" on="0"/>
        <pt x="1698" y="328" on="1"/>
        <pt x="1710" y="328" on="0"/>
        <pt x="1750" y="285" on="1"/>
        <pt x="1804" y="229" on="0"/>
        <pt x="1835" y="206" on="1"/>
        <pt x="1920" y="143" on="0"/>
        <pt x="2036" y="143" on="1"/>
        <pt x="2098" y="143" on="1"/>
        <pt x="2139" y="143" on="0"/>
        <pt x="2279" y="175" on="1"/>
        <pt x="2296" y="232" on="0"/>
        <pt x="2341" y="345" on="1"/>
        <pt x="2397" y="456" on="0"/>
        <pt x="2504" y="548" on="1"/>
        <pt x="2533" y="573" on="0"/>
        <pt x="2574" y="573" on="1"/>
        <pt x="2633" y="573" on="0"/>
        <pt x="2651" y="540" on="1"/>
        <pt x="2696" y="455" on="0"/>
        <pt x="2696" y="348" on="1"/>
        <pt x="2696" y="284" on="0"/>
        <pt x="2692" y="272" on="1"/>
        <pt x="2686" y="251" on="0"/>
        <pt x="2635" y="178" on="1"/>
        <pt x="2634" y="171" on="0"/>
        <pt x="2636" y="162" on="1"/>
        <pt x="2716" y="133" on="0"/>
        <pt x="2744" y="133" on="1"/>
        <pt x="2772" y="133" on="1"/>
        <pt x="2793" y="133" on="0"/>
        <pt x="2858" y="147" on="1"/>
        <pt x="2934" y="165" on="0"/>
        <pt x="2949" y="182" on="1"/>
        <pt x="2963" y="224" on="0"/>
        <pt x="2963" y="251" on="1"/>
        <pt x="2963" y="237" on="0"/>
        <pt x="2928" y="496" on="1"/>
        <pt x="2912" y="642" on="0"/>
        <pt x="2867" y="915" on="1"/>
        <pt x="2864" y="927" on="0"/>
        <pt x="2850" y="961" on="1"/>
        <pt x="2840" y="989" on="0"/>
        <pt x="2840" y="1004" on="1"/>
        <pt x="2840" y="1039" on="0"/>
        <pt x="2869" y="1117" on="1"/>
        <pt x="2894" y="1187" on="0"/>
        <pt x="2914" y="1217" on="1"/>
        <pt x="2950" y="1217" on="1"/>
        <pt x="2951" y="1216" on="0"/>
        <pt x="2952" y="1212" on="0"/>
        <pt x="2952" y="1141" on="1"/>
        <pt x="2952" y="1095" on="0"/>
        <pt x="2976" y="1075" on="1"/>
        <pt x="2986" y="1065" on="0"/>
        <pt x="3054" y="1031" on="1"/>
        <pt x="3044" y="1000" on="0"/>
        <pt x="2993" y="864" on="0"/>
        <pt x="2983" y="834" on="1"/>
      </contour>
      <contour>
        <pt x="904" y="1509" on="1"/>
        <pt x="905" y="1474" on="0"/>
        <pt x="758" y="1399" on="1"/>
        <pt x="635" y="1330" on="0"/>
        <pt x="387" y="1208" on="1"/>
        <pt x="373" y="1220" on="0"/>
        <pt x="363" y="1220" on="1"/>
        <pt x="363" y="1266" on="1"/>
        <pt x="408" y="1316" on="0"/>
        <pt x="447" y="1337" on="1"/>
        <pt x="449" y="1338" on="0"/>
        <pt x="687" y="1473" on="1"/>
        <pt x="834" y="1556" on="0"/>
        <pt x="850" y="1556" on="1"/>
        <pt x="904" y="1556" on="1"/>
      </contour>
      <contour>
        <pt x="1324" y="660" on="1"/>
        <pt x="1324" y="559" on="0"/>
        <pt x="1279" y="512" on="1"/>
        <pt x="1264" y="520" on="0"/>
        <pt x="1259" y="562" on="1"/>
        <pt x="1252" y="618" on="0"/>
        <pt x="1249" y="628" on="1"/>
        <pt x="1237" y="660" on="0"/>
        <pt x="1181" y="745" on="1"/>
        <pt x="1130" y="822" on="0"/>
        <pt x="1130" y="834" on="1"/>
        <pt x="1130" y="854" on="0"/>
        <pt x="1153" y="900" on="1"/>
        <pt x="1185" y="900" on="1"/>
        <pt x="1217" y="901" on="0"/>
        <pt x="1269" y="815" on="1"/>
        <pt x="1311" y="745" on="0"/>
        <pt x="1320" y="713" on="1"/>
        <pt x="1324" y="698" on="0"/>
      </contour>
      <contour>
        <pt x="710" y="542" on="1"/>
        <pt x="710" y="501" on="0"/>
        <pt x="628" y="440" on="1"/>
        <pt x="590" y="440" on="0"/>
        <pt x="557" y="472" on="1"/>
        <pt x="526" y="501" on="0"/>
        <pt x="526" y="527" on="1"/>
        <pt x="526" y="553" on="0"/>
        <pt x="549" y="590" on="1"/>
        <pt x="577" y="635" on="0"/>
        <pt x="613" y="635" on="1"/>
        <pt x="641" y="635" on="0"/>
        <pt x="677" y="597" on="1"/>
        <pt x="710" y="562" on="0"/>
      </contour>
      <contour>
        <pt x="2593" y="288" on="1"/>
        <pt x="2596" y="296" on="0"/>
        <pt x="2596" y="305" on="1"/>
        <pt x="2596" y="363" on="0"/>
        <pt x="2550" y="409" on="1"/>
        <pt x="2520" y="406" on="0"/>
        <pt x="2410" y="298" on="0"/>
        <pt x="2410" y="276" on="1"/>
        <pt x="2410" y="260" on="0"/>
        <pt x="2444" y="225" on="0"/>
        <pt x="2461" y="225" on="1"/>
        <pt x="2506" y="225" on="0"/>
      </contour>
      <contour>
        <pt x="1743" y="104" on="1"/>
        <pt x="1722" y="138" on="0"/>
        <pt x="1690" y="193" on="1"/>
        <pt x="1654" y="193" on="1"/>
        <pt x="1654" y="188" on="0"/>
        <pt x="1642" y="161" on="0"/>
        <pt x="1642" y="156" on="1"/>
        <pt x="1700" y="118" on="0"/>
      </contour>
    </TTGlyph>
</ttFont>
